<svg xmlns="http://www.w3.org/2000/svg" xmlns:xlink="http://www.w3.org/1999/xlink" contentStyleType="text/css" height="1567px" preserveAspectRatio="none" style="width:1179px;height:1567px;background:#FFFFFF;" version="1.1" viewBox="0 0 1179 1567" width="1179px" zoomAndPan="magnify"><title>Diagramme d'activit&#233; &#8212; SPARKY</title><defs/><g><text fill="#000000" font-family="Segoe UI" font-size="26" font-weight="bold" lengthAdjust="spacing" textLength="402.0098" x="387.1196" y="52.0566">Diagramme d'activit&#233; &#8212; SPARKY</text><rect fill="none" height="34.6016" style="stroke:none;stroke-width:1.0;" width="1146.249" x="15" y="74.582"/><rect fill="#D6EAF8" height="1481.2832" style="stroke:#D6EAF8;stroke-width:1.0;" width="610.1016" x="15" y="74.582"/><ellipse cx="326.5508" cy="124.1836" fill="#222222" rx="10" ry="10" style="stroke:#222222;stroke-width:1.0;"/><rect fill="#FFFEF5" height="75.8828" rx="6" ry="6" style="stroke:#555555;stroke-width:1.5;" width="210.2852" x="221.4082" y="154.1836"/><text fill="#000000" font-family="Segoe UI" font-size="18" lengthAdjust="spacing" textLength="102.6387" x="235.4082" y="187.6074">Se connecter</text><text fill="#000000" font-family="Segoe UI" font-size="18" lengthAdjust="spacing" textLength="182.2852" x="235.4082" y="211.5488">(email + mot de passe)</text><rect fill="#FFFEF5" height="75.8828" rx="6" ry="6" style="stroke:#555555;stroke-width:1.5;" width="219.3027" x="216.8994" y="407.1104"/><text fill="#000000" font-family="Segoe UI" font-size="18" lengthAdjust="spacing" textLength="191.3027" x="230.8994" y="440.5342">T&#233;l&#233;verser un document</text><text fill="#000000" font-family="Segoe UI" font-size="18" lengthAdjust="spacing" textLength="121.9834" x="230.8994" y="464.4756">(PDF ou image)</text><polygon fill="#FFFFFF" points="70.5212,1296.6055,139.0754,1296.6055,151.0754,1311.9111,139.0754,1327.2168,70.5212,1327.2168,58.5212,1311.9111,70.5212,1296.6055" style="stroke:#B8860B;stroke-width:1.5;"/><text fill="#000000" font-family="Segoe UI" font-size="16" lengthAdjust="spacing" textLength="70.1016" x="112.7983" y="1348.4824">Comparer</text><text fill="#000000" font-family="Segoe UI" font-size="17" lengthAdjust="spacing" textLength="60.5542" x="74.5212" y="1318.9502">Action ?</text><rect fill="#FFFEF5" height="51.9414" rx="6" ry="6" style="stroke:#555555;stroke-width:1.5;" width="167.5967" x="21" y="1369.9824"/><text fill="#000000" font-family="Segoe UI" font-size="18" lengthAdjust="spacing" textLength="139.5967" x="35" y="1403.4063">Comparer les prix</text><polygon fill="#FFFFFF" points="245.7766,1296.6055,316.6052,1296.6055,328.6052,1311.9111,316.6052,1327.2168,245.7766,1327.2168,233.7766,1311.9111,245.7766,1296.6055" style="stroke:#B8860B;stroke-width:1.5;"/><text fill="#000000" font-family="Segoe UI" font-size="16" lengthAdjust="spacing" textLength="35.0703" x="289.1909" y="1348.4824">Excel</text><text fill="#000000" font-family="Segoe UI" font-size="17" lengthAdjust="spacing" textLength="62.8286" x="249.7766" y="1318.9502">Exporter</text><rect fill="#FFFEF5" height="51.9414" rx="6" ry="6" style="stroke:#555555;stroke-width:1.5;" width="165.1885" x="198.5967" y="1369.9824"/><text fill="#000000" font-family="Segoe UI" font-size="18" lengthAdjust="spacing" textLength="137.1885" x="212.5967" y="1403.4063">T&#233;l&#233;charger Excel</text><polygon fill="#FFFFFF" points="458.6094,1296.6055,517.2773,1296.6055,529.2773,1311.9111,517.2773,1327.2168,458.6094,1327.2168,446.6094,1311.9111,458.6094,1296.6055" style="stroke:#B8860B;stroke-width:1.5;"/><text fill="#000000" font-family="Segoe UI" font-size="16" lengthAdjust="spacing" textLength="28.75" x="495.9434" y="1348.4824">Voir</text><text fill="#000000" font-family="Segoe UI" font-size="17" lengthAdjust="spacing" textLength="50.668" x="462.6094" y="1318.9502">D&#233;tails</text><text fill="#000000" font-family="Segoe UI" font-size="16" lengthAdjust="spacing" textLength="49.7656" x="533.2773" y="1303.8955">Quitter</text><rect fill="#FFFEF5" height="51.9414" rx="6" ry="6" style="stroke:#555555;stroke-width:1.5;" width="208.3164" x="383.7852" y="1369.9824"/><text fill="#000000" font-family="Segoe UI" font-size="18" lengthAdjust="spacing" textLength="180.3164" x="397.7852" y="1403.4063">Consulter le document</text><rect fill="#FFFEF5" height="51.9414" rx="6" ry="6" style="stroke:#555555;stroke-width:1.5;" width="150.6514" x="251.2251" y="1461.9238"/><text fill="#000000" font-family="Segoe UI" font-size="18" lengthAdjust="spacing" textLength="122.6514" x="265.2251" y="1495.3477">Se d&#233;connecter</text><ellipse cx="326.5508" cy="1544.8652" fill="none" rx="11" ry="11" style="stroke:#222222;stroke-width:1.0;"/><ellipse cx="326.5508" cy="1544.8652" fill="#222222" rx="6" ry="6" style="stroke:#222222;stroke-width:1.0;"/><line style="stroke:#BBBBBB;stroke-width:1.2;" x1="15" x2="15" y1="74.582" y2="1555.8652"/><rect fill="#FCF3CF" height="1481.2832" style="stroke:#FCF3CF;stroke-width:1.0;" width="334.8184" x="625.1016" y="74.582"/><polygon fill="#FFFFFF" points="742.9224,252.5576,845.8833,252.5576,857.8833,267.8633,845.8833,283.1689,742.9224,283.1689,730.9224,267.8633,742.9224,252.5576" style="stroke:#B8860B;stroke-width:1.5;"/><text fill="#000000" font-family="Segoe UI" font-size="17" lengthAdjust="spacing" textLength="94.9609" x="746.9224" y="274.9023">Authentifi&#233; ?</text><text fill="#000000" font-family="Segoe UI" font-size="16" lengthAdjust="spacing" textLength="22.3047" x="704.6177" y="259.8477">oui</text><text fill="#000000" font-family="Segoe UI" font-size="16" lengthAdjust="spacing" textLength="27.4844" x="861.8833" y="259.8477">non</text><rect fill="#FFFEF5" height="51.9414" rx="6" ry="6" style="stroke:#555555;stroke-width:1.5;" width="154.1934" x="631.1016" y="293.1689"/><text fill="#000000" font-family="Segoe UI" font-size="18" lengthAdjust="spacing" textLength="126.1934" x="645.1016" y="326.5928">G&#233;n&#233;rer un JWT</text><rect fill="#FFFEF5" height="51.9414" rx="6" ry="6" style="stroke:#555555;stroke-width:1.5;" width="150.625" x="805.2949" y="293.1689"/><text fill="#000000" font-family="Segoe UI" font-size="18" lengthAdjust="spacing" textLength="122.625" x="819.2949" y="326.5928">Afficher l'erreur</text><ellipse cx="880.6074" cy="376.1104" fill="none" rx="11" ry="11" style="stroke:#222222;stroke-width:1.0;"/><ellipse cx="880.6074" cy="376.1104" fill="#222222" rx="6" ry="6" style="stroke:#222222;stroke-width:1.0;"/><rect fill="#FFFEF5" height="51.9414" rx="6" ry="6" style="stroke:#555555;stroke-width:1.5;" width="159.2998" x="714.7529" y="502.9932"/><text fill="#000000" font-family="Segoe UI" font-size="18" lengthAdjust="spacing" textLength="131.2998" x="728.7529" y="536.417">Stocker le fichier</text><rect fill="#FFFEF5" height="75.8828" rx="6" ry="6" style="stroke:#555555;stroke-width:1.5;" width="202.4453" x="693.1802" y="574.9346"/><text fill="#000000" font-family="Segoe UI" font-size="18" lengthAdjust="spacing" textLength="174.4453" x="707.1802" y="608.3584">Classifier le document</text><text fill="#000000" font-family="Segoe UI" font-size="18" lengthAdjust="spacing" textLength="86.2295" x="707.1802" y="632.2998">(Mistral AI)</text><rect fill="#FFFEF5" height="75.8828" rx="6" ry="6" style="stroke:#555555;stroke-width:1.5;" width="206.6641" x="691.0708" y="670.8174"/><text fill="#000000" font-family="Segoe UI" font-size="18" lengthAdjust="spacing" textLength="158.168" x="705.0708" y="704.2412">Extraire les donn&#233;es</text><text fill="#000000" font-family="Segoe UI" font-size="18" lengthAdjust="spacing" textLength="178.6641" x="705.0708" y="728.1826">structur&#233;es (Mistral AI)</text><rect fill="#FFFEF5" height="75.8828" rx="6" ry="6" style="stroke:#555555;stroke-width:1.5;" width="196.082" x="696.3618" y="766.7002"/><text fill="#000000" font-family="Segoe UI" font-size="18" lengthAdjust="spacing" textLength="151.8398" x="710.3618" y="800.124">Enregistrer en base</text><text fill="#000000" font-family="Segoe UI" font-size="18" lengthAdjust="spacing" textLength="168.082" x="710.3618" y="824.0654">(documents + lignes)</text><rect fill="#FFFEF5" height="51.9414" rx="6" ry="6" style="stroke:#555555;stroke-width:1.5;" width="123.1416" x="732.832" y="862.583"/><text fill="#000000" font-family="Segoe UI" font-size="18" lengthAdjust="spacing" textLength="95.1416" x="746.832" y="896.0068">Notifier n8n</text><rect fill="#FFFEF5" height="75.8828" rx="6" ry="6" style="stroke:#555555;stroke-width:1.5;" width="220.1201" x="684.3428" y="1198.2314"/><text fill="#000000" font-family="Segoe UI" font-size="18" lengthAdjust="spacing" textLength="144.2549" x="698.3428" y="1231.6553">Afficher le r&#233;sultat</text><text fill="#000000" font-family="Segoe UI" font-size="18" lengthAdjust="spacing" textLength="192.1201" x="698.3428" y="1255.5967">(tableau + classification)</text><line style="stroke:#BBBBBB;stroke-width:1.2;" x1="625.1016" x2="625.1016" y1="74.582" y2="1555.8652"/><rect fill="#FADBD8" height="1481.2832" style="stroke:#FADBD8;stroke-width:1.0;" width="195.5703" x="959.9199" y="74.582"/><rect fill="#FFFEF5" height="51.9414" rx="6" ry="6" style="stroke:#555555;stroke-width:1.5;" width="178.5391" x="969.4355" y="934.5244"/><text fill="#000000" font-family="Segoe UI" font-size="18" lengthAdjust="spacing" textLength="150.5391" x="983.4355" y="967.9482">Pr&#233;parer le rapport</text><rect fill="#FFFEF5" height="75.8828" rx="6" ry="6" style="stroke:#555555;stroke-width:1.5;" width="185.5703" x="965.9199" y="1006.4658"/><text fill="#000000" font-family="Segoe UI" font-size="18" lengthAdjust="spacing" textLength="136.3008" x="979.9199" y="1039.8896">Ajouter les lignes</text><text fill="#000000" font-family="Segoe UI" font-size="18" lengthAdjust="spacing" textLength="157.5703" x="979.9199" y="1063.8311">dans Google Sheets</text><rect fill="#FFFEF5" height="75.8828" rx="6" ry="6" style="stroke:#555555;stroke-width:1.5;" width="163.8701" x="976.77" y="1102.3486"/><text fill="#000000" font-family="Segoe UI" font-size="18" lengthAdjust="spacing" textLength="135.8701" x="990.77" y="1135.7725">Envoyer un email</text><text fill="#000000" font-family="Segoe UI" font-size="18" lengthAdjust="spacing" textLength="122.4932" x="990.77" y="1159.7139">au gestionnaire</text><line style="stroke:#BBBBBB;stroke-width:1.2;" x1="959.9199" x2="959.9199" y1="74.582" y2="1555.8652"/><line style="stroke:#BBBBBB;stroke-width:1.2;" x1="1155.4902" x2="1155.4902" y1="74.582" y2="1555.8652"/><line style="stroke:#555555;stroke-width:1.5;" x1="326.5508" x2="326.5508" y1="134.1836" y2="154.1836"/><polygon fill="#555555" points="322.5508,144.1836,326.5508,154.1836,330.5508,144.1836,326.5508,148.1836" style="stroke:#555555;stroke-width:1.0;"/><line style="stroke:#555555;stroke-width:1.5;" x1="104.7983" x2="104.7983" y1="1327.2168" y2="1369.9824"/><polygon fill="#555555" points="100.7983,1359.9824,104.7983,1369.9824,108.7983,1359.9824,104.7983,1363.9824" style="stroke:#555555;stroke-width:1.0;"/><line style="stroke:#555555;stroke-width:1.5;" x1="104.7983" x2="104.7983" y1="1421.9238" y2="1441.9238"/><polygon fill="#555555" points="100.7983,1431.9238,104.7983,1441.9238,108.7983,1431.9238,104.7983,1435.9238" style="stroke:#555555;stroke-width:1.0;"/><line style="stroke:#555555;stroke-width:1.5;" x1="281.1909" x2="281.1909" y1="1327.2168" y2="1369.9824"/><polygon fill="#555555" points="277.1909,1359.9824,281.1909,1369.9824,285.1909,1359.9824,281.1909,1363.9824" style="stroke:#555555;stroke-width:1.0;"/><line style="stroke:#555555;stroke-width:1.5;" x1="281.1909" x2="281.1909" y1="1421.9238" y2="1441.9238"/><polygon fill="#555555" points="277.1909,1431.9238,281.1909,1441.9238,285.1909,1431.9238,281.1909,1435.9238" style="stroke:#555555;stroke-width:1.0;"/><line style="stroke:#555555;stroke-width:1.5;" x1="487.9434" x2="487.9434" y1="1327.2168" y2="1369.9824"/><polygon fill="#555555" points="483.9434,1359.9824,487.9434,1369.9824,491.9434,1359.9824,487.9434,1363.9824" style="stroke:#555555;stroke-width:1.0;"/><line style="stroke:#555555;stroke-width:1.5;" x1="487.9434" x2="487.9434" y1="1421.9238" y2="1441.9238"/><polygon fill="#555555" points="483.9434,1431.9238,487.9434,1441.9238,491.9434,1431.9238,487.9434,1435.9238" style="stroke:#555555;stroke-width:1.0;"/><line style="stroke:#555555;stroke-width:1.5;" x1="151.0754" x2="233.7766" y1="1311.9111" y2="1311.9111"/><polygon fill="#555555" points="223.7766,1307.9111,233.7766,1311.9111,223.7766,1315.9111,227.7766,1311.9111" style="stroke:#555555;stroke-width:1.0;"/><line style="stroke:#555555;stroke-width:1.5;" x1="328.6052" x2="446.6094" y1="1311.9111" y2="1311.9111"/><polygon fill="#555555" points="436.6094,1307.9111,446.6094,1311.9111,436.6094,1315.9111,440.6094,1311.9111" style="stroke:#555555;stroke-width:1.0;"/><line style="stroke:#555555;stroke-width:1.5;" x1="794.4028" x2="794.4028" y1="1274.1143" y2="1279.1143"/><line style="stroke:#555555;stroke-width:1.5;" x1="794.4028" x2="104.7983" y1="1279.1143" y2="1279.1143"/><line style="stroke:#555555;stroke-width:1.5;" x1="104.7983" x2="104.7983" y1="1279.1143" y2="1296.6055"/><polygon fill="#555555" points="100.7983,1286.6055,104.7983,1296.6055,108.7983,1286.6055,104.7983,1290.6055" style="stroke:#555555;stroke-width:1.0;"/><line style="stroke:#555555;stroke-width:1.5;" x1="529.2773" x2="606.1016" y1="1311.9111" y2="1311.9111"/><line style="stroke:#555555;stroke-width:1.5;" x1="606.1016" x2="606.1016" y1="1311.9111" y2="1381.0068"/><line style="stroke:#555555;stroke-width:1.5;" x1="606.1016" x2="606.1016" y1="1381.0068" y2="1441.9238"/><polygon fill="#555555" points="602.1016,1431.9238,606.1016,1441.9238,610.1016,1431.9238,606.1016,1435.9238" style="stroke:#555555;stroke-width:1.0;"/><line style="stroke:#555555;stroke-width:1.5;" x1="104.7983" x2="606.1016" y1="1441.9238" y2="1441.9238"/><line style="stroke:#555555;stroke-width:1.5;" x1="326.5508" x2="326.5508" y1="1441.9238" y2="1461.9238"/><polygon fill="#555555" points="322.5508,1451.9238,326.5508,1461.9238,330.5508,1451.9238,326.5508,1455.9238" style="stroke:#555555;stroke-width:1.0;"/><line style="stroke:#555555;stroke-width:1.5;" x1="326.5508" x2="326.5508" y1="1513.8652" y2="1533.8652"/><polygon fill="#555555" points="322.5508,1523.8652,326.5508,1533.8652,330.5508,1523.8652,326.5508,1527.8652" style="stroke:#555555;stroke-width:1.0;"/><line style="stroke:#555555;stroke-width:1.5;" x1="880.6074" x2="880.6074" y1="345.1104" y2="365.1104"/><polygon fill="#555555" points="876.6074,355.1104,880.6074,365.1104,884.6074,355.1104,880.6074,359.1104" style="stroke:#555555;stroke-width:1.0;"/><line style="stroke:#555555;stroke-width:1.5;" x1="730.9224" x2="708.1982" y1="267.8633" y2="267.8633"/><line style="stroke:#555555;stroke-width:1.5;" x1="708.1982" x2="708.1982" y1="267.8633" y2="293.1689"/><polygon fill="#555555" points="704.1982,283.1689,708.1982,293.1689,712.1982,283.1689,708.1982,287.1689" style="stroke:#555555;stroke-width:1.0;"/><line style="stroke:#555555;stroke-width:1.5;" x1="857.8833" x2="880.6074" y1="267.8633" y2="267.8633"/><line style="stroke:#555555;stroke-width:1.5;" x1="880.6074" x2="880.6074" y1="267.8633" y2="293.1689"/><polygon fill="#555555" points="876.6074,283.1689,880.6074,293.1689,884.6074,283.1689,880.6074,287.1689" style="stroke:#555555;stroke-width:1.0;"/><line style="stroke:#555555;stroke-width:1.5;" x1="708.1982" x2="708.1982" y1="345.1104" y2="392.1104"/><line style="stroke:#555555;stroke-width:1.5;" x1="708.1982" x2="326.5508" y1="392.1104" y2="392.1104"/><line style="stroke:#555555;stroke-width:1.5;" x1="326.5508" x2="326.5508" y1="392.1104" y2="407.1104"/><polygon fill="#555555" points="322.5508,397.1104,326.5508,407.1104,330.5508,397.1104,326.5508,401.1104" style="stroke:#555555;stroke-width:1.0;"/><line style="stroke:#555555;stroke-width:1.5;" x1="794.4028" x2="794.4028" y1="554.9346" y2="574.9346"/><polygon fill="#555555" points="790.4028,564.9346,794.4028,574.9346,798.4028,564.9346,794.4028,568.9346" style="stroke:#555555;stroke-width:1.0;"/><line style="stroke:#555555;stroke-width:1.5;" x1="794.4028" x2="794.4028" y1="650.8174" y2="670.8174"/><polygon fill="#555555" points="790.4028,660.8174,794.4028,670.8174,798.4028,660.8174,794.4028,664.8174" style="stroke:#555555;stroke-width:1.0;"/><line style="stroke:#555555;stroke-width:1.5;" x1="794.4028" x2="794.4028" y1="746.7002" y2="766.7002"/><polygon fill="#555555" points="790.4028,756.7002,794.4028,766.7002,798.4028,756.7002,794.4028,760.7002" style="stroke:#555555;stroke-width:1.0;"/><line style="stroke:#555555;stroke-width:1.5;" x1="794.4028" x2="794.4028" y1="842.583" y2="862.583"/><polygon fill="#555555" points="790.4028,852.583,794.4028,862.583,798.4028,852.583,794.4028,856.583" style="stroke:#555555;stroke-width:1.0;"/><line style="stroke:#555555;stroke-width:1.5;" x1="1058.7051" x2="1058.7051" y1="986.4658" y2="1006.4658"/><polygon fill="#555555" points="1054.7051,996.4658,1058.7051,1006.4658,1062.7051,996.4658,1058.7051,1000.4658" style="stroke:#555555;stroke-width:1.0;"/><line style="stroke:#555555;stroke-width:1.5;" x1="1058.7051" x2="1058.7051" y1="1082.3486" y2="1102.3486"/><polygon fill="#555555" points="1054.7051,1092.3486,1058.7051,1102.3486,1062.7051,1092.3486,1058.7051,1096.3486" style="stroke:#555555;stroke-width:1.0;"/><line style="stroke:#555555;stroke-width:1.5;" x1="326.5508" x2="326.5508" y1="230.0664" y2="235.0664"/><line style="stroke:#555555;stroke-width:1.5;" x1="326.5508" x2="794.4028" y1="235.0664" y2="235.0664"/><line style="stroke:#555555;stroke-width:1.5;" x1="794.4028" x2="794.4028" y1="235.0664" y2="252.5576"/><polygon fill="#555555" points="790.4028,242.5576,794.4028,252.5576,798.4028,242.5576,794.4028,246.5576" style="stroke:#555555;stroke-width:1.0;"/><line style="stroke:#555555;stroke-width:1.5;" x1="326.5508" x2="326.5508" y1="482.9932" y2="487.9932"/><line style="stroke:#555555;stroke-width:1.5;" x1="326.5508" x2="794.4028" y1="487.9932" y2="487.9932"/><line style="stroke:#555555;stroke-width:1.5;" x1="794.4028" x2="794.4028" y1="487.9932" y2="502.9932"/><polygon fill="#555555" points="790.4028,492.9932,794.4028,502.9932,798.4028,492.9932,794.4028,496.9932" style="stroke:#555555;stroke-width:1.0;"/><line style="stroke:#555555;stroke-width:1.5;" x1="794.4028" x2="794.4028" y1="914.5244" y2="919.5244"/><line style="stroke:#555555;stroke-width:1.5;" x1="794.4028" x2="1058.7051" y1="919.5244" y2="919.5244"/><line style="stroke:#555555;stroke-width:1.5;" x1="1058.7051" x2="1058.7051" y1="919.5244" y2="934.5244"/><polygon fill="#555555" points="1054.7051,924.5244,1058.7051,934.5244,1062.7051,924.5244,1058.7051,928.5244" style="stroke:#555555;stroke-width:1.0;"/><line style="stroke:#555555;stroke-width:1.5;" x1="1058.7051" x2="1058.7051" y1="1178.2314" y2="1183.2314"/><line style="stroke:#555555;stroke-width:1.5;" x1="1058.7051" x2="794.4028" y1="1183.2314" y2="1183.2314"/><line style="stroke:#555555;stroke-width:1.5;" x1="794.4028" x2="794.4028" y1="1183.2314" y2="1198.2314"/><polygon fill="#555555" points="790.4028,1188.2314,794.4028,1198.2314,798.4028,1188.2314,794.4028,1192.2314" style="stroke:#555555;stroke-width:1.0;"/><text fill="#2C3E50" font-family="Segoe UI" font-size="20" font-weight="bold" lengthAdjust="spacing" textLength="97.5195" x="271.291" y="100.1641">Utilisateur</text><text fill="#2C3E50" font-family="Segoe UI" font-size="20" font-weight="bold" lengthAdjust="spacing" textLength="189.6387" x="697.6914" y="100.1641">Application SPARKY</text><text fill="#2C3E50" font-family="Segoe UI" font-size="20" font-weight="bold" lengthAdjust="spacing" textLength="35.7031" x="1039.8535" y="100.1641">n8n</text><!--SRC=[hLNRJjj047ttLupWWKHK5PUIfk6XScw8Lg2KX5QLUDdO4sURzQwrkuPGvO6Fu2Vo7VaJlgIpTW8672XLBRzuRdlEcTcnvLOWj3cBD8jZX72B1PPVShkOmztDBVHx_jdNdvwt1NUtD_aB9zmWe8I4HGZ-1qYKjffncoLOd5e4mJJvxbFU-dfcmcN221A42OTFjOB1dNf2vRc4ehcD8vOAsrNIdZ8Yij77I26S7s-K1_NvRuJTUi4vS5BSk_PgfIvxJN8DbGWBNbzhTVLGi_POhPPA1QRQG20OrsYWaZ1ZKLJ_NPwtgpXamIJIAfLXImcbORERFKKIUTklcoMHdUv1MQJI8Ufbr47sh8qQZ7amaMWCxBulYohloCfBunah6JR_ciGgeOYmMQ_NTfgl1HU1lW3b0U_7fuEmLX3dVAp3ipbHdEQaiWzq1zt8l8CHdGN_UruAeFfNF1PCufFPttanfEmEF8jQoh3NskySb9Lxt9liMHjLL6sl4DLZOSXb11yAjhDyFhH43RjxdZVRRDSwVhS-ExTSSCESi3FFMAQjr-WZ14fA9BdrXQnWpBY0ROYLXH2TxWQhXwv6jzNTRtLdVf887Z3BbLnknfd7Hr3nKpj6QVc8qzhyN0Nt1HMLyge7q3XQpELYhWbGAk7BZy6XXu8sQ4KgcVdzqOW7OtABBTIQy1sIrLYLU2X3Fbh7eJ5OpCLYVedQvAL35QGnmI0clNONL0eyfcNvAeD6twfWuiv7S4Wu4e96In1zOfJR2xLf_TEw5-0VK-L6P-fslwQLJwij934NSpGNaaBImARQVS7J5AanSXOgJJeDcK4gkph1K0C4ZwZTBlPKsHo3hCkSXzzkjkip-YJWFQfFRSyXQfQuFn4b-RzKQZEZMPQwa26J1ewKYYYoFqQq9aDogQvpyRBUNqYMGeJ6oICTgrUbU-WT0LZC3VrTc1F9ig50AhRjrdwcOvwPDwEidTaS1Ldr-mbggJYZbut9wYEZbMW-pUV8vNMcZZd5BVCwqu0MXalAPoGOk_-nXip-aDPUp2snDgkqxxH_baT9n-HnwrTZ-otbrfsrcavtYq8wOtMHYA4RtZy0]--></g></svg>