<svg xmlns="http://www.w3.org/2000/svg" xmlns:xlink="http://www.w3.org/1999/xlink" contentStyleType="text/css" height="1160.0596px" preserveAspectRatio="none" style="width:1402px;height:1160px;background:#FFFFFF;" version="1.1" viewBox="0 0 1402 1160" width="1402.0864px" zoomAndPan="magnify"><title>Architecture 3-Couches &#8212; Syst&#232;me SPARKY</title><defs/><g><text fill="#000000" font-family="Segoe UI" font-size="50.0745" font-weight="bold" lengthAdjust="spacing" textLength="1026.9921" x="172.9421" y="74.8999">Architecture 3-Couches &#8212; Syst&#232;me SPARKY</text><!--cluster          COUCHE 1 ? PR?SENTATION         --><g id="cluster_         COUCHE 1 &#8212; PR&#201;SENTATION         "><path d="M167.9583,126.1073 L955.3319,126.1073 A7.8241,7.8241 0 0 1 960.548,131.3234 L975.1531,194.1284 L975.4098,194.1284 A5.2161,5.2161 0 0 1 980.6259,199.3445 L980.6259,390.0417 A5.2161,5.2161 0 0 1 975.4098,395.2578 L167.9583,395.2578 A5.2161,5.2161 0 0 1 162.7422,390.0417 L162.7422,131.3234 A5.2161,5.2161 0 0 1 167.9583,126.1073 " fill="#D6EAF8" style="stroke:#888888;stroke-width:4.172876304023845;"/><line style="stroke:#888888;stroke-width:4.172876304023845;" x1="162.7422" x2="975.1531" y1="194.1284" y2="194.1284"/><text fill="#2C3E50" font-family="Segoe UI" font-size="41.7288" font-weight="bold" lengthAdjust="spacing" textLength="578.0697" x="274.6967" y="175.3097">COUCHE 1 &#8212; PR&#201;SENTATION</text></g><!--cluster          COUCHE 2 ? APPLICATION         --><g id="cluster_         COUCHE 2 &#8212; APPLICATION         "><path d="M207.6006,501.6661 L958.0745,501.6661 A7.8241,7.8241 0 0 1 963.2906,506.8822 L977.8956,569.6873 L1382.2653,569.6873 A5.2161,5.2161 0 0 1 1387.4814,574.9034 L1387.4814,765.6005 A5.2161,5.2161 0 0 1 1382.2653,770.8166 L207.6006,770.8166 A5.2161,5.2161 0 0 1 202.3845,765.6005 L202.3845,506.8822 A5.2161,5.2161 0 0 1 207.6006,501.6661 " fill="#FCF3CF" style="stroke:#888888;stroke-width:4.172876304023845;"/><line style="stroke:#888888;stroke-width:4.172876304023845;" x1="202.3845" x2="977.8956" y1="569.6873" y2="569.6873"/><text fill="#2C3E50" font-family="Segoe UI" font-size="41.7288" font-weight="bold" lengthAdjust="spacing" textLength="541.1699" x="314.339" y="550.8686">COUCHE 2 &#8212; APPLICATION</text></g><!--cluster          COUCHE 3 ? DONN?ES         --><g id="cluster_         COUCHE 3 &#8212; DONN&#201;ES         "><path d="M17.7347,877.225 L691.5361,877.225 A7.8241,7.8241 0 0 1 696.7522,882.4411 L711.3572,945.2461 L710.4322,945.2461 A5.2161,5.2161 0 0 1 715.6483,950.4622 L715.6483,1141.1594 A5.2161,5.2161 0 0 1 710.4322,1146.3755 L17.7347,1146.3755 A5.2161,5.2161 0 0 1 12.5186,1141.1594 L12.5186,882.4411 A5.2161,5.2161 0 0 1 17.7347,877.225 " fill="#D5F5E3" style="stroke:#888888;stroke-width:4.172876304023845;"/><line style="stroke:#888888;stroke-width:4.172876304023845;" x1="12.5186" x2="711.3572" y1="945.2461" y2="945.2461"/><text fill="#2C3E50" font-family="Segoe UI" font-size="41.7288" font-weight="bold" lengthAdjust="spacing" textLength="464.4974" x="124.4732" y="926.4274">COUCHE 3 &#8212; DONN&#201;ES</text></g><!--entity ANG--><g id="elem_ANG"><rect fill="#FFFFFF" height="141.6333" rx="14.6051" ry="14.6051" style="stroke:#444444;stroke-width:3.1296572280178836;" width="311.0382" x="207.6006" y="219.997"/><text fill="#000000" font-family="Segoe UI" font-size="37.5559" font-weight="bold" lengthAdjust="spacing" textLength="194.4911" x="228.465" y="281.388">Angular 20</text><text fill="#000000" font-family="Segoe UI" font-size="37.5559" font-weight="bold" lengthAdjust="spacing" textLength="269.3094" x="228.465" y="331.3402">SPA TypeScript</text></g><!--entity API--><g id="elem_API"><rect fill="#FFFFFF" height="141.6333" rx="14.6051" ry="14.6051" style="stroke:#444444;stroke-width:3.1296572280178836;" width="253.2557" x="236.8107" y="595.5558"/><text fill="#000000" font-family="Segoe UI" font-size="37.5559" font-weight="bold" lengthAdjust="spacing" textLength="132.2525" x="257.6751" y="656.9468">FastAPI</text><text fill="#000000" font-family="Segoe UI" font-size="37.5559" font-weight="bold" lengthAdjust="spacing" textLength="211.5269" x="257.6751" y="706.8991">Python 3.12</text></g><!--entity MISTRAL--><g id="elem_MISTRAL"><rect fill="#FFFFFF" height="141.6333" rx="14.6051" ry="14.6051" style="stroke:#444444;stroke-width:3.1296572280178836;" width="397.7395" x="954.5455" y="595.5558"/><text fill="#000000" font-family="Segoe UI" font-size="37.5559" font-weight="bold" lengthAdjust="spacing" textLength="172.2473" x="975.4098" y="656.9468">Mistral AI</text><text fill="#000000" font-family="Segoe UI" font-size="37.5559" font-weight="bold" lengthAdjust="spacing" textLength="356.0107" x="975.4098" y="706.8991">Classification + OCR</text></g><!--entity N8N--><g id="elem_N8N"><rect fill="#FFFFFF" height="141.6333" rx="14.6051" ry="14.6051" style="stroke:#444444;stroke-width:3.1296572280178836;" width="317.3831" x="563.3383" y="595.5558"/><text fill="#000000" font-family="Segoe UI" font-size="37.5559" font-weight="bold" lengthAdjust="spacing" textLength="67.0431" x="584.2027" y="656.9468">n8n</text><text fill="#000000" font-family="Segoe UI" font-size="37.5559" font-weight="bold" lengthAdjust="spacing" textLength="275.6543" x="584.2027" y="706.8991">Workflow auto.</text></g><!--entity DB--><g id="elem_DB"><rect fill="#FFFFFF" height="141.6333" rx="14.6051" ry="14.6051" style="stroke:#444444;stroke-width:3.1296572280178836;" width="355.0307" x="185.693" y="971.1147"/><text fill="#000000" font-family="Segoe UI" font-size="37.5559" font-weight="bold" lengthAdjust="spacing" textLength="257.9767" x="206.5574" y="1032.5057">PostgreSQL 16</text><text fill="#000000" font-family="Segoe UI" font-size="37.5559" font-weight="bold" lengthAdjust="spacing" textLength="313.3019" x="206.5574" y="1082.458">Base relationnelle</text></g><!--link ANG to API--><g id="link_ANG_API"><path d="M363.0402,362 C363.0402,428.4947 363.0402,516.0625 363.0402,582.6408 " fill="none" id="ANG-to-API" style="stroke:#444444;stroke-width:4.172876304023845;"/><polygon fill="#444444" points="363.0402,595.1594,371.386,576.3815,363.0402,584.7272,354.6945,576.3815,363.0402,595.1594" style="stroke:#444444;stroke-width:4.172876304023845;"/><text fill="#000000" font-family="Segoe UI" font-size="27.1237" lengthAdjust="spacing" textLength="148.8227" x="365.1267" y="459.9964">REST / JSON</text></g><!--link API to DB--><g id="link_API_DB"><path d="M363.0402,737.5588 C363.0402,804.0536 363.0402,891.6214 363.0402,958.1997 " fill="none" id="API-to-DB" style="stroke:#444444;stroke-width:4.172876304023845;"/><polygon fill="#444444" points="363.0402,970.7183,371.386,951.9403,363.0402,960.2861,354.6945,951.9403,363.0402,970.7183" style="stroke:#444444;stroke-width:4.172876304023845;"/><text fill="#000000" font-family="Segoe UI" font-size="27.1237" lengthAdjust="spacing" textLength="121.3679" x="365.1267" y="835.5553">SQL async</text></g><!--link API to MISTRAL--><g id="link_API_MISTRAL"><path d="M404.8525,595.2011 C439.9255,543.2071 495.3621,477.0462 564.3815,448.462 C629.4993,421.4843 815.0253,425.1147 881.5201,448.462 C964.3726,477.5469 1031.9685,534.6685 1082.6063,586.5165 " fill="none" id="API-to-MISTRAL" style="stroke:#444444;stroke-width:4.172876304023845;"/><polygon fill="#444444" points="1091.3532,595.4724,1084.2035,576.2073,1084.0641,588.0091,1072.2623,587.8698,1091.3532,595.4724" style="stroke:#444444;stroke-width:4.172876304023845;"/></g><!--link API to N8N--><g id="link_API_N8N"><path d="M489.8957,666.4947 C514.3696,666.4947 526.3249,666.4947 550.7988,666.4947 " fill="none" id="API-to-N8N" style="stroke:#444444;stroke-width:4.172876304023845;"/><polygon fill="#444444" points="563.3174,666.4947,544.5395,658.149,552.8852,666.4947,544.5395,674.8405,563.3174,666.4947" style="stroke:#444444;stroke-width:4.172876304023845;"/></g><!--SRC=[lPJFRjD04CRlVefHUg04jIHsKq8EI8vZGw1rJEmA8N7PsXjdoNRNsbqJ0aBgjVS-17sEl4cVXBNppsrIWGHbvOldcvsPxvU95L4KWotYCL4uLhd0O1quF8_7MCBjvJM4CwdcFoymX84zVFVHCEI4i0m9T059Hk3biI5Zf4iqZneDc994ZIiPFJn2ELKUPyf7kaOjn2d7SDQlxKuAoJTTwKL5Z8hvrf9vj5DICpt0EQT9HJr7yIGLF6U9moaNiEULfv9X2y6dI_6eFFV5Q4pY2SDIWdbVsanhLP48pH2nL8_ptG3eSf5WSRV5AhgftJniwUYcO7lrjh45C5mu4GmBZLe70fGaXAN5ou_g19dsZT8T_TlbsT7Vh7Ot6xkw5u5b6TEnt5QZwFa4Rgyl5myiDWQQq850p6yaPWefmXdidrESFzra_gl7MFcimUeuWpFdZQjdADOs6CwlGjUFxAW_yDSfDTZh7RksroxnR7wiMhrkipIdI6W0zVedffSTebc6mrYGJDK0IR3zr-ibsktUrExjBACaNdh_Z7A6_wjvipHl1y59tzcoxZcUvNZRrZqabHtq2z_1J8trvDPXqroO3lfhq_TkdHAf1A9WbnSTYgGaevNrPp1mXcM5qtuO3UsJXwgmDYkkV-1YCg9y2YXN_B2ywBVzt_2sDEyUPsn-exzL-r-mK8_0-e_HMoNwti3tvrTkU6VbMbxBjRQv1rogLE3m_GaqZmiANIInJg4bGuOfnIM9NlSX41xDlpwwvRybLlnn3X8-PGUlodtgmD0D8tWERyE1RnIHbQgDTg30WUICnGj9a7IijBRSexj1lIF6Bm00]--></g></svg>