<svg xmlns="http://www.w3.org/2000/svg" xmlns:xlink="http://www.w3.org/1999/xlink" contentStyleType="text/css" height="731px" preserveAspectRatio="none" style="width:1429px;height:731px;background:#FFFFFF;" version="1.1" viewBox="0 0 1429 731" width="1429px" zoomAndPan="magnify"><title>Diagramme de classes &#8212; Application SPARKY</title><defs/><g><text fill="#000000" font-family="sans-serif" font-size="14" font-weight="bold" lengthAdjust="spacing" textLength="311.6504" x="552.0789" y="24.5332">Diagramme de classes &#8212; Application SPARKY</text><!--class TypeDocument--><g id="elem_TypeDocument"><rect codeLine="24" fill="#FFFFFF" height="117.1797" id="TypeDocument" rx="3" ry="3" style="stroke:#1F2A44;stroke-width:0.5;" width="111.4546" x="387.5" y="59.6094"/><ellipse cx="402.5" cy="75.6094" fill="#EB937F" rx="11" ry="11" style="stroke:#181818;stroke-width:1.0;"/><path d="M401.3594,76.4063 L401.3594,78.9063 L405.6875,78.9063 L405.6875,77.9844 Q405.6875,77.375 405.9219,77.1094 Q406.1719,76.8438 406.5469,76.8438 Q406.9219,76.8438 407.1563,77.1094 Q407.3906,77.375 407.3906,77.9844 L407.3906,80.6094 L399.3906,80.6094 Q398.7656,80.6094 398.5,80.375 Q398.25,80.1406 398.25,79.75 Q398.25,79.375 398.5156,79.1406 Q398.7813,78.9063 399.3906,78.9063 L399.6563,78.9063 L399.6563,72.25 L399.3906,72.25 Q398.7656,72.25 398.5,72.0156 Q398.25,71.7813 398.25,71.3906 Q398.25,71.0156 398.5,70.7813 Q398.7656,70.5469 399.3906,70.5469 L407.0156,70.5469 L407.0156,73.1406 Q407.0156,73.75 406.7813,74.0156 Q406.5625,74.2656 406.1719,74.2656 Q405.7969,74.2656 405.5625,74.0156 Q405.3281,73.75 405.3281,73.1406 L405.3281,72.25 L401.3594,72.25 L401.3594,74.7031 L402.8438,74.7031 Q402.8438,74.0469 402.9688,73.8594 Q403.2344,73.4531 403.7031,73.4531 Q404.0781,73.4531 404.3125,73.7188 Q404.5469,73.9688 404.5469,74.5781 L404.5469,76.5469 Q404.5469,77.0938 404.4219,77.2813 Q404.1563,77.6719 403.7031,77.6719 Q403.2344,77.6719 402.9688,77.2656 Q402.8438,77.0781 402.8438,76.4063 L401.3594,76.4063 Z " fill="#000000"/><text fill="#000000" font-family="sans-serif" font-size="11" font-weight="bold" lengthAdjust="spacing" textLength="79.4546" x="416.5" y="80.1104">TypeDocument</text><line style="stroke:#1F2A44;stroke-width:0.5;" x1="388.5" x2="497.9546" y1="91.6094" y2="91.6094"/><text fill="#000000" font-family="sans-serif" font-size="11" lengthAdjust="spacing" textLength="33.6284" x="393.5" y="107.0283">facture</text><text fill="#000000" font-family="sans-serif" font-size="11" lengthAdjust="spacing" textLength="25.6792" x="393.5" y="120.8643">devis</text><text fill="#000000" font-family="sans-serif" font-size="11" lengthAdjust="spacing" textLength="64.8184" x="393.5" y="134.7002">bon_livraison</text><text fill="#000000" font-family="sans-serif" font-size="11" lengthAdjust="spacing" textLength="78.8853" x="393.5" y="148.5361">bon_commande</text><text fill="#000000" font-family="sans-serif" font-size="11" lengthAdjust="spacing" textLength="23.8423" x="393.5" y="162.3721">avoir</text><line style="stroke:#1F2A44;stroke-width:0.5;" x1="388.5" x2="497.9546" y1="168.7891" y2="168.7891"/></g><!--class StatutDocument--><g id="elem_StatutDocument"><rect codeLine="32" fill="#FFFFFF" height="103.3438" id="StatutDocument" rx="3" ry="3" style="stroke:#1F2A44;stroke-width:0.5;" width="116.9438" x="533.5" y="66.6094"/><ellipse cx="548.5" cy="82.6094" fill="#EB937F" rx="11" ry="11" style="stroke:#181818;stroke-width:1.0;"/><path d="M547.3594,83.4063 L547.3594,85.9063 L551.6875,85.9063 L551.6875,84.9844 Q551.6875,84.375 551.9219,84.1094 Q552.1719,83.8438 552.5469,83.8438 Q552.9219,83.8438 553.1563,84.1094 Q553.3906,84.375 553.3906,84.9844 L553.3906,87.6094 L545.3906,87.6094 Q544.7656,87.6094 544.5,87.375 Q544.25,87.1406 544.25,86.75 Q544.25,86.375 544.5156,86.1406 Q544.7813,85.9063 545.3906,85.9063 L545.6563,85.9063 L545.6563,79.25 L545.3906,79.25 Q544.7656,79.25 544.5,79.0156 Q544.25,78.7813 544.25,78.3906 Q544.25,78.0156 544.5,77.7813 Q544.7656,77.5469 545.3906,77.5469 L553.0156,77.5469 L553.0156,80.1406 Q553.0156,80.75 552.7813,81.0156 Q552.5625,81.2656 552.1719,81.2656 Q551.7969,81.2656 551.5625,81.0156 Q551.3281,80.75 551.3281,80.1406 L551.3281,79.25 L547.3594,79.25 L547.3594,81.7031 L548.8438,81.7031 Q548.8438,81.0469 548.9688,80.8594 Q549.2344,80.4531 549.7031,80.4531 Q550.0781,80.4531 550.3125,80.7188 Q550.5469,80.9688 550.5469,81.5781 L550.5469,83.5469 Q550.5469,84.0938 550.4219,84.2813 Q550.1563,84.6719 549.7031,84.6719 Q549.2344,84.6719 548.9688,84.2656 Q548.8438,84.0781 548.8438,83.4063 L547.3594,83.4063 Z " fill="#000000"/><text fill="#000000" font-family="sans-serif" font-size="11" font-weight="bold" lengthAdjust="spacing" textLength="84.9438" x="562.5" y="87.1104">StatutDocument</text><line style="stroke:#1F2A44;stroke-width:0.5;" x1="534.5" x2="649.4438" y1="98.6094" y2="98.6094"/><text fill="#000000" font-family="sans-serif" font-size="11" lengthAdjust="spacing" textLength="51.9922" x="539.5" y="114.0283">en_attente</text><text fill="#000000" font-family="sans-serif" font-size="11" lengthAdjust="spacing" textLength="39.123" x="539.5" y="127.8643">classifi&#233;</text><text fill="#000000" font-family="sans-serif" font-size="11" lengthAdjust="spacing" textLength="29.9546" x="539.5" y="141.7002">extrait</text><text fill="#000000" font-family="sans-serif" font-size="11" lengthAdjust="spacing" textLength="29.3423" x="539.5" y="155.5361">erreur</text><line style="stroke:#1F2A44;stroke-width:0.5;" x1="534.5" x2="649.4438" y1="161.9531" y2="161.9531"/></g><!--class TypeMouvement--><g id="elem_TypeMouvement"><rect codeLine="39" fill="#FFFFFF" height="89.5078" id="TypeMouvement" rx="3" ry="3" style="stroke:#1F2A44;stroke-width:0.5;" width="118.7915" x="859.5" y="326.1094"/><ellipse cx="874.5" cy="342.1094" fill="#EB937F" rx="11" ry="11" style="stroke:#181818;stroke-width:1.0;"/><path d="M873.3594,342.9063 L873.3594,345.4063 L877.6875,345.4063 L877.6875,344.4844 Q877.6875,343.875 877.9219,343.6094 Q878.1719,343.3438 878.5469,343.3438 Q878.9219,343.3438 879.1563,343.6094 Q879.3906,343.875 879.3906,344.4844 L879.3906,347.1094 L871.3906,347.1094 Q870.7656,347.1094 870.5,346.875 Q870.25,346.6406 870.25,346.25 Q870.25,345.875 870.5156,345.6406 Q870.7813,345.4063 871.3906,345.4063 L871.6563,345.4063 L871.6563,338.75 L871.3906,338.75 Q870.7656,338.75 870.5,338.5156 Q870.25,338.2813 870.25,337.8906 Q870.25,337.5156 870.5,337.2813 Q870.7656,337.0469 871.3906,337.0469 L879.0156,337.0469 L879.0156,339.6406 Q879.0156,340.25 878.7813,340.5156 Q878.5625,340.7656 878.1719,340.7656 Q877.7969,340.7656 877.5625,340.5156 Q877.3281,340.25 877.3281,339.6406 L877.3281,338.75 L873.3594,338.75 L873.3594,341.2031 L874.8438,341.2031 Q874.8438,340.5469 874.9688,340.3594 Q875.2344,339.9531 875.7031,339.9531 Q876.0781,339.9531 876.3125,340.2188 Q876.5469,340.4688 876.5469,341.0781 L876.5469,343.0469 Q876.5469,343.5938 876.4219,343.7813 Q876.1563,344.1719 875.7031,344.1719 Q875.2344,344.1719 874.9688,343.7656 Q874.8438,343.5781 874.8438,342.9063 L873.3594,342.9063 Z " fill="#000000"/><text fill="#000000" font-family="sans-serif" font-size="11" font-weight="bold" lengthAdjust="spacing" textLength="86.7915" x="888.5" y="346.6104">TypeMouvement</text><line style="stroke:#1F2A44;stroke-width:0.5;" x1="860.5" x2="977.2915" y1="358.1094" y2="358.1094"/><text fill="#000000" font-family="sans-serif" font-size="11" lengthAdjust="spacing" textLength="31.1899" x="865.5" y="373.5283">entr&#233;e</text><text fill="#000000" font-family="sans-serif" font-size="11" lengthAdjust="spacing" textLength="26.8984" x="865.5" y="387.3643">sortie</text><text fill="#000000" font-family="sans-serif" font-size="11" lengthAdjust="spacing" textLength="48.2969" x="865.5" y="401.2002">correction</text><line style="stroke:#1F2A44;stroke-width:0.5;" x1="860.5" x2="977.2915" y1="407.6172" y2="407.6172"/></g><!--class Utilisateur--><g id="elem_Utilisateur"><rect codeLine="46" fill="#FFFFFF" height="144.8516" id="Utilisateur" rx="3" ry="3" style="stroke:#1F2A44;stroke-width:0.5;" width="116.5376" x="685.5" y="45.6094"/><ellipse cx="714.3357" cy="61.6094" fill="#ADD1B2" rx="11" ry="11" style="stroke:#181818;stroke-width:1.0;"/><path d="M717.1014,57.4844 Q717.2576,57.2656 717.4451,57.1563 Q717.6326,57.0469 717.8514,57.0469 Q718.2264,57.0469 718.4607,57.3125 Q718.6951,57.5625 718.6951,58.1719 L718.6951,59.625 Q718.6951,60.2344 718.4607,60.5 Q718.2264,60.7656 717.8514,60.7656 Q717.5076,60.7656 717.3045,60.5625 Q717.1014,60.375 716.992,59.8594 Q716.9451,59.5 716.7576,59.3125 Q716.4295,58.9375 715.8201,58.7188 Q715.2107,58.5 714.5857,58.5 Q713.8201,58.5 713.1795,58.8281 Q712.5545,59.1563 712.0545,59.9063 Q711.5701,60.6563 711.5701,61.6875 L711.5701,62.7813 Q711.5701,64.0156 712.4607,64.8438 Q713.3514,65.6563 714.9451,65.6563 Q715.8826,65.6563 716.5389,65.4063 Q716.9295,65.25 717.3514,64.8125 Q717.617,64.5469 717.7576,64.4688 Q717.9139,64.3906 718.117,64.3906 Q718.4451,64.3906 718.6951,64.6563 Q718.9607,64.9063 718.9607,65.25 Q718.9607,65.5938 718.617,66 Q718.117,66.5781 717.3201,66.9063 Q716.242,67.3594 714.9451,67.3594 Q713.4295,67.3594 712.2264,66.7344 Q711.242,66.2344 710.5545,65.1719 Q709.867,64.0938 709.867,62.8125 L709.867,61.6563 Q709.867,60.3281 710.4764,59.1875 Q711.1014,58.0313 712.1951,57.4219 Q713.2889,56.7969 714.5232,56.7969 Q715.2576,56.7969 715.8982,56.9688 Q716.5545,57.125 717.1014,57.4844 Z " fill="#000000"/><text fill="#000000" font-family="sans-serif" font-size="11" font-weight="bold" lengthAdjust="spacing" textLength="53.7915" x="731.4104" y="66.1104">Utilisateur</text><line style="stroke:#1F2A44;stroke-width:0.5;" x1="686.5" x2="801.0376" y1="77.6094" y2="77.6094"/><text fill="#000000" font-family="sans-serif" font-size="11" lengthAdjust="spacing" textLength="48.2808" x="691.5" y="93.0283">-id : UUID</text><text fill="#000000" font-family="sans-serif" font-size="11" lengthAdjust="spacing" textLength="67.853" x="691.5" y="106.8643">-email : String</text><text fill="#000000" font-family="sans-serif" font-size="11" lengthAdjust="spacing" textLength="104.5376" x="691.5" y="120.7002">-motDePasse : String</text><text fill="#000000" font-family="sans-serif" font-size="11" lengthAdjust="spacing" textLength="62.9653" x="691.5" y="134.5361">-nom : String</text><text fill="#000000" font-family="sans-serif" font-size="11" lengthAdjust="spacing" textLength="59.9092" x="691.5" y="148.3721">-r&#244;le : String</text><line style="stroke:#1F2A44;stroke-width:1.0;" x1="686.5" x2="801.0376" y1="154.7891" y2="154.7891"/><text fill="#000000" font-family="sans-serif" font-size="11" lengthAdjust="spacing" textLength="76.1191" x="691.5" y="170.208">+seConnecter()</text><text fill="#000000" font-family="sans-serif" font-size="11" lengthAdjust="spacing" textLength="87.7368" x="691.5" y="184.0439">+seD&#233;connecter()</text></g><!--class Fournisseur--><g id="elem_Fournisseur"><rect codeLine="58" fill="#FFFFFF" height="131.0156" id="Fournisseur" rx="3" ry="3" style="stroke:#1F2A44;stroke-width:0.5;" width="101.8906" x="998" y="52.6094"/><ellipse cx="1015.8457" cy="68.6094" fill="#ADD1B2" rx="11" ry="11" style="stroke:#181818;stroke-width:1.0;"/><path d="M1018.6113,64.4844 Q1018.7676,64.2656 1018.9551,64.1563 Q1019.1426,64.0469 1019.3613,64.0469 Q1019.7363,64.0469 1019.9707,64.3125 Q1020.2051,64.5625 1020.2051,65.1719 L1020.2051,66.625 Q1020.2051,67.2344 1019.9707,67.5 Q1019.7363,67.7656 1019.3613,67.7656 Q1019.0176,67.7656 1018.8144,67.5625 Q1018.6113,67.375 1018.5019,66.8594 Q1018.4551,66.5 1018.2676,66.3125 Q1017.9394,65.9375 1017.3301,65.7188 Q1016.7207,65.5 1016.0957,65.5 Q1015.3301,65.5 1014.6894,65.8281 Q1014.0644,66.1563 1013.5644,66.9063 Q1013.0801,67.6563 1013.0801,68.6875 L1013.0801,69.7813 Q1013.0801,71.0156 1013.9707,71.8438 Q1014.8613,72.6563 1016.4551,72.6563 Q1017.3926,72.6563 1018.0488,72.4063 Q1018.4394,72.25 1018.8613,71.8125 Q1019.1269,71.5469 1019.2676,71.4688 Q1019.4238,71.3906 1019.6269,71.3906 Q1019.9551,71.3906 1020.2051,71.6563 Q1020.4707,71.9063 1020.4707,72.25 Q1020.4707,72.5938 1020.1269,73 Q1019.6269,73.5781 1018.8301,73.9063 Q1017.7519,74.3594 1016.4551,74.3594 Q1014.9394,74.3594 1013.7363,73.7344 Q1012.7519,73.2344 1012.0644,72.1719 Q1011.3769,71.0938 1011.3769,69.8125 L1011.3769,68.6563 Q1011.3769,67.3281 1011.9863,66.1875 Q1012.6113,65.0313 1013.7051,64.4219 Q1014.7988,63.7969 1016.0332,63.7969 Q1016.7676,63.7969 1017.4082,63.9688 Q1018.0644,64.125 1018.6113,64.4844 Z " fill="#000000"/><text fill="#000000" font-family="sans-serif" font-size="11" font-weight="bold" lengthAdjust="spacing" textLength="63.5669" x="1030.4781" y="73.1104">Fournisseur</text><line style="stroke:#1F2A44;stroke-width:0.5;" x1="999" x2="1098.8906" y1="84.6094" y2="84.6094"/><text fill="#000000" font-family="sans-serif" font-size="11" lengthAdjust="spacing" textLength="48.2808" x="1004" y="100.0283">-id : UUID</text><text fill="#000000" font-family="sans-serif" font-size="11" lengthAdjust="spacing" textLength="62.9653" x="1004" y="113.8643">-nom : String</text><text fill="#000000" font-family="sans-serif" font-size="11" lengthAdjust="spacing" textLength="62.3477" x="1004" y="127.7002">-siret : String</text><text fill="#000000" font-family="sans-serif" font-size="11" lengthAdjust="spacing" textLength="80.7007" x="1004" y="141.5361">-adresse : String</text><text fill="#000000" font-family="sans-serif" font-size="11" lengthAdjust="spacing" textLength="67.853" x="1004" y="155.3721">-email : String</text><text fill="#000000" font-family="sans-serif" font-size="11" lengthAdjust="spacing" textLength="89.8906" x="1004" y="169.208">-t&#233;l&#233;phone : String</text><line style="stroke:#1F2A44;stroke-width:0.5;" x1="999" x2="1098.8906" y1="175.625" y2="175.625"/></g><!--class Document--><g id="elem_Document"><rect codeLine="68" fill="#FFFFFF" height="172.5234" id="Document" rx="3" ry="3" style="stroke:#1F2A44;stroke-width:0.5;" width="170.3452" x="507" y="284.6094"/><ellipse cx="561.0322" cy="300.6094" fill="#A9DCDF" rx="11" ry="11" style="stroke:#181818;stroke-width:1.0;"/><path d="M563.2197,302.375 L559.0791,302.375 L558.6572,303.4063 L559.0791,303.4063 Q559.6885,303.4063 559.9541,303.6406 Q560.2197,303.875 560.2197,304.2656 Q560.2197,304.6406 559.9541,304.875 Q559.6885,305.1094 559.0791,305.1094 L556.7822,305.1094 Q556.1729,305.1094 555.9229,304.875 Q555.6572,304.6406 555.6572,304.25 Q555.6572,303.875 555.9385,303.6406 Q556.2041,303.3906 556.8291,303.4063 L559.501,296.75 L558.3916,296.75 Q557.7822,296.75 557.5166,296.5156 Q557.251,296.2813 557.251,295.8906 Q557.251,295.5156 557.5166,295.2813 Q557.7822,295.0469 558.3916,295.0469 L562.0635,295.0469 L565.4541,303.4063 Q566.0479,303.4063 566.2354,303.5469 Q566.626,303.8125 566.626,304.2656 Q566.626,304.6406 566.3604,304.875 Q566.1104,305.1094 565.501,305.1094 L563.2041,305.1094 Q562.5947,305.1094 562.3291,304.875 Q562.0635,304.6406 562.0635,304.25 Q562.0635,303.875 562.3291,303.6406 Q562.5947,303.4063 563.2041,303.4063 L563.626,303.4063 L563.2197,302.375 Z M562.501,300.6719 L561.1416,297.2969 L559.7666,300.6719 L562.501,300.6719 Z " fill="#000000"/><text fill="#000000" font-family="sans-serif" font-size="11" font-style="italic" font-weight="bold" lengthAdjust="spacing" textLength="53.7808" x="581.5322" y="305.1104">Document</text><line style="stroke:#1F2A44;stroke-width:0.5;" x1="508" x2="676.3452" y1="316.6094" y2="316.6094"/><text fill="#000000" font-family="sans-serif" font-size="11" lengthAdjust="spacing" textLength="48.2808" x="513" y="332.0283">-id : UUID</text><text fill="#000000" font-family="sans-serif" font-size="11" lengthAdjust="spacing" textLength="95.9707" x="513" y="345.8643">-nomFichier : String</text><text fill="#000000" font-family="sans-serif" font-size="11" lengthAdjust="spacing" textLength="99.6553" x="513" y="359.7002">-urlStockage : String</text><text fill="#000000" font-family="sans-serif" font-size="11" lengthAdjust="spacing" textLength="158.3452" x="513" y="373.5361">-typeDocument : TypeDocument</text><text fill="#000000" font-family="sans-serif" font-size="11" lengthAdjust="spacing" textLength="118.6099" x="513" y="387.3721">-statut : StatutDocument</text><text fill="#000000" font-family="sans-serif" font-size="11" lengthAdjust="spacing" textLength="128.9922" x="513" y="401.208">-scoreConfiance : D&#233;cimal</text><text fill="#000000" font-family="sans-serif" font-size="11" lengthAdjust="spacing" textLength="99.0537" x="513" y="415.0439">-dateCr&#233;ation : Date</text><line style="stroke:#1F2A44;stroke-width:1.0;" x1="508" x2="676.3452" y1="421.4609" y2="421.4609"/><text fill="#000000" font-family="sans-serif" font-size="11" lengthAdjust="spacing" textLength="56.5361" x="513" y="436.8799">+classifier()</text><text fill="#000000" font-family="sans-serif" font-size="11" lengthAdjust="spacing" textLength="50.4292" x="513" y="450.7158">+extraire()</text></g><!--class Facture--><g id="elem_Facture"><rect codeLine="81" fill="#FFFFFF" height="131.0156" id="Facture" rx="3" ry="3" style="stroke:#1F2A44;stroke-width:0.5;" width="128.1553" x="484" y="572.6094"/><ellipse cx="524.389" cy="588.6094" fill="#ADD1B2" rx="11" ry="11" style="stroke:#181818;stroke-width:1.0;"/><path d="M527.1546,584.4844 Q527.3108,584.2656 527.4983,584.1563 Q527.6858,584.0469 527.9046,584.0469 Q528.2796,584.0469 528.514,584.3125 Q528.7483,584.5625 528.7483,585.1719 L528.7483,586.625 Q528.7483,587.2344 528.514,587.5 Q528.2796,587.7656 527.9046,587.7656 Q527.5608,587.7656 527.3577,587.5625 Q527.1546,587.375 527.0452,586.8594 Q526.9983,586.5 526.8108,586.3125 Q526.4827,585.9375 525.8733,585.7188 Q525.264,585.5 524.639,585.5 Q523.8733,585.5 523.2327,585.8281 Q522.6077,586.1563 522.1077,586.9063 Q521.6233,587.6563 521.6233,588.6875 L521.6233,589.7813 Q521.6233,591.0156 522.514,591.8438 Q523.4046,592.6563 524.9983,592.6563 Q525.9358,592.6563 526.5921,592.4063 Q526.9827,592.25 527.4046,591.8125 Q527.6702,591.5469 527.8108,591.4688 Q527.9671,591.3906 528.1702,591.3906 Q528.4983,591.3906 528.7483,591.6563 Q529.014,591.9063 529.014,592.25 Q529.014,592.5938 528.6702,593 Q528.1702,593.5781 527.3733,593.9063 Q526.2952,594.3594 524.9983,594.3594 Q523.4827,594.3594 522.2796,593.7344 Q521.2952,593.2344 520.6077,592.1719 Q519.9202,591.0938 519.9202,589.8125 L519.9202,588.6563 Q519.9202,587.3281 520.5296,586.1875 Q521.1546,585.0313 522.2483,584.4219 Q523.3421,583.7969 524.5765,583.7969 Q525.3108,583.7969 525.9515,583.9688 Q526.6077,584.125 527.1546,584.4844 Z " fill="#000000"/><text fill="#000000" font-family="sans-serif" font-size="11" font-weight="bold" lengthAdjust="spacing" textLength="39.7354" x="544.031" y="593.1104">Facture</text><line style="stroke:#1F2A44;stroke-width:0.5;" x1="485" x2="611.1553" y1="604.6094" y2="604.6094"/><text fill="#000000" font-family="sans-serif" font-size="11" lengthAdjust="spacing" textLength="116.1553" x="490" y="620.0283">-num&#233;roFacture : String</text><text fill="#000000" font-family="sans-serif" font-size="11" lengthAdjust="spacing" textLength="94.7676" x="490" y="633.8643">-dateFacture : Date</text><text fill="#000000" font-family="sans-serif" font-size="11" lengthAdjust="spacing" textLength="106.4014" x="490" y="647.7002">-date&#201;ch&#233;ance : Date</text><text fill="#000000" font-family="sans-serif" font-size="11" lengthAdjust="spacing" textLength="106.9707" x="490" y="661.5361">-montantHT : D&#233;cimal</text><text fill="#000000" font-family="sans-serif" font-size="11" lengthAdjust="spacing" textLength="113.7007" x="490" y="675.3721">-montantTVA : D&#233;cimal</text><text fill="#000000" font-family="sans-serif" font-size="11" lengthAdjust="spacing" textLength="113.6899" x="490" y="689.208">-montantTTC : D&#233;cimal</text><line style="stroke:#1F2A44;stroke-width:0.5;" x1="485" x2="611.1553" y1="695.625" y2="695.625"/></g><!--class Devis--><g id="elem_Devis"><rect codeLine="90" fill="#FFFFFF" height="117.1797" id="Devis" rx="3" ry="3" style="stroke:#1F2A44;stroke-width:0.5;" width="125.6899" x="647" y="579.6094"/><ellipse cx="690.9516" cy="595.6094" fill="#ADD1B2" rx="11" ry="11" style="stroke:#181818;stroke-width:1.0;"/><path d="M693.7172,591.4844 Q693.8735,591.2656 694.061,591.1563 Q694.2485,591.0469 694.4672,591.0469 Q694.8422,591.0469 695.0766,591.3125 Q695.311,591.5625 695.311,592.1719 L695.311,593.625 Q695.311,594.2344 695.0766,594.5 Q694.8422,594.7656 694.4672,594.7656 Q694.1235,594.7656 693.9204,594.5625 Q693.7172,594.375 693.6079,593.8594 Q693.561,593.5 693.3735,593.3125 Q693.0454,592.9375 692.436,592.7188 Q691.8266,592.5 691.2016,592.5 Q690.436,592.5 689.7954,592.8281 Q689.1704,593.1563 688.6704,593.9063 Q688.186,594.6563 688.186,595.6875 L688.186,596.7813 Q688.186,598.0156 689.0766,598.8438 Q689.9672,599.6563 691.561,599.6563 Q692.4985,599.6563 693.1547,599.4063 Q693.5454,599.25 693.9672,598.8125 Q694.2329,598.5469 694.3735,598.4688 Q694.5297,598.3906 694.7329,598.3906 Q695.061,598.3906 695.311,598.6563 Q695.5766,598.9063 695.5766,599.25 Q695.5766,599.5938 695.2329,600 Q694.7329,600.5781 693.936,600.9063 Q692.8579,601.3594 691.561,601.3594 Q690.0454,601.3594 688.8422,600.7344 Q687.8579,600.2344 687.1704,599.1719 Q686.4829,598.0938 686.4829,596.8125 L686.4829,595.6563 Q686.4829,594.3281 687.0922,593.1875 Q687.7172,592.0313 688.811,591.4219 Q689.9047,590.7969 691.1391,590.7969 Q691.8735,590.7969 692.5141,590.9688 Q693.1704,591.125 693.7172,591.4844 Z " fill="#000000"/><text fill="#000000" font-family="sans-serif" font-size="11" font-weight="bold" lengthAdjust="spacing" textLength="29.353" x="711.3853" y="600.1104">Devis</text><line style="stroke:#1F2A44;stroke-width:0.5;" x1="648" x2="771.6899" y1="611.6094" y2="611.6094"/><text fill="#000000" font-family="sans-serif" font-size="11" lengthAdjust="spacing" textLength="106.3691" x="653" y="627.0283">-num&#233;roDevis : String</text><text fill="#000000" font-family="sans-serif" font-size="11" lengthAdjust="spacing" textLength="84.9814" x="653" y="640.8643">-dateDevis : Date</text><text fill="#000000" font-family="sans-serif" font-size="11" lengthAdjust="spacing" textLength="93.5537" x="653" y="654.7002">-dateValidit&#233; : Date</text><text fill="#000000" font-family="sans-serif" font-size="11" lengthAdjust="spacing" textLength="106.9707" x="653" y="668.5361">-montantHT : D&#233;cimal</text><text fill="#000000" font-family="sans-serif" font-size="11" lengthAdjust="spacing" textLength="113.6899" x="653" y="682.3721">-montantTTC : D&#233;cimal</text><line style="stroke:#1F2A44;stroke-width:0.5;" x1="648" x2="771.6899" y1="688.7891" y2="688.7891"/></g><!--class BonLivraison--><g id="elem_BonLivraison"><rect codeLine="98" fill="#FFFFFF" height="89.5078" id="BonLivraison" rx="3" ry="3" style="stroke:#1F2A44;stroke-width:0.5;" width="113.4976" x="808.5" y="593.1094"/><ellipse cx="828.5451" cy="609.1094" fill="#ADD1B2" rx="11" ry="11" style="stroke:#181818;stroke-width:1.0;"/><path d="M831.3108,604.9844 Q831.467,604.7656 831.6545,604.6563 Q831.842,604.5469 832.0608,604.5469 Q832.4358,604.5469 832.6701,604.8125 Q832.9045,605.0625 832.9045,605.6719 L832.9045,607.125 Q832.9045,607.7344 832.6701,608 Q832.4358,608.2656 832.0608,608.2656 Q831.717,608.2656 831.5139,608.0625 Q831.3108,607.875 831.2014,607.3594 Q831.1545,607 830.967,606.8125 Q830.6389,606.4375 830.0295,606.2188 Q829.4201,606 828.7951,606 Q828.0295,606 827.3889,606.3281 Q826.7639,606.6563 826.2639,607.4063 Q825.7795,608.1563 825.7795,609.1875 L825.7795,610.2813 Q825.7795,611.5156 826.6701,612.3438 Q827.5608,613.1563 829.1545,613.1563 Q830.092,613.1563 830.7483,612.9063 Q831.1389,612.75 831.5608,612.3125 Q831.8264,612.0469 831.967,611.9688 Q832.1233,611.8906 832.3264,611.8906 Q832.6545,611.8906 832.9045,612.1563 Q833.1701,612.4063 833.1701,612.75 Q833.1701,613.0938 832.8264,613.5 Q832.3264,614.0781 831.5295,614.4063 Q830.4514,614.8594 829.1545,614.8594 Q827.6389,614.8594 826.4358,614.2344 Q825.4514,613.7344 824.7639,612.6719 Q824.0764,611.5938 824.0764,610.3125 L824.0764,609.1563 Q824.0764,607.8281 824.6858,606.6875 Q825.3108,605.5313 826.4045,604.9219 Q827.4983,604.2969 828.7326,604.2969 Q829.467,604.2969 830.1076,604.4688 Q830.7639,604.625 831.3108,604.9844 Z " fill="#000000"/><text fill="#000000" font-family="sans-serif" font-size="11" font-weight="bold" lengthAdjust="spacing" textLength="70.2861" x="843.6663" y="613.6104">BonLivraison</text><line style="stroke:#1F2A44;stroke-width:0.5;" x1="809.5" x2="920.9976" y1="625.1094" y2="625.1094"/><text fill="#000000" font-family="sans-serif" font-size="11" lengthAdjust="spacing" textLength="92.3184" x="814.5" y="640.5283">-num&#233;roBL : String</text><text fill="#000000" font-family="sans-serif" font-size="11" lengthAdjust="spacing" textLength="101.4976" x="814.5" y="654.3643">-dateLivraison : Date</text><text fill="#000000" font-family="sans-serif" font-size="11" lengthAdjust="spacing" textLength="100.8745" x="814.5" y="668.2002">-transporteur : String</text><line style="stroke:#1F2A44;stroke-width:0.5;" x1="809.5" x2="920.9976" y1="674.6172" y2="674.6172"/></g><!--class BonCommande--><g id="elem_BonCommande"><rect codeLine="104" fill="#FFFFFF" height="89.5078" id="BonCommande" rx="3" ry="3" style="stroke:#1F2A44;stroke-width:0.5;" width="126.3345" x="7" y="593.1094"/><ellipse cx="27.8742" cy="609.1094" fill="#ADD1B2" rx="11" ry="11" style="stroke:#181818;stroke-width:1.0;"/><path d="M30.6398,604.9844 Q30.796,604.7656 30.9835,604.6563 Q31.171,604.5469 31.3898,604.5469 Q31.7648,604.5469 31.9992,604.8125 Q32.2335,605.0625 32.2335,605.6719 L32.2335,607.125 Q32.2335,607.7344 31.9992,608 Q31.7648,608.2656 31.3898,608.2656 Q31.046,608.2656 30.8429,608.0625 Q30.6398,607.875 30.5304,607.3594 Q30.4835,607 30.296,606.8125 Q29.9679,606.4375 29.3585,606.2188 Q28.7492,606 28.1242,606 Q27.3585,606 26.7179,606.3281 Q26.0929,606.6563 25.5929,607.4063 Q25.1085,608.1563 25.1085,609.1875 L25.1085,610.2813 Q25.1085,611.5156 25.9992,612.3438 Q26.8898,613.1563 28.4835,613.1563 Q29.421,613.1563 30.0773,612.9063 Q30.4679,612.75 30.8898,612.3125 Q31.1554,612.0469 31.296,611.9688 Q31.4523,611.8906 31.6554,611.8906 Q31.9835,611.8906 32.2335,612.1563 Q32.4992,612.4063 32.4992,612.75 Q32.4992,613.0938 32.1554,613.5 Q31.6554,614.0781 30.8585,614.4063 Q29.7804,614.8594 28.4835,614.8594 Q26.9679,614.8594 25.7648,614.2344 Q24.7804,613.7344 24.0929,612.6719 Q23.4054,611.5938 23.4054,610.3125 L23.4054,609.1563 Q23.4054,607.8281 24.0148,606.6875 Q24.6398,605.5313 25.7335,604.9219 Q26.8273,604.2969 28.0617,604.2969 Q28.796,604.2969 29.4367,604.4688 Q30.0929,604.625 30.6398,604.9844 Z " fill="#000000"/><text fill="#000000" font-family="sans-serif" font-size="11" font-weight="bold" lengthAdjust="spacing" textLength="81.2808" x="43.1795" y="613.6104">BonCommande</text><line style="stroke:#1F2A44;stroke-width:0.5;" x1="8" x2="132.3345" y1="625.1094" y2="625.1094"/><text fill="#000000" font-family="sans-serif" font-size="11" lengthAdjust="spacing" textLength="94.1445" x="13" y="640.5283">-num&#233;roBC : String</text><text fill="#000000" font-family="sans-serif" font-size="11" lengthAdjust="spacing" textLength="114.3345" x="13" y="654.3643">-dateCommande : Date</text><text fill="#000000" font-family="sans-serif" font-size="11" lengthAdjust="spacing" textLength="113.6899" x="13" y="668.2002">-montantTTC : D&#233;cimal</text><line style="stroke:#1F2A44;stroke-width:0.5;" x1="8" x2="132.3345" y1="674.6172" y2="674.6172"/></g><!--class Avoir--><g id="elem_Avoir"><rect codeLine="110" fill="#FFFFFF" height="103.3438" id="Avoir" rx="3" ry="3" style="stroke:#1F2A44;stroke-width:0.5;" width="125.6899" x="168" y="586.6094"/><ellipse cx="212.5361" cy="602.6094" fill="#ADD1B2" rx="11" ry="11" style="stroke:#181818;stroke-width:1.0;"/><path d="M215.3018,598.4844 Q215.458,598.2656 215.6455,598.1563 Q215.833,598.0469 216.0518,598.0469 Q216.4268,598.0469 216.6611,598.3125 Q216.8955,598.5625 216.8955,599.1719 L216.8955,600.625 Q216.8955,601.2344 216.6611,601.5 Q216.4268,601.7656 216.0518,601.7656 Q215.708,601.7656 215.5049,601.5625 Q215.3018,601.375 215.1924,600.8594 Q215.1455,600.5 214.958,600.3125 Q214.6299,599.9375 214.0205,599.7188 Q213.4111,599.5 212.7861,599.5 Q212.0205,599.5 211.3799,599.8281 Q210.7549,600.1563 210.2549,600.9063 Q209.7705,601.6563 209.7705,602.6875 L209.7705,603.7813 Q209.7705,605.0156 210.6611,605.8438 Q211.5518,606.6563 213.1455,606.6563 Q214.083,606.6563 214.7393,606.4063 Q215.1299,606.25 215.5518,605.8125 Q215.8174,605.5469 215.958,605.4688 Q216.1143,605.3906 216.3174,605.3906 Q216.6455,605.3906 216.8955,605.6563 Q217.1611,605.9063 217.1611,606.25 Q217.1611,606.5938 216.8174,607 Q216.3174,607.5781 215.5205,607.9063 Q214.4424,608.3594 213.1455,608.3594 Q211.6299,608.3594 210.4268,607.7344 Q209.4424,607.2344 208.7549,606.1719 Q208.0674,605.0938 208.0674,603.8125 L208.0674,602.6563 Q208.0674,601.3281 208.6768,600.1875 Q209.3018,599.0313 210.3955,598.4219 Q211.4893,597.7969 212.7236,597.7969 Q213.458,597.7969 214.0986,597.9688 Q214.7549,598.125 215.3018,598.4844 Z " fill="#000000"/><text fill="#000000" font-family="sans-serif" font-size="11" font-weight="bold" lengthAdjust="spacing" textLength="28.1177" x="233.0361" y="607.1104">Avoir</text><line style="stroke:#1F2A44;stroke-width:0.5;" x1="169" x2="292.6899" y1="618.6094" y2="618.6094"/><text fill="#000000" font-family="sans-serif" font-size="11" lengthAdjust="spacing" textLength="103.9253" x="174" y="634.0283">-num&#233;roAvoir : String</text><text fill="#000000" font-family="sans-serif" font-size="11" lengthAdjust="spacing" textLength="82.5376" x="174" y="647.8643">-dateAvoir : Date</text><text fill="#000000" font-family="sans-serif" font-size="11" lengthAdjust="spacing" textLength="113.6899" x="174" y="661.7002">-montantTTC : D&#233;cimal</text><text fill="#000000" font-family="sans-serif" font-size="11" lengthAdjust="spacing" textLength="65.4038" x="174" y="675.5361">-motif : String</text><line style="stroke:#1F2A44;stroke-width:0.5;" x1="169" x2="292.6899" y1="681.9531" y2="681.9531"/></g><!--class LigneDocument--><g id="elem_LigneDocument"><rect codeLine="118" fill="#FFFFFF" height="172.5234" id="LigneDocument" rx="3" ry="3" style="stroke:#1F2A44;stroke-width:0.5;" width="120.1899" x="329" y="551.6094"/><ellipse cx="346.2849" cy="567.6094" fill="#ADD1B2" rx="11" ry="11" style="stroke:#181818;stroke-width:1.0;"/><path d="M349.0506,563.4844 Q349.2068,563.2656 349.3943,563.1563 Q349.5818,563.0469 349.8006,563.0469 Q350.1756,563.0469 350.4099,563.3125 Q350.6443,563.5625 350.6443,564.1719 L350.6443,565.625 Q350.6443,566.2344 350.4099,566.5 Q350.1756,566.7656 349.8006,566.7656 Q349.4568,566.7656 349.2537,566.5625 Q349.0506,566.375 348.9412,565.8594 Q348.8943,565.5 348.7068,565.3125 Q348.3787,564.9375 347.7693,564.7188 Q347.1599,564.5 346.5349,564.5 Q345.7693,564.5 345.1287,564.8281 Q344.5037,565.1563 344.0037,565.9063 Q343.5193,566.6563 343.5193,567.6875 L343.5193,568.7813 Q343.5193,570.0156 344.4099,570.8438 Q345.3006,571.6563 346.8943,571.6563 Q347.8318,571.6563 348.4881,571.4063 Q348.8787,571.25 349.3006,570.8125 Q349.5662,570.5469 349.7068,570.4688 Q349.8631,570.3906 350.0662,570.3906 Q350.3943,570.3906 350.6443,570.6563 Q350.9099,570.9063 350.9099,571.25 Q350.9099,571.5938 350.5662,572 Q350.0662,572.5781 349.2693,572.9063 Q348.1912,573.3594 346.8943,573.3594 Q345.3787,573.3594 344.1756,572.7344 Q343.1912,572.2344 342.5037,571.1719 Q341.8162,570.0938 341.8162,568.8125 L341.8162,567.6563 Q341.8162,566.3281 342.4256,565.1875 Q343.0506,564.0313 344.1443,563.4219 Q345.2381,562.7969 346.4724,562.7969 Q347.2068,562.7969 347.8474,562.9688 Q348.5037,563.125 349.0506,563.4844 Z " fill="#000000"/><text fill="#000000" font-family="sans-serif" font-size="11" font-weight="bold" lengthAdjust="spacing" textLength="83.1123" x="360.7927" y="572.1104">LigneDocument</text><line style="stroke:#1F2A44;stroke-width:0.5;" x1="330" x2="448.1899" y1="583.6094" y2="583.6094"/><text fill="#000000" font-family="sans-serif" font-size="11" lengthAdjust="spacing" textLength="48.2808" x="335" y="599.0283">-id : UUID</text><text fill="#000000" font-family="sans-serif" font-size="11" lengthAdjust="spacing" textLength="88.0376" x="335" y="612.8643">-r&#233;f&#233;rence : String</text><text fill="#000000" font-family="sans-serif" font-size="11" lengthAdjust="spacing" textLength="97.8345" x="335" y="626.7002">-d&#233;signation : String</text><text fill="#000000" font-family="sans-serif" font-size="11" lengthAdjust="spacing" textLength="91.7061" x="335" y="640.5361">-quantit&#233; : D&#233;cimal</text><text fill="#000000" font-family="sans-serif" font-size="11" lengthAdjust="spacing" textLength="65.4199" x="335" y="654.3721">-unit&#233; : String</text><text fill="#000000" font-family="sans-serif" font-size="11" lengthAdjust="spacing" textLength="108.1899" x="335" y="668.208">-prixUnitaire : D&#233;cimal</text><text fill="#000000" font-family="sans-serif" font-size="11" lengthAdjust="spacing" textLength="85.5669" x="335" y="682.0439">-remise : D&#233;cimal</text><text fill="#000000" font-family="sans-serif" font-size="11" lengthAdjust="spacing" textLength="106.9707" x="335" y="695.8799">-montantHT : D&#233;cimal</text><text fill="#000000" font-family="sans-serif" font-size="11" lengthAdjust="spacing" textLength="94.7461" x="335" y="709.7158">-tauxTVA : D&#233;cimal</text><line style="stroke:#1F2A44;stroke-width:0.5;" x1="330" x2="448.1899" y1="716.1328" y2="716.1328"/></g><!--class Article--><g id="elem_Article"><rect codeLine="131" fill="#FFFFFF" height="144.8516" id="Article" rx="3" ry="3" style="stroke:#1F2A44;stroke-width:0.5;" width="140.063" x="1250" y="45.6094"/><ellipse cx="1298.6638" cy="61.6094" fill="#ADD1B2" rx="11" ry="11" style="stroke:#181818;stroke-width:1.0;"/><path d="M1301.4294,57.4844 Q1301.5857,57.2656 1301.7732,57.1563 Q1301.9607,57.0469 1302.1794,57.0469 Q1302.5544,57.0469 1302.7888,57.3125 Q1303.0232,57.5625 1303.0232,58.1719 L1303.0232,59.625 Q1303.0232,60.2344 1302.7888,60.5 Q1302.5544,60.7656 1302.1794,60.7656 Q1301.8357,60.7656 1301.6326,60.5625 Q1301.4294,60.375 1301.3201,59.8594 Q1301.2732,59.5 1301.0857,59.3125 Q1300.7576,58.9375 1300.1482,58.7188 Q1299.5388,58.5 1298.9138,58.5 Q1298.1482,58.5 1297.5076,58.8281 Q1296.8826,59.1563 1296.3826,59.9063 Q1295.8982,60.6563 1295.8982,61.6875 L1295.8982,62.7813 Q1295.8982,64.0156 1296.7888,64.8438 Q1297.6794,65.6563 1299.2732,65.6563 Q1300.2107,65.6563 1300.8669,65.4063 Q1301.2576,65.25 1301.6794,64.8125 Q1301.9451,64.5469 1302.0857,64.4688 Q1302.2419,64.3906 1302.4451,64.3906 Q1302.7732,64.3906 1303.0232,64.6563 Q1303.2888,64.9063 1303.2888,65.25 Q1303.2888,65.5938 1302.9451,66 Q1302.4451,66.5781 1301.6482,66.9063 Q1300.5701,67.3594 1299.2732,67.3594 Q1297.7576,67.3594 1296.5544,66.7344 Q1295.5701,66.2344 1294.8826,65.1719 Q1294.1951,64.0938 1294.1951,62.8125 L1294.1951,61.6563 Q1294.1951,60.3281 1294.8044,59.1875 Q1295.4294,58.0313 1296.5232,57.4219 Q1297.6169,56.7969 1298.8513,56.7969 Q1299.5857,56.7969 1300.2263,56.9688 Q1300.8826,57.125 1301.4294,57.4844 Z " fill="#000000"/><text fill="#000000" font-family="sans-serif" font-size="11" font-weight="bold" lengthAdjust="spacing" textLength="34.2354" x="1319.1638" y="66.1104">Article</text><line style="stroke:#1F2A44;stroke-width:0.5;" x1="1251" x2="1389.063" y1="77.6094" y2="77.6094"/><text fill="#000000" font-family="sans-serif" font-size="11" lengthAdjust="spacing" textLength="48.2808" x="1256" y="93.0283">-id : UUID</text><text fill="#000000" font-family="sans-serif" font-size="11" lengthAdjust="spacing" textLength="122.2837" x="1256" y="106.8643">-r&#233;f&#233;renceInterne : String</text><text fill="#000000" font-family="sans-serif" font-size="11" lengthAdjust="spacing" textLength="112.4761" x="1256" y="120.7002">-nomNormalis&#233; : String</text><text fill="#000000" font-family="sans-serif" font-size="11" lengthAdjust="spacing" textLength="86.8184" x="1256" y="134.5361">-cat&#233;gorie : String</text><text fill="#000000" font-family="sans-serif" font-size="11" lengthAdjust="spacing" textLength="102.0991" x="1256" y="148.3721">-unit&#233;Mesure : String</text><text fill="#000000" font-family="sans-serif" font-size="11" lengthAdjust="spacing" textLength="94.7622" x="1256" y="162.208">-description : String</text><line style="stroke:#1F2A44;stroke-width:1.0;" x1="1251" x2="1389.063" y1="168.625" y2="168.625"/><text fill="#000000" font-family="sans-serif" font-size="11" lengthAdjust="spacing" textLength="128.063" x="1256" y="184.0439">+calculerStock() : D&#233;cimal</text></g><!--class ArticleFournisseur--><g id="elem_ArticleFournisseur"><rect codeLine="142" fill="#FFFFFF" height="131.0156" id="ArticleFournisseur" rx="3" ry="3" style="stroke:#1F2A44;stroke-width:0.5;" width="158.1152" x="1150" y="305.6094"/><ellipse cx="1177.7408" cy="321.6094" fill="#ADD1B2" rx="11" ry="11" style="stroke:#181818;stroke-width:1.0;"/><path d="M1180.5065,317.4844 Q1180.6627,317.2656 1180.8502,317.1563 Q1181.0377,317.0469 1181.2565,317.0469 Q1181.6315,317.0469 1181.8658,317.3125 Q1182.1002,317.5625 1182.1002,318.1719 L1182.1002,319.625 Q1182.1002,320.2344 1181.8658,320.5 Q1181.6315,320.7656 1181.2565,320.7656 Q1180.9127,320.7656 1180.7096,320.5625 Q1180.5065,320.375 1180.3971,319.8594 Q1180.3502,319.5 1180.1627,319.3125 Q1179.8346,318.9375 1179.2252,318.7188 Q1178.6158,318.5 1177.9908,318.5 Q1177.2252,318.5 1176.5846,318.8281 Q1175.9596,319.1563 1175.4596,319.9063 Q1174.9752,320.6563 1174.9752,321.6875 L1174.9752,322.7813 Q1174.9752,324.0156 1175.8658,324.8438 Q1176.7565,325.6563 1178.3502,325.6563 Q1179.2877,325.6563 1179.944,325.4063 Q1180.3346,325.25 1180.7565,324.8125 Q1181.0221,324.5469 1181.1627,324.4688 Q1181.319,324.3906 1181.5221,324.3906 Q1181.8502,324.3906 1182.1002,324.6563 Q1182.3658,324.9063 1182.3658,325.25 Q1182.3658,325.5938 1182.0221,326 Q1181.5221,326.5781 1180.7252,326.9063 Q1179.6471,327.3594 1178.3502,327.3594 Q1176.8346,327.3594 1175.6315,326.7344 Q1174.6471,326.2344 1173.9596,325.1719 Q1173.2721,324.0938 1173.2721,322.8125 L1173.2721,321.6563 Q1173.2721,320.3281 1173.8815,319.1875 Q1174.5065,318.0313 1175.6002,317.4219 Q1176.694,316.7969 1177.9283,316.7969 Q1178.6627,316.7969 1179.3033,316.9688 Q1179.9596,317.125 1180.5065,317.4844 Z " fill="#000000"/><text fill="#000000" font-family="sans-serif" font-size="11" font-weight="bold" lengthAdjust="spacing" textLength="97.8022" x="1194.5721" y="326.1104">ArticleFournisseur</text><line style="stroke:#1F2A44;stroke-width:0.5;" x1="1151" x2="1307.1152" y1="337.6094" y2="337.6094"/><text fill="#000000" font-family="sans-serif" font-size="11" lengthAdjust="spacing" textLength="48.2808" x="1156" y="353.0283">-id : UUID</text><text fill="#000000" font-family="sans-serif" font-size="11" lengthAdjust="spacing" textLength="146.1152" x="1156" y="366.8643">-r&#233;f&#233;renceFournisseur : String</text><text fill="#000000" font-family="sans-serif" font-size="11" lengthAdjust="spacing" textLength="121.043" x="1156" y="380.7002">-nomFournisseur : String</text><text fill="#000000" font-family="sans-serif" font-size="11" lengthAdjust="spacing" textLength="98.4146" x="1156" y="394.5361">-prixAchat : D&#233;cimal</text><text fill="#000000" font-family="sans-serif" font-size="11" lengthAdjust="spacing" textLength="99.0322" x="1156" y="408.3721">-prixVente : D&#233;cimal</text><text fill="#000000" font-family="sans-serif" font-size="11" lengthAdjust="spacing" textLength="78.8638" x="1156" y="422.208">-marque : String</text><line style="stroke:#1F2A44;stroke-width:0.5;" x1="1151" x2="1307.1152" y1="428.625" y2="428.625"/></g><!--class MouvementStock--><g id="elem_MouvementStock"><rect codeLine="151" fill="#FFFFFF" height="117.1797" id="MouvementStock" rx="3" ry="3" style="stroke:#1F2A44;stroke-width:0.5;" width="185.019" x="956.5" y="579.6094"/><ellipse cx="999.376" cy="595.6094" fill="#ADD1B2" rx="11" ry="11" style="stroke:#181818;stroke-width:1.0;"/><path d="M1002.1417,591.4844 Q1002.2979,591.2656 1002.4854,591.1563 Q1002.6729,591.0469 1002.8917,591.0469 Q1003.2667,591.0469 1003.501,591.3125 Q1003.7354,591.5625 1003.7354,592.1719 L1003.7354,593.625 Q1003.7354,594.2344 1003.501,594.5 Q1003.2667,594.7656 1002.8917,594.7656 Q1002.5479,594.7656 1002.3448,594.5625 Q1002.1417,594.375 1002.0323,593.8594 Q1001.9854,593.5 1001.7979,593.3125 Q1001.4698,592.9375 1000.8604,592.7188 Q1000.251,592.5 999.626,592.5 Q998.8604,592.5 998.2198,592.8281 Q997.5948,593.1563 997.0948,593.9063 Q996.6104,594.6563 996.6104,595.6875 L996.6104,596.7813 Q996.6104,598.0156 997.501,598.8438 Q998.3917,599.6563 999.9854,599.6563 Q1000.9229,599.6563 1001.5792,599.4063 Q1001.9698,599.25 1002.3917,598.8125 Q1002.6573,598.5469 1002.7979,598.4688 Q1002.9542,598.3906 1003.1573,598.3906 Q1003.4854,598.3906 1003.7354,598.6563 Q1004.001,598.9063 1004.001,599.25 Q1004.001,599.5938 1003.6573,600 Q1003.1573,600.5781 1002.3604,600.9063 Q1001.2823,601.3594 999.9854,601.3594 Q998.4698,601.3594 997.2667,600.7344 Q996.2823,600.2344 995.5948,599.1719 Q994.9073,598.0938 994.9073,596.8125 L994.9073,595.6563 Q994.9073,594.3281 995.5167,593.1875 Q996.1417,592.0313 997.2354,591.4219 Q998.3292,590.7969 999.5635,590.7969 Q1000.2979,590.7969 1000.9385,590.9688 Q1001.5948,591.125 1002.1417,591.4844 Z " fill="#000000"/><text fill="#000000" font-family="sans-serif" font-size="11" font-weight="bold" lengthAdjust="spacing" textLength="91.0723" x="1019.5707" y="600.1104">MouvementStock</text><line style="stroke:#1F2A44;stroke-width:0.5;" x1="957.5" x2="1140.519" y1="611.6094" y2="611.6094"/><text fill="#000000" font-family="sans-serif" font-size="11" lengthAdjust="spacing" textLength="48.2808" x="962.5" y="627.0283">-id : UUID</text><text fill="#000000" font-family="sans-serif" font-size="11" lengthAdjust="spacing" textLength="173.019" x="962.5" y="640.8643">-typeMouvement : TypeMouvement</text><text fill="#000000" font-family="sans-serif" font-size="11" lengthAdjust="spacing" textLength="91.7061" x="962.5" y="654.7002">-quantit&#233; : D&#233;cimal</text><text fill="#000000" font-family="sans-serif" font-size="11" lengthAdjust="spacing" textLength="108.1899" x="962.5" y="668.5361">-prixUnitaire : D&#233;cimal</text><text fill="#000000" font-family="sans-serif" font-size="11" lengthAdjust="spacing" textLength="114.9468" x="962.5" y="682.3721">-dateMouvement : Date</text><line style="stroke:#1F2A44;stroke-width:0.5;" x1="957.5" x2="1140.519" y1="688.7891" y2="688.7891"/></g><!--reverse link Document to Facture--><g id="link_Document_Facture"><path codeLine="160" d="M574.8301,475.536 C568.6501,512.736 564.48,537.8294 558.76,572.3194 " fill="none" id="Document-backto-Facture" style="stroke:#444444;stroke-width:1.0;"/><polygon fill="none" points="577.78,457.7794,568.9112,474.5527,580.749,476.5193,577.78,457.7794" style="stroke:#444444;stroke-width:1.0;"/></g><!--reverse link Document to Devis--><g id="link_Document_Devis"><path codeLine="161" d="M637.4724,474.2227 C655.1824,513.9927 668.44,543.7794 684.28,579.3394 " fill="none" id="Document-backto-Devis" style="stroke:#444444;stroke-width:1.0;"/><polygon fill="none" points="630.15,457.7794,631.9913,476.6635,642.9535,471.7819,630.15,457.7794" style="stroke:#444444;stroke-width:1.0;"/></g><!--reverse link Document to BonLivraison--><g id="link_Document_BonLivraison"><path codeLine="162" d="M690.8959,456.8999 C726.9059,488.6799 755.18,515.0494 791,551.6094 C803.64,564.5094 816.75,579.1794 828.36,592.6794 " fill="none" id="Document-backto-BonLivraison" style="stroke:#444444;stroke-width:1.0;"/><polygon fill="none" points="677.4,444.9894,686.9257,461.3986,694.8661,452.4013,677.4,444.9894" style="stroke:#444444;stroke-width:1.0;"/></g><!--reverse link Document to BonCommande--><g id="link_Document_BonCommande"><path codeLine="163" d="M489.5778,399.7459 C396.4078,427.0759 262.62,474.1994 150,551.6094 C133.42,563.0094 117.69,578.3794 104.65,592.9394 " fill="none" id="Document-backto-BonCommande" style="stroke:#444444;stroke-width:1.0;"/><polygon fill="none" points="506.85,394.6794,487.8889,393.9885,491.2666,405.5033,506.85,394.6794" style="stroke:#444444;stroke-width:1.0;"/></g><!--reverse link Document to Avoir--><g id="link_Document_Avoir"><path codeLine="164" d="M491.2052,428.0402 C433.4452,461.5902 372.32,500.6294 311,551.6094 C298.49,562.0094 285.99,574.2494 274.71,586.1794 " fill="none" id="Document-backto-Avoir" style="stroke:#444444;stroke-width:1.0;"/><polygon fill="none" points="506.77,418.9994,488.1916,422.852,494.2188,433.2285,506.77,418.9994" style="stroke:#444444;stroke-width:1.0;"/></g><!--link Utilisateur to Document--><g id="link_Utilisateur_Document"><path codeLine="167" d="M700.65,190.6994 C683.01,219.8294 665.588,248.5971 647.148,279.0471 " fill="none" id="Utilisateur-to-Document" style="stroke:#444444;stroke-width:1.0;"/><polygon fill="#444444" points="644.04,284.1794,652.1235,278.553,646.63,279.9025,645.2805,274.409,644.04,284.1794" style="stroke:#444444;stroke-width:1.0;"/><text fill="#000000" font-family="sans-serif" font-size="13" lengthAdjust="spacing" textLength="78.7744" x="682" y="243.1045">scanne / g&#232;re</text><text fill="#000000" font-family="sans-serif" font-size="13" lengthAdjust="spacing" textLength="7.23" x="689.2176" y="211.8996">1</text><text fill="#000000" font-family="sans-serif" font-size="13" lengthAdjust="spacing" textLength="5.0591" x="643.1307" y="273.8474">*</text></g><!--link Fournisseur to Document--><g id="link_Fournisseur_Document"><path codeLine="168" d="M997.91,147.1694 C920.23,189.8394 776.7891,268.6212 682.5391,320.3812 " fill="none" id="Fournisseur-to-Document" style="stroke:#444444;stroke-width:1.0;"/><polygon fill="#444444" points="677.28,323.2694,687.0941,322.4432,681.6626,320.8625,683.2432,315.431,677.28,323.2694" style="stroke:#444444;stroke-width:1.0;"/><text fill="#000000" font-family="sans-serif" font-size="13" lengthAdjust="spacing" textLength="28.9009" x="862" y="243.1045">&#233;met</text><text fill="#000000" font-family="sans-serif" font-size="13" lengthAdjust="spacing" textLength="7.23" x="982.917" y="147.7824">1</text><text fill="#000000" font-family="sans-serif" font-size="13" lengthAdjust="spacing" textLength="5.0591" x="685.359" y="315.6549">*</text></g><!--reverse link Document to LigneDocument--><g id="link_Document_LigneDocument"><path codeLine="169" d="M519.0724,467.3054 C494.2824,499.6654 473.52,526.7794 449.24,558.4694 " fill="none" id="Document-backto-LigneDocument" style="stroke:#444444;stroke-width:1.0;"/><polygon fill="#444444" points="526.37,457.7794,519.5459,460.1099,519.0724,467.3054,525.8965,464.9749,526.37,457.7794" style="stroke:#444444;stroke-width:1.0;"/><text fill="#000000" font-family="sans-serif" font-size="13" lengthAdjust="spacing" textLength="45.5317" x="504" y="510.1045">contient</text><text fill="#000000" font-family="sans-serif" font-size="13" lengthAdjust="spacing" textLength="7.23" x="514.0728" y="478.5544">1</text><text fill="#000000" font-family="sans-serif" font-size="13" lengthAdjust="spacing" textLength="5.0591" x="457.2702" y="544.7887">*</text></g><!--link Article to ArticleFournisseur--><g id="link_Article_ArticleFournisseur"><path codeLine="171" d="M1293.9,190.6294 C1290.23,200.6994 1286.52,210.9094 1283,220.6094 C1272.93,248.3694 1261.84,279.0394 1252.35,305.3394 " fill="none" id="Article-ArticleFournisseur" style="stroke:#444444;stroke-width:1.0;"/><text fill="#000000" font-family="sans-serif" font-size="13" lengthAdjust="spacing" textLength="67.209" x="1284" y="243.1045">a pour alias</text><text fill="#000000" font-family="sans-serif" font-size="13" lengthAdjust="spacing" textLength="7.23" x="1283.9945" y="212.0753">1</text><text fill="#000000" font-family="sans-serif" font-size="13" lengthAdjust="spacing" textLength="5.0591" x="1249.6274" y="294.7843">*</text></g><!--link Fournisseur to ArticleFournisseur--><g id="link_Fournisseur_ArticleFournisseur"><path codeLine="172" d="M1095.35,183.7494 C1122.12,221.0794 1155.69,267.8894 1182.49,305.2494 " fill="none" id="Fournisseur-ArticleFournisseur" style="stroke:#444444;stroke-width:1.0;"/><text fill="#000000" font-family="sans-serif" font-size="13" lengthAdjust="spacing" textLength="46.979" x="1145" y="243.1045">propose</text><text fill="#000000" font-family="sans-serif" font-size="13" lengthAdjust="spacing" textLength="7.23" x="1093.0553" y="205.3172">1</text><text fill="#000000" font-family="sans-serif" font-size="13" lengthAdjust="spacing" textLength="5.0591" x="1172.1265" y="294.6844">*</text></g><!--link Article to MouvementStock--><g id="link_Article_MouvementStock"><path codeLine="173" d="M1348.76,190.6594 C1351.74,200.5794 1354.3,210.7494 1356,220.6094 C1369.59,299.5594 1365.79,395.6994 1326,457.6094 C1282.7,524.9794 1204.13,572.2894 1141.7,601.3594 " fill="none" id="Article-MouvementStock" style="stroke:#444444;stroke-width:1.0;"/><text fill="#000000" font-family="sans-serif" font-size="13" lengthAdjust="spacing" textLength="57.8081" x="1364" y="376.6045">enregistre</text><text fill="#000000" font-family="sans-serif" font-size="13" lengthAdjust="spacing" textLength="7.23" x="1344.1756" y="211.8557">1</text><text fill="#000000" font-family="sans-serif" font-size="13" lengthAdjust="spacing" textLength="5.0591" x="1149.5854" y="595.1557">*</text></g><!--link Fournisseur to MouvementStock--><g id="link_Fournisseur_MouvementStock"><path codeLine="174" d="M1049,183.6694 C1049,285.5094 1049,481.8594 1049,579.3194 " fill="none" id="Fournisseur-MouvementStock" style="stroke:#444444;stroke-width:1.0;"/><text fill="#000000" font-family="sans-serif" font-size="13" lengthAdjust="spacing" textLength="64.3208" x="1050" y="376.6045">provient de</text><text fill="#000000" font-family="sans-serif" font-size="13" lengthAdjust="spacing" textLength="21.6836" x="1026.8949" y="205.2285">0..1</text><text fill="#000000" font-family="sans-serif" font-size="13" lengthAdjust="spacing" textLength="5.0591" x="1043.6978" y="568.6849">*</text></g><!--link Document to MouvementStock--><g id="link_Document_MouvementStock"><path codeLine="175" d="M677.29,419.6394 C732.36,449.8194 805.82,489.1694 872,521.6094 C901.3,535.9694 911.03,534.8094 939,551.6094 C952.79,559.8894 966.84,569.6394 980.08,579.5294 " fill="none" id="Document-MouvementStock" style="stroke:#444444;stroke-width:1.0;"/><text fill="#000000" font-family="sans-serif" font-size="13" lengthAdjust="spacing" textLength="36.8481" x="873" y="510.1045">justifie</text><text fill="#000000" font-family="sans-serif" font-size="13" lengthAdjust="spacing" textLength="21.6836" x="685.2366" y="420.5252">0..1</text><text fill="#000000" font-family="sans-serif" font-size="13" lengthAdjust="spacing" textLength="5.0591" x="966.3781" y="568.9205">*</text></g><!--link TypeDocument to Document--><g id="link_TypeDocument_Document"><path codeLine="178" d="M462.68,176.8794 C472.16,201.5994 484.6,230.2994 499,254.6094 C504.91,264.5794 508.1,269.7432 515.14,279.5032 " fill="none" id="TypeDocument-to-Document" style="stroke:#444444;stroke-width:1.0;stroke-dasharray:7.0,7.0;"/><polygon fill="#444444" points="518.65,284.3694,516.6291,274.7301,515.725,280.3142,510.1408,279.4101,518.65,284.3694" style="stroke:#444444;stroke-width:1.0;"/><text fill="#000000" font-family="sans-serif" font-size="13" lengthAdjust="spacing" textLength="47.6963" x="518.0623" y="235.1045">&#171;utilise&#187;</text><text fill="#000000" font-family="sans-serif" font-size="13" lengthAdjust="spacing" textLength="83.8208" x="500" y="251.4561">typeDocument</text></g><!--link StatutDocument to Document--><g id="link_StatutDocument_Document"><path codeLine="179" d="M592,169.8994 C592,202.7094 592,240.2194 592,278.2994 " fill="none" id="StatutDocument-to-Document" style="stroke:#444444;stroke-width:1.0;stroke-dasharray:7.0,7.0;"/><polygon fill="#444444" points="592,284.2994,596,275.2994,592,279.2994,588,275.2994,592,284.2994" style="stroke:#444444;stroke-width:1.0;"/><text fill="#000000" font-family="sans-serif" font-size="13" lengthAdjust="spacing" textLength="47.6963" x="593" y="235.1045">&#171;utilise&#187;</text><text fill="#000000" font-family="sans-serif" font-size="13" lengthAdjust="spacing" textLength="31.7954" x="600.9504" y="251.4561">statut</text></g><!--link TypeMouvement to MouvementStock--><g id="link_TypeMouvement_MouvementStock"><path codeLine="180" d="M913.81,416.3694 C912.09,447.2694 913.69,488.7094 929,521.6094 C939.01,543.1094 950.626,558.4785 967.636,575.1585 " fill="none" id="TypeMouvement-to-MouvementStock" style="stroke:#444444;stroke-width:1.0;stroke-dasharray:7.0,7.0;"/><polygon fill="#444444" points="971.92,579.3594,968.2946,570.2021,968.35,575.8586,962.6934,575.914,971.92,579.3594" style="stroke:#444444;stroke-width:1.0;"/><text fill="#000000" font-family="sans-serif" font-size="13" lengthAdjust="spacing" textLength="47.6963" x="952.3977" y="502.1045">&#171;utilise&#187;</text><text fill="#000000" font-family="sans-serif" font-size="13" lengthAdjust="spacing" textLength="92.4917" x="930" y="518.4561">typeMouvement</text></g><!--SRC=[pLZDRXit4BxhAGZt43k5dTWmsbHm3SXIXHXn2gF-0GeK2EZTiSHcbroJNCNf3v1hxdc07hltli6-IPwaGt9N8hahkqLQEB9WIpF3uSotCn-7VaI-_OJNu14vEntzyE97iaqcZCuapNCWAP0aeqg18fiBa8e9JkfAbocZNCEMMQJVPa1eGjEwojbD2KInlCZODQihKeXI4acBGaXDJgVV6NiK9K269AMQNb45JrGoXvpkg9iCrP-KWdhDU44nSgBcD1Ll69-HQvefy3HIb3mT2yb1agyykKtpY2QlPur59YJvOcfV7JCXKv2DoUvqRxI_7vjC1TSEcYkHfRrQzWkGtRrODT9QigjImyfcTwtDSIAujNdgcOoa56-QuFQ3o0fCZywWc-KpyzDZU6UUN6Ze0-pPP1nR-Nx6tupszhwEBFna1vffnAst23- - -q161PPNGhMfHLUo0ooSZn_UkJUft_CohojfBTHAyL3l0M0yvFnj0HEHb3bmJNuT42pCH9SIy5CA2wRmxvNWhpAsa9GfmPllYSXpobDZHXU2oS7l0-VlJ5DTwi0Zy5TKQ_nch2rYjWkDvbQZLsq-IGdboek9wgKe5-0vqRAkZ0U5JSkiAu6B4eEcMUT3VQ5PnXJLwFBXSJPGswo3i4nEsuIbo3WN5ySJ-mtfXcKeECCsuZChoeMUmAafib3EHHuAPFrN5jfiuwylYOAnu1nX0hcvrKWcTPLumWYyAJ8XPxZZvmMU7rOVU1r459EWGn5D9NIWx45TrrLMLyLSSCysWcbPufkE10YzKhQQOUj_WMtW_2VQjH09Mgm7Z2bBvWmFao2nKcPdMbWIZJBsQM0Oi883qxQrNUFtjzDX8vegkyR3rnwXfhvOJZEhnVCKnjYwZXXHIIqFDENPqi6oEXqbI71rsJnwHqbDfev5HIiCqZ2RhHJjLbPSlq_c64KJOQl9aU1nP7X-7eVTACulH-iqvsDVimnsObWp3DM9Ee6suY3CIvgnb641_gieryHo9FX9IznXI4SdtNXMfjxM-3IuCdEIwJk_5vOxZ9kZ8DfWtDrWQTbDRLq68tEuX9wTgEEy5T_ZkI5LThssiK_OZDl3FMtxuS4upuPoPwDZOrqZAE3AseUahXIkRhlEqzoKY4fROJui9M-add4XsUq5oarBnlOISgPWJKbsQrNJyZPgfmZv4Hxi2PvYcpX5qKpCS6ZdGg8XKtNrNxDgMs3DdlU0UupJY-JTG_ZxPNoX2ZEegvcGB5hYC7u9gajTe1B9YixpQdYIPacPWRJilRdLtoikbViEIYyhtpJERAtEbCGecLCTFs2Zk3HZNgSag3GNi2vxB4SycrPlj3gO18VXP7XtFTzLkuOnVBUMDQ9oV8ueuMeyAYSFo0JBlGz-szvkZy98Qa-IIEPpVrVLKd6aiIGQDQLI8c6VpQN5dw4tTZUmFmx9nkCDuWqlAg4ut98dP5R_YL3vXRncHLtbe5TG6Al7Y8Qn2YbuY9SEB3PJUeEMEPnFQzpJWKD2tRyRa2MewWbc_S92Ya8ewDieQfmXNeyap1WEY56-JtTsxbY5EonCCiGlX7lM_5mgRGQs-D1qamEo6A8PN7JhFqY6iQZLPVcVF-tWTah8piuXyRwQrv0S79Is9k3my2Vkpx63w2vw_setvGx2swTTru6Xi-kAbFu6]--></g></svg>