<svg xmlns="http://www.w3.org/2000/svg" xmlns:xlink="http://www.w3.org/1999/xlink" contentStyleType="text/css" height="288px" preserveAspectRatio="none" style="width:1780px;height:288px;background:#FFFFFF;" version="1.1" viewBox="0 0 1780 288" width="1780px" zoomAndPan="magnify"><title>Workflow n8n &#8212; SPARKY (11 n&#339;uds)</title><defs/><g><text fill="#000000" font-family="Segoe UI" font-size="22" font-weight="bold" lengthAdjust="spacing" textLength="389.0176" x="688.4912" y="33.7402">Workflow n8n &#8212; SPARKY (11 n&#339;uds)</text><!--cluster Phase 1 ? R?ception--><g id="cluster_Phase 1 &#8212; R&#233;ception"><path d="M8.5,103.7773 L167.3047,103.7773 A3.75,3.75 0 0 1 169.8047,106.2773 L176.8047,131.0586 L398.5,131.0586 A2.5,2.5 0 0 1 401,133.5586 L401,233.2773 A2.5,2.5 0 0 1 398.5,235.7773 L8.5,235.7773 A2.5,2.5 0 0 1 6,233.2773 L6,106.2773 A2.5,2.5 0 0 1 8.5,103.7773 " fill="#D6EAF8" style="stroke:#888888;stroke-width:1.5;"/><line style="stroke:#888888;stroke-width:1.5;" x1="6" x2="176.8047" y1="131.0586" y2="131.0586"/><text fill="#2C3E50" font-family="Segoe UI" font-size="16" font-weight="bold" lengthAdjust="spacing" textLength="157.8047" x="10" y="123.043">Phase 1 &#8212; R&#233;ception</text></g><!--cluster Phase 2 ? Classification--><g id="cluster_Phase 2 &#8212; Classification"><path d="M431.5,103.7773 L613.6797,103.7773 A3.75,3.75 0 0 1 616.1797,106.2773 L623.1797,131.0586 L761.5,131.0586 A2.5,2.5 0 0 1 764,133.5586 L764,233.2773 A2.5,2.5 0 0 1 761.5,235.7773 L431.5,235.7773 A2.5,2.5 0 0 1 429,233.2773 L429,106.2773 A2.5,2.5 0 0 1 431.5,103.7773 " fill="#FCF3CF" style="stroke:#888888;stroke-width:1.5;"/><line style="stroke:#888888;stroke-width:1.5;" x1="429" x2="623.1797" y1="131.0586" y2="131.0586"/><text fill="#2C3E50" font-family="Segoe UI" font-size="16" font-weight="bold" lengthAdjust="spacing" textLength="181.1797" x="433" y="123.043">Phase 2 &#8212; Classification</text></g><!--cluster Phase 3 ? Extraction--><g id="cluster_Phase 3 &#8212; Extraction"><path d="M794.5,103.7773 L954.1797,103.7773 A3.75,3.75 0 0 1 956.6797,106.2773 L963.6797,131.0586 L1161.5,131.0586 A2.5,2.5 0 0 1 1164,133.5586 L1164,233.2773 A2.5,2.5 0 0 1 1161.5,235.7773 L794.5,235.7773 A2.5,2.5 0 0 1 792,233.2773 L792,106.2773 A2.5,2.5 0 0 1 794.5,103.7773 " fill="#FAE5D3" style="stroke:#888888;stroke-width:1.5;"/><line style="stroke:#888888;stroke-width:1.5;" x1="792" x2="963.6797" y1="131.0586" y2="131.0586"/><text fill="#2C3E50" font-family="Segoe UI" font-size="16" font-weight="bold" lengthAdjust="spacing" textLength="158.6797" x="796" y="123.043">Phase 3 &#8212; Extraction</text></g><!--cluster Phase 4 ? Distribution--><g id="cluster_Phase 4 &#8212; Distribution"><path d="M1194.5,56.7773 L1368.0703,56.7773 A3.75,3.75 0 0 1 1370.5703,59.2773 L1377.5703,84.0586 L1770.5,84.0586 A2.5,2.5 0 0 1 1773,86.5586 L1773,279.2773 A2.5,2.5 0 0 1 1770.5,281.7773 L1194.5,281.7773 A2.5,2.5 0 0 1 1192,279.2773 L1192,59.2773 A2.5,2.5 0 0 1 1194.5,56.7773 " fill="#D5F5E3" style="stroke:#888888;stroke-width:1.5;"/><line style="stroke:#888888;stroke-width:1.5;" x1="1192" x2="1377.5703" y1="84.0586" y2="84.0586"/><text fill="#2C3E50" font-family="Segoe UI" font-size="16" font-weight="bold" lengthAdjust="spacing" textLength="172.5703" x="1196" y="76.043">Phase 4 &#8212; Distribution</text></g><!--entity N1--><g id="elem_N1"><rect fill="#FFFEF5" height="57.2422" rx="6" ry="6" style="stroke:#444444;stroke-width:0.5;" width="174.1025" x="22" y="153.2773"/><text fill="#000000" font-family="Segoe UI" font-size="14" font-weight="bold" lengthAdjust="spacing" textLength="154.1025" x="32" y="178.3848">1. R&#233;ception Document</text><text fill="#000000" font-family="Segoe UI" font-size="14" lengthAdjust="spacing" textLength="59.917" x="32" y="197.0059">Webhook</text></g><!--entity N2--><g id="elem_N2"><rect fill="#FFFEF5" height="75.8633" rx="6" ry="6" style="stroke:#444444;stroke-width:0.5;" width="128.5449" x="256" y="143.7773"/><rect fill="#000000" height="3.5" style="stroke:#000000;stroke-width:0.0;" width="3.5" x="275" y="162.3984"/><text fill="#000000" font-family="Segoe UI" font-size="14" lengthAdjust="spacing" textLength="92.5449" x="282" y="168.8848">2. Validation et</text><text fill="#000000" font-family="Segoe UI" font-size="14" lengthAdjust="spacing" textLength="105.1025" x="266" y="187.5059">D&#233;tection Type**</text><text fill="#000000" font-family="Segoe UI" font-size="14" lengthAdjust="spacing" textLength="48.7061" x="266" y="206.127">Code JS</text></g><!--entity N3--><g id="elem_N3"><rect fill="#FFFEF5" height="75.8633" rx="6" ry="6" style="stroke:#444444;stroke-width:0.5;" width="129.6279" x="445" y="143.7773"/><rect fill="#000000" height="3.5" style="stroke:#000000;stroke-width:0.0;" width="3.5" x="464" y="162.3984"/><text fill="#000000" font-family="Segoe UI" font-size="14" lengthAdjust="spacing" textLength="91.1777" x="471" y="168.8848">3. Labellisation</text><text fill="#000000" font-family="Segoe UI" font-size="14" lengthAdjust="spacing" textLength="109.6279" x="455" y="187.5059">Type Document**</text><text fill="#000000" font-family="Segoe UI" font-size="14" lengthAdjust="spacing" textLength="48.7061" x="455" y="206.127">Code JS</text></g><!--entity N4--><g id="elem_N4"><rect fill="#FFFEF5" height="75.8633" rx="6" ry="6" style="stroke:#444444;stroke-width:0.5;" width="112.6445" x="635" y="143.7773"/><rect fill="#000000" height="3.5" style="stroke:#000000;stroke-width:0.0;" width="3.5" x="654" y="162.3984"/><text fill="#000000" font-family="Segoe UI" font-size="14" lengthAdjust="spacing" textLength="76.6445" x="661" y="168.8848">4. Validation</text><text fill="#000000" font-family="Segoe UI" font-size="14" lengthAdjust="spacing" textLength="91.752" x="645" y="187.5059">Classification**</text><text fill="#000000" font-family="Segoe UI" font-size="14" lengthAdjust="spacing" textLength="48.7061" x="645" y="206.127">Code JS</text></g><!--entity N5--><g id="elem_N5"><rect fill="#FFFEF5" height="75.8633" rx="6" ry="6" style="stroke:#444444;stroke-width:0.5;" width="167.1982" x="808" y="143.7773"/><rect fill="#000000" height="3.5" style="stroke:#000000;stroke-width:0.0;" width="3.5" x="827" y="162.3984"/><text fill="#000000" font-family="Segoe UI" font-size="14" lengthAdjust="spacing" textLength="101.0488" x="834" y="168.8848">5. Calcul Total &amp;</text><text fill="#000000" font-family="Segoe UI" font-size="14" lengthAdjust="spacing" textLength="147.1982" x="818" y="187.5059">M&#233;tadonn&#233;es Mod&#232;le**</text><text fill="#000000" font-family="Segoe UI" font-size="14" lengthAdjust="spacing" textLength="48.7061" x="818" y="206.127">Code JS</text></g><!--entity N6--><g id="elem_N6"><rect fill="#FFFEF5" height="75.8633" rx="6" ry="6" style="stroke:#444444;stroke-width:0.5;" width="112.6445" x="1035" y="143.7773"/><rect fill="#000000" height="3.5" style="stroke:#000000;stroke-width:0.0;" width="3.5" x="1054" y="162.3984"/><text fill="#000000" font-family="Segoe UI" font-size="14" lengthAdjust="spacing" textLength="76.6445" x="1061" y="168.8848">6. Validation</text><text fill="#000000" font-family="Segoe UI" font-size="14" lengthAdjust="spacing" textLength="72.6455" x="1045" y="187.5059">Extraction**</text><text fill="#000000" font-family="Segoe UI" font-size="14" lengthAdjust="spacing" textLength="48.7061" x="1045" y="206.127">Code JS</text></g><!--entity N7--><g id="elem_N7"><rect fill="#FFFEF5" height="57.2422" rx="6" ry="6" style="stroke:#444444;stroke-width:0.5;" width="138.2549" x="1208" y="97.2773"/><text fill="#000000" font-family="Segoe UI" font-size="14" font-weight="bold" lengthAdjust="spacing" textLength="118.2549" x="1218" y="122.3848">7. Pr&#233;parer Lignes</text><text fill="#000000" font-family="Segoe UI" font-size="14" lengthAdjust="spacing" textLength="48.7061" x="1218" y="141.0059">Code JS</text></g><!--entity N8--><g id="elem_N8"><rect fill="#FFFEF5" height="75.8633" rx="6" ry="6" style="stroke:#444444;stroke-width:0.5;" width="133.9209" x="1407" y="96.7773"/><rect fill="#000000" height="3.5" style="stroke:#000000;stroke-width:0.0;" width="3.5" x="1426" y="115.3984"/><text fill="#000000" font-family="Segoe UI" font-size="14" lengthAdjust="spacing" textLength="53.9697" x="1433" y="121.8848">8. Export</text><text fill="#000000" font-family="Segoe UI" font-size="14" lengthAdjust="spacing" textLength="95.2246" x="1417" y="140.5059">Google Sheet**</text><text fill="#000000" font-family="Segoe UI" font-size="14" lengthAdjust="spacing" textLength="113.9209" x="1417" y="159.127">Google Sheets API</text></g><!--entity N9--><g id="elem_N9"><rect fill="#FFFEF5" height="75.8633" rx="6" ry="6" style="stroke:#444444;stroke-width:0.5;" width="114.2646" x="1220" y="189.7773"/><rect fill="#000000" height="3.5" style="stroke:#000000;stroke-width:0.0;" width="3.5" x="1239" y="208.3984"/><text fill="#000000" font-family="Segoe UI" font-size="14" lengthAdjust="spacing" textLength="78.2646" x="1246" y="214.8848">9. Construire</text><text fill="#000000" font-family="Segoe UI" font-size="14" lengthAdjust="spacing" textLength="84.9912" x="1230" y="233.5059">Email HTML**</text><text fill="#000000" font-family="Segoe UI" font-size="14" lengthAdjust="spacing" textLength="48.7061" x="1230" y="252.127">Code JS</text></g><!--entity N10--><g id="elem_N10"><rect fill="#FFFEF5" height="57.2422" rx="6" ry="6" style="stroke:#444444;stroke-width:0.5;" width="136.1357" x="1406" y="208.2773"/><text fill="#000000" font-family="Segoe UI" font-size="14" font-weight="bold" lengthAdjust="spacing" textLength="116.1357" x="1416" y="233.3848">10. Envoyer Email</text><text fill="#000000" font-family="Segoe UI" font-size="14" lengthAdjust="spacing" textLength="83.0361" x="1416" y="252.0059">SMTP (Gmail)</text></g><!--entity N11--><g id="elem_N11"><rect fill="#FFFEF5" height="57.2422" rx="6" ry="6" style="stroke:#444444;stroke-width:0.5;" width="154.7705" x="1602" y="208.2773"/><text fill="#000000" font-family="Segoe UI" font-size="14" font-weight="bold" lengthAdjust="spacing" textLength="122.5957" x="1612" y="233.3848">11. R&#233;ponse Finale</text><text fill="#000000" font-family="Segoe UI" font-size="14" lengthAdjust="spacing" textLength="134.7705" x="1612" y="252.0059">Respond to Webhook</text></g><!--link N1 to N2--><g id="link_N1_N2"><path d="M196.12,181.7773 C216.09,181.7773 231,181.7773 249.81,181.7773 " fill="none" id="N1-to-N2" style="stroke:#444444;stroke-width:1.5;"/><polygon fill="#444444" points="255.81,181.7773,246.81,177.7773,250.81,181.7773,246.81,185.7773,255.81,181.7773" style="stroke:#444444;stroke-width:1.5;"/></g><!--link N2 to N3--><g id="link_N2_N3"><path d="M385.24,181.7773 C404.46,181.7773 419.55,181.7773 438.8,181.7773 " fill="none" id="N2-to-N3" style="stroke:#444444;stroke-width:1.5;"/><polygon fill="#444444" points="444.8,181.7773,435.8,177.7773,439.8,181.7773,435.8,185.7773,444.8,181.7773" style="stroke:#444444;stroke-width:1.5;"/></g><!--link N3 to N4--><g id="link_N3_N4"><path d="M575.04,181.7773 C594.58,181.7773 609.88,181.7773 628.81,181.7773 " fill="none" id="N3-to-N4" style="stroke:#444444;stroke-width:1.5;"/><polygon fill="#444444" points="634.81,181.7773,625.81,177.7773,629.81,181.7773,625.81,185.7773,634.81,181.7773" style="stroke:#444444;stroke-width:1.5;"/></g><!--link N4 to N5--><g id="link_N4_N5"><path d="M748.18,181.7773 C766.71,181.7773 781.76,181.7773 801.89,181.7773 " fill="none" id="N4-to-N5" style="stroke:#444444;stroke-width:1.5;"/><polygon fill="#444444" points="807.89,181.7773,798.89,177.7773,802.89,181.7773,798.89,185.7773,807.89,181.7773" style="stroke:#444444;stroke-width:1.5;"/></g><!--link N5 to N6--><g id="link_N5_N6"><path d="M975.04,181.7773 C995.2,181.7773 1010.3,181.7773 1028.86,181.7773 " fill="none" id="N5-to-N6" style="stroke:#444444;stroke-width:1.5;"/><polygon fill="#444444" points="1034.86,181.7773,1025.86,177.7773,1029.86,181.7773,1025.86,185.7773,1034.86,181.7773" style="stroke:#444444;stroke-width:1.5;"/></g><!--link N6 to N7--><g id="link_N6_N7"><path d="M1148.05,164.8273 C1166.94,159.0573 1182.5115,154.3094 1202.2615,148.2794 " fill="none" id="N6-to-N7" style="stroke:#444444;stroke-width:1.5;"/><polygon fill="#444444" points="1208,146.5273,1198.2242,145.3298,1203.2179,147.9874,1200.5603,152.9811,1208,146.5273" style="stroke:#444444;stroke-width:1.5;"/></g><!--link N6 to N9--><g id="link_N6_N9"><path d="M1148.05,195.7073 C1170.73,201.3873 1191.1099,206.4991 1213.8599,212.1991 " fill="none" id="N6-to-N9" style="stroke:#444444;stroke-width:1.5;"/><polygon fill="#444444" points="1219.68,213.6573,1211.922,207.5899,1214.8299,212.4422,1209.9777,215.3501,1219.68,213.6573" style="stroke:#444444;stroke-width:1.5;"/></g><!--link N7 to N8--><g id="link_N7_N8"><path d="M1346.2,128.9273 C1365.86,129.8373 1381.2764,130.5413 1400.8164,131.4413 " fill="none" id="N7-to-N8" style="stroke:#444444;stroke-width:1.5;"/><polygon fill="#444444" points="1406.81,131.7173,1398.0036,127.3075,1401.8153,131.4873,1397.6355,135.299,1406.81,131.7173" style="stroke:#444444;stroke-width:1.5;"/></g><!--link N9 to N10--><g id="link_N9_N10"><path d="M1334.14,230.3673 C1356.53,231.3973 1376.4964,232.3205 1399.8764,233.4005 " fill="none" id="N9-to-N10" style="stroke:#444444;stroke-width:1.5;"/><polygon fill="#444444" points="1405.87,233.6773,1397.0642,229.2663,1400.8753,233.4466,1396.695,237.2578,1405.87,233.6773" style="stroke:#444444;stroke-width:1.5;"/></g><!--link N10 to N11--><g id="link_N10_N11"><path d="M1542.2,236.7773 C1561.3,236.7773 1576.25,236.7773 1595.86,236.7773 " fill="none" id="N10-to-N11" style="stroke:#444444;stroke-width:1.5;"/><polygon fill="#444444" points="1601.86,236.7773,1592.86,232.7773,1596.86,236.7773,1592.86,240.7773,1601.86,236.7773" style="stroke:#444444;stroke-width:1.5;"/></g><!--SRC=[pPRlJjim4C2_vobEHTeA4XNvLzfzcDIr3MEZKKMxeKbySHFJUZLsv2H0GPDuX_4GOwzHxKLuajbneVdJ3_imsA9KlVZik_FlpfSa9A4OJhYOdr5-2Qp5uE7s3aR3pl77Br0tJM2_lgTXl6qOh-7XxbRVS8GMF4rWnWMvvYn1TArxuTkW-2o1X8CWqra28H4uI0XdnNW79CQ06KHeYg7ZoFz5hCGNYZ6U4nOXWSuXZ0Yqcxa15T40YIbXa1_kuJEKqiIJS7rqZg4smbEEuTDXRVEa4Rd6O3evvLXbzabbMHjLoK9cVy9fMCJLvId5gOZ_MLR_3EO41VEfu2aBkvno0LjUTkLcT8JWbokbarrbvNX6WZd3SGncmoqhrsHj8wTJ9OROLAAxCG3UROYYxxbAmqM8HT4zG3vTgwSi3H55XCcHOsrAC2p0jEJ048KXOLDe6T-CGkK4SrN3DsLFhUnw6YtkCE-_MV2VbO4UM1cokdRVtLDUyyKnd25vc4nu0yVB-m17whH1VI8BPljvwyLut77jCGJLgjP1r62hr-ntl5Q6P9sasiwEsSW7s-D1UevPihDpoaxmPCRvl0Oe1jyihxCQy1bH4g9i7KvEMMzvd-WE0-D5X9M9BWynV1Xf4zPcN9R4rQKeZiaP2RIr-bUKClnNcPK9MHcXebz9oUjwTjUhKh8Rih5FCAKapgQUChN50gx2Nkso0IUFIqukEAuiTpQZiYMg_bKYaAPSZvO_Wnb-jjegCxCpPki05AzEt-tPLLvk0xg81Yc5CLVlm5UdR23B0uMSiUKzZc70m-KFMYqIjsofMGItzbvPsjmCpP7GUYHE19ca6ji55idpG2iJSp9YUU_g9BgUsz_0RBy1Gx6yborCjhSZCfMDgRB7_VAYLaCc9E92dhy3pjNWQ8PnLf3vvnWwmqDjebKsqPQvuao6cCel14du714AxyU3euhtTgLvx4dtx88lPCJPEhLaD1WFeNwW7hTNpMElib2tdKZwnU0HXdGf7EDO3eNgewNOVSnoRcN435z9eF_PczZmJTZTVQkwdMzfoJPyMqkEuJjQSWtVrLBJy9jQsd-IseQ_hwMMuRUr91dAtqesZTy0]--></g></svg>