<svg xmlns="http://www.w3.org/2000/svg" xmlns:xlink="http://www.w3.org/1999/xlink" contentStyleType="text/css" height="690px" preserveAspectRatio="none" style="width:378px;height:690px;background:#FFFFFF;" version="1.1" viewBox="0 0 378 690" width="378px" zoomAndPan="magnify"><title>Pipeline d'extraction IA en cascade</title><defs/><g><text fill="#000000" font-family="sans-serif" font-size="14" font-weight="bold" lengthAdjust="spacing" textLength="233.6387" x="70.9883" y="34.5332">Pipeline d'extraction IA en cascade</text><ellipse cx="105.2256" cy="58.6094" fill="#222222" rx="10" ry="10" style="stroke:#222222;stroke-width:1.0;"/><path d="M177.5713,81.0313 L177.5713,109.7031 L157.5713,113.7031 L177.5713,117.7031 L177.5713,146.375 A0,0 0 0 0 177.5713,146.375 L295.498,146.375 A0,0 0 0 0 295.498,146.375 L295.498,91.0313 L285.498,81.0313 L177.5713,81.0313 A0,0 0 0 0 177.5713,81.0313 " fill="#FFF8DC" style="stroke:#C9A227;stroke-width:0.5;"/><path d="M285.498,81.0313 L285.498,91.0313 L295.498,91.0313 L285.498,81.0313 " fill="#FFF8DC" style="stroke:#C9A227;stroke-width:0.5;"/><text fill="#000000" font-family="sans-serif" font-size="11" lengthAdjust="spacing" textLength="70.9199" x="183.5713" y="97.4502">Entr&#233;e : fichier</text><text fill="#000000" font-family="sans-serif" font-size="11" lengthAdjust="spacing" textLength="96.9268" x="183.5713" y="111.2861">+ type de document</text><text fill="#000000" font-family="sans-serif" font-size="11" lengthAdjust="spacing" textLength="91.7061" x="183.5713" y="125.1221">(facture, devis, BL,</text><text fill="#000000" font-family="sans-serif" font-size="11" lengthAdjust="spacing" textLength="48.8984" x="186.6274" y="138.958">BC, avoir)</text><rect fill="#FFFFFF" height="50.1875" rx="4" ry="4" style="stroke:#1F2A44;stroke-width:0.5;" width="104.6914" x="52.8799" y="88.6094"/><text fill="#000000" font-family="sans-serif" font-size="12" lengthAdjust="spacing" textLength="81.3691" x="62.8799" y="111.0664">Document re&#231;u</text><text fill="#000000" font-family="sans-serif" font-size="12" lengthAdjust="spacing" textLength="84.6914" x="62.8799" y="126.1602">(PDF ou image)</text><path d="M209.2559,158.7969 L209.2559,187.4688 L189.2559,191.4688 L209.2559,195.4688 L209.2559,224.1406 A0,0 0 0 0 209.2559,224.1406 L345.8364,224.1406 A0,0 0 0 0 345.8364,224.1406 L345.8364,168.7969 L335.8364,158.7969 L209.2559,158.7969 A0,0 0 0 0 209.2559,158.7969 " fill="#FFF8DC" style="stroke:#C9A227;stroke-width:0.5;"/><path d="M335.8364,158.7969 L335.8364,168.7969 L345.8364,168.7969 L335.8364,158.7969 " fill="#FFF8DC" style="stroke:#C9A227;stroke-width:0.5;"/><text fill="#000000" font-family="sans-serif" font-size="11" lengthAdjust="spacing" textLength="58.3462" x="215.2559" y="175.2158">Service d'IA</text><text fill="#000000" font-family="sans-serif" font-size="11" lengthAdjust="spacing" textLength="88.6606" x="215.2559" y="189.0518">qui lit le document</text><text fill="#000000" font-family="sans-serif" font-size="11" lengthAdjust="spacing" textLength="115.5806" x="215.2559" y="202.8877">et retourne les donn&#233;es</text><text fill="#000000" font-family="sans-serif" font-size="11" lengthAdjust="spacing" textLength="92.313" x="215.2559" y="216.7236">au format structur&#233;</text><rect fill="#FFFFFF" height="50.1875" rx="4" ry="4" style="stroke:#1F2A44;stroke-width:0.5;" width="168.0605" x="21.1953" y="166.375"/><text fill="#000000" font-family="sans-serif" font-size="12" font-weight="bold" lengthAdjust="spacing" textLength="115.7402" x="31.1953" y="188.832">&#201;tape 1 &#8212; Mistral AI</text><text fill="#000000" font-family="sans-serif" font-size="12" lengthAdjust="spacing" textLength="148.0605" x="31.1953" y="203.9258">(OCR et lecture intelligente)</text><rect fill="#FFFFFF" height="50.1875" rx="4" ry="4" style="stroke:#1F2A44;stroke-width:0.5;" width="116.709" x="46.8711" y="296.7305"/><text fill="#000000" font-family="sans-serif" font-size="12" lengthAdjust="spacing" textLength="58.6934" x="56.8711" y="319.1875">R&#233;sultat IA</text><text fill="#000000" font-family="sans-serif" font-size="12" lengthAdjust="spacing" textLength="96.709" x="56.8711" y="334.2813">utilis&#233; directement</text><ellipse cx="105.2256" cy="377.918" fill="none" rx="11" ry="11" style="stroke:#222222;stroke-width:1.0;"/><ellipse cx="105.2256" cy="377.918" fill="#222222" rx="6" ry="6" style="stroke:#222222;stroke-width:1.0;"/><polygon fill="#F8F8F8" points="60.8953,244.1406,149.5559,244.1406,161.5559,257.9766,149.5559,271.8125,60.8953,271.8125,48.8953,257.9766,60.8953,244.1406" style="stroke:#1F2A44;stroke-width:0.5;"/><text fill="#000000" font-family="sans-serif" font-size="11" lengthAdjust="spacing" textLength="14.6792" x="109.2256" y="283.2314">oui</text><text fill="#000000" font-family="sans-serif" font-size="11" lengthAdjust="spacing" textLength="88.6606" x="60.8953" y="255.5596">Donn&#233;es extraites</text><text fill="#000000" font-family="sans-serif" font-size="11" lengthAdjust="spacing" textLength="69.7007" x="60.8953" y="269.3955">avec succ&#232;s ?</text><text fill="#000000" font-family="sans-serif" font-size="11" lengthAdjust="spacing" textLength="18.353" x="161.5559" y="255.5596">non</text><path d="M216.5801,452.2695 L216.5801,467.1055 L196.5801,471.1055 L216.5801,475.1055 L216.5801,489.9414 A0,0 0 0 0 216.5801,489.9414 L366.6152,489.9414 A0,0 0 0 0 366.6152,489.9414 L366.6152,462.2695 L356.6152,452.2695 L216.5801,452.2695 A0,0 0 0 0 216.5801,452.2695 " fill="#FFF8DC" style="stroke:#C9A227;stroke-width:0.5;"/><path d="M356.6152,452.2695 L356.6152,462.2695 L366.6152,462.2695 L356.6152,452.2695 " fill="#FFF8DC" style="stroke:#C9A227;stroke-width:0.5;"/><text fill="#000000" font-family="sans-serif" font-size="11" lengthAdjust="spacing" textLength="113.1152" x="222.5801" y="468.6885">Extraction du texte brut</text><text fill="#000000" font-family="sans-serif" font-size="11" lengthAdjust="spacing" textLength="129.0352" x="222.5801" y="482.5244">contenu dans le document</text><rect fill="#FFFFFF" height="80.375" rx="4" ry="4" style="stroke:#1F2A44;stroke-width:0.5;" width="182.709" x="13.8711" y="430.918"/><text fill="#000000" font-family="sans-serif" font-size="12" font-weight="bold" lengthAdjust="spacing" textLength="154.418" x="23.8711" y="453.375">&#201;tape 2 &#8212; Lecture du texte</text><text fill="#000000" font-family="sans-serif" font-size="12" lengthAdjust="spacing" textLength="118.7168" x="23.8711" y="468.4688">(pdfplumber pour PDF</text><text fill="#000000" font-family="sans-serif" font-size="12" lengthAdjust="spacing" textLength="162.709" x="23.8711" y="483.5625">ou OCR Tesseract / EasyOCR</text><text fill="#000000" font-family="sans-serif" font-size="12" lengthAdjust="spacing" textLength="88.7051" x="23.8711" y="498.6563">pour les images)</text><path d="M219.4512,530.6328 L219.4512,552.3867 L199.4512,556.3867 L219.4512,560.3867 L219.4512,582.1406 A0,0 0 0 0 219.4512,582.1406 L365.7964,582.1406 A0,0 0 0 0 365.7964,582.1406 L365.7964,540.6328 L355.7964,530.6328 L219.4512,530.6328 A0,0 0 0 0 219.4512,530.6328 " fill="#FFF8DC" style="stroke:#C9A227;stroke-width:0.5;"/><path d="M355.7964,530.6328 L355.7964,540.6328 L365.7964,540.6328 L355.7964,530.6328 " fill="#FFF8DC" style="stroke:#C9A227;stroke-width:0.5;"/><text fill="#000000" font-family="sans-serif" font-size="11" lengthAdjust="spacing" textLength="125.3452" x="225.4512" y="547.0518">Recherche des montants,</text><text fill="#000000" font-family="sans-serif" font-size="11" lengthAdjust="spacing" textLength="103.3452" x="225.4512" y="560.8877">des dates, des lignes</text><text fill="#000000" font-family="sans-serif" font-size="11" lengthAdjust="spacing" textLength="108.4907" x="225.4512" y="574.7236">d'articles dans le texte</text><rect fill="#FFFFFF" height="50.1875" rx="4" ry="4" style="stroke:#1F2A44;stroke-width:0.5;" width="188.4512" x="11" y="531.293"/><text fill="#000000" font-family="sans-serif" font-size="12" font-weight="bold" lengthAdjust="spacing" textLength="168.4512" x="21" y="553.75">&#201;tape 3 &#8212; Analyse par r&#232;gles</text><text fill="#000000" font-family="sans-serif" font-size="12" lengthAdjust="spacing" textLength="128.0508" x="21" y="568.8438">(expressions r&#233;guli&#232;res)</text><rect fill="#FFFFFF" height="35.0938" rx="4" ry="4" style="stroke:#1F2A44;stroke-width:0.5;" width="116.7207" x="46.8652" y="602.1406"/><text fill="#000000" font-family="sans-serif" font-size="12" lengthAdjust="spacing" textLength="96.7207" x="56.8652" y="624.5977">Donn&#233;es extraites</text><ellipse cx="105.2256" cy="668.2344" fill="none" rx="11" ry="11" style="stroke:#222222;stroke-width:1.0;"/><ellipse cx="105.2256" cy="668.2344" fill="#222222" rx="6" ry="6" style="stroke:#222222;stroke-width:1.0;"/><line style="stroke:#444444;stroke-width:1.0;" x1="105.2256" x2="105.2256" y1="68.6094" y2="88.6094"/><polygon fill="#444444" points="101.2256,78.6094,105.2256,88.6094,109.2256,78.6094,105.2256,82.6094" style="stroke:#444444;stroke-width:1.0;"/><line style="stroke:#444444;stroke-width:1.0;" x1="105.2256" x2="105.2256" y1="138.7969" y2="166.375"/><polygon fill="#444444" points="101.2256,156.375,105.2256,166.375,109.2256,156.375,105.2256,160.375" style="stroke:#444444;stroke-width:1.0;"/><line style="stroke:#444444;stroke-width:1.0;" x1="105.2256" x2="105.2256" y1="346.918" y2="366.918"/><polygon fill="#444444" points="101.2256,356.918,105.2256,366.918,109.2256,356.918,105.2256,360.918" style="stroke:#444444;stroke-width:1.0;"/><line style="stroke:#444444;stroke-width:1.0;" x1="105.2256" x2="105.2256" y1="271.8125" y2="296.7305"/><polygon fill="#444444" points="101.2256,286.7305,105.2256,296.7305,109.2256,286.7305,105.2256,290.7305" style="stroke:#444444;stroke-width:1.0;"/><line style="stroke:#444444;stroke-width:1.0;" x1="161.5559" x2="173.5801" y1="257.9766" y2="257.9766"/><polygon fill="#444444" points="169.5801,336.4063,173.5801,346.4063,177.5801,336.4063,173.5801,340.4063" style="stroke:#444444;stroke-width:1.0;"/><line style="stroke:#444444;stroke-width:1.0;" x1="173.5801" x2="173.5801" y1="257.9766" y2="410.918"/><line style="stroke:#444444;stroke-width:1.0;" x1="173.5801" x2="105.2256" y1="410.918" y2="410.918"/><line style="stroke:#444444;stroke-width:1.0;" x1="105.2256" x2="105.2256" y1="410.918" y2="430.918"/><polygon fill="#444444" points="101.2256,420.918,105.2256,430.918,109.2256,420.918,105.2256,424.918" style="stroke:#444444;stroke-width:1.0;"/><line style="stroke:#444444;stroke-width:1.0;" x1="105.2256" x2="105.2256" y1="216.5625" y2="244.1406"/><polygon fill="#444444" points="101.2256,234.1406,105.2256,244.1406,109.2256,234.1406,105.2256,238.1406" style="stroke:#444444;stroke-width:1.0;"/><line style="stroke:#444444;stroke-width:1.0;" x1="105.2256" x2="105.2256" y1="511.293" y2="531.293"/><polygon fill="#444444" points="101.2256,521.293,105.2256,531.293,109.2256,521.293,105.2256,525.293" style="stroke:#444444;stroke-width:1.0;"/><line style="stroke:#444444;stroke-width:1.0;" x1="105.2256" x2="105.2256" y1="581.4805" y2="602.1406"/><polygon fill="#444444" points="101.2256,592.1406,105.2256,602.1406,109.2256,592.1406,105.2256,596.1406" style="stroke:#444444;stroke-width:1.0;"/><line style="stroke:#444444;stroke-width:1.0;" x1="105.2256" x2="105.2256" y1="637.2344" y2="657.2344"/><polygon fill="#444444" points="101.2256,647.2344,105.2256,657.2344,109.2256,647.2344,105.2256,651.2344" style="stroke:#444444;stroke-width:1.0;"/><!--SRC=[fLFDQjj04BxhAGPwy4zTYjr0quHI53i6qvOQfvU2BnjfP0zPxIhxuyGzzTfxtw7nS-XD-YITNLIYnAO48jjWpNuxtpVVp7JW_JEUf0CNytJnyHkyWZbLA4aXv1syTKPaZhI2MGge81Cs4pa6kDjA1C5lzQwaQuzWgQma5LJleDBUW15LfOs3-VISySzIPwz8LSA84knQvFg6r0eA8IssJepsAXzhez30SIkUiluDkUsPoAvM3KXg0o-cyJc4r2P7qw26qr5wT7G0DTNANT1tXE7emEc4HAbLlazw73x_kV0axWPyBs7O1XcZRveCHm-kA-tma0t7a_5ZL5l6-5qw6hrzX6Xp9uuS3yDJ1YUnJXYN92SJdVaIbGE3zM-_LDtvP0hQ0vLYXRtJ90aaO6YrTWd0kNActY6SG47Pcj1mx2MuRSLa_6roSR1RCAqtEE3uXkm0pZuDE0ndum68ZIRJIr3biG8MqU_NFvtW94Fuy-CNV2RBiYMaitwV5NqPBm0TI8mPWPH3AMd5HFi2Bz1iA0kbpr9-lVO4aiBTjZWCrJhU3VP8ekKZfRWgoqV2Gw5DAHom11y8wrrBAHNGdJHeYEQIGxjKOeCPM9zbzPs53prmQ_QwgptrEEV9ejvPBnqddQLBvHr9ihoTEHak2OEeKuPPfwi4UPcWgxIA_b3HDcSKpVdKs91xSAm0eqLLNbJIbvUySt7dkObBnLqCrdr5Qp5C0Ro6Ss6t75kgY0grnpxR_KRV3yu_8hWqFXnbF76eFEH2sGV67checwWvLK9kkJ0UMp3rtOg9esoyhGohOnRByTtAIwhlp04v2ypMQFZ7usI1Tyu9vMoOgF2U2sx28FxbkL2naNc7vvkosDv6QAoYhNA_awTXCRWDVm40]--></g></svg>