<svg xmlns="http://www.w3.org/2000/svg" xmlns:xlink="http://www.w3.org/1999/xlink" contentStyleType="text/css" height="1004px" preserveAspectRatio="none" style="width:676px;height:1004px;background:#FFFFFF;" version="1.1" viewBox="0 0 676 1004" width="676px" zoomAndPan="magnify"><title>Diagramme de s&#233;quence &#8212; Comparaison de prix entre fournisseurs</title><defs/><g><text fill="#000000" font-family="sans-serif" font-size="14" font-weight="bold" lengthAdjust="spacing" textLength="453.2432" x="107.5249" y="29.5332">Diagramme de s&#233;quence &#8212; Comparaison de prix entre fournisseurs</text><rect fill="#FFFFFF" height="321.2188" style="stroke:#999999;stroke-width:1.0;" width="10" x="415.2705" y="434.0547"/><rect fill="#FFFFFF" height="46.7031" style="stroke:#999999;stroke-width:1.0;" width="10" x="595.2412" y="525.1094"/><line style="stroke:#999999;stroke-width:0.5;stroke-dasharray:5.0,5.0;" x1="57" x2="57" y1="119.9609" y2="924.0313"/><line style="stroke:#999999;stroke-width:0.5;stroke-dasharray:5.0,5.0;" x1="210.6147" x2="210.6147" y1="119.9609" y2="924.0313"/><line style="stroke:#999999;stroke-width:0.5;stroke-dasharray:5.0,5.0;" x1="420.2656" x2="420.2656" y1="119.9609" y2="924.0313"/><line style="stroke:#999999;stroke-width:0.5;stroke-dasharray:5.0,5.0;" x1="599.5703" x2="599.5703" y1="119.9609" y2="924.0313"/><text fill="#000000" font-family="sans-serif" font-size="13" font-weight="bold" lengthAdjust="spacing" textLength="92.46" x="8" y="117.1045">Administrateur</text><ellipse cx="57.23" cy="52.1094" fill="#FFFFFF" rx="8" ry="8" style="stroke:#1F2A44;stroke-width:0.5;"/><path d="M57.23,60.1094 L57.23,87.1094 M44.23,68.1094 L70.23,68.1094 M57.23,87.1094 L44.23,102.1094 M57.23,87.1094 L70.23,102.1094 " fill="none" style="stroke:#1F2A44;stroke-width:0.5;"/><text fill="#000000" font-family="sans-serif" font-size="13" font-weight="bold" lengthAdjust="spacing" textLength="92.46" x="8" y="936.5264">Administrateur</text><ellipse cx="57.23" cy="947.8828" fill="#FFFFFF" rx="8" ry="8" style="stroke:#1F2A44;stroke-width:0.5;"/><path d="M57.23,955.8828 L57.23,982.8828 M44.23,963.8828 L70.23,963.8828 M57.23,982.8828 L44.23,997.8828 M57.23,982.8828 L70.23,997.8828 " fill="none" style="stroke:#1F2A44;stroke-width:0.5;"/><rect fill="#FFFFFF" height="44.1875" rx="3" ry="3" style="stroke:#1F2A44;stroke-width:0.5;" width="79.332" x="171.6147" y="74.7734"/><text fill="#000000" font-family="sans-serif" font-size="12" font-weight="bold" lengthAdjust="spacing" textLength="65.332" x="178.6147" y="94.2305">Application</text><text fill="#000000" font-family="sans-serif" font-size="12" font-weight="bold" lengthAdjust="spacing" textLength="25.3301" x="198.6157" y="109.3242">Web</text><rect fill="#FFFFFF" height="44.1875" rx="3" ry="3" style="stroke:#1F2A44;stroke-width:0.5;" width="79.332" x="171.6147" y="923.0313"/><text fill="#000000" font-family="sans-serif" font-size="12" font-weight="bold" lengthAdjust="spacing" textLength="65.332" x="178.6147" y="942.4883">Application</text><text fill="#000000" font-family="sans-serif" font-size="12" font-weight="bold" lengthAdjust="spacing" textLength="25.3301" x="198.6157" y="957.582">Web</text><rect fill="#FFFFFF" height="44.1875" rx="3" ry="3" style="stroke:#1F2A44;stroke-width:0.5;" width="64.0098" x="388.2656" y="74.7734"/><text fill="#000000" font-family="sans-serif" font-size="12" font-weight="bold" lengthAdjust="spacing" textLength="44.6953" x="397.9229" y="94.2305">Serveur</text><text fill="#000000" font-family="sans-serif" font-size="12" font-weight="bold" lengthAdjust="spacing" textLength="50.0098" x="395.2656" y="109.3242">SPARKY</text><rect fill="#FFFFFF" height="44.1875" rx="3" ry="3" style="stroke:#1F2A44;stroke-width:0.5;" width="64.0098" x="388.2656" y="923.0313"/><text fill="#000000" font-family="sans-serif" font-size="12" font-weight="bold" lengthAdjust="spacing" textLength="44.6953" x="397.9229" y="942.4883">Serveur</text><text fill="#000000" font-family="sans-serif" font-size="12" font-weight="bold" lengthAdjust="spacing" textLength="50.0098" x="395.2656" y="957.582">SPARKY</text><rect fill="#FFFFFF" height="44.1875" rx="3" ry="3" style="stroke:#1F2A44;stroke-width:0.5;" width="63.3418" x="568.5703" y="74.7734"/><text fill="#000000" font-family="sans-serif" font-size="12" font-weight="bold" lengthAdjust="spacing" textLength="46.0254" x="577.2285" y="94.2305">Base de</text><text fill="#000000" font-family="sans-serif" font-size="12" font-weight="bold" lengthAdjust="spacing" textLength="49.3418" x="575.5703" y="109.3242">donn&#233;es</text><rect fill="#FFFFFF" height="44.1875" rx="3" ry="3" style="stroke:#1F2A44;stroke-width:0.5;" width="63.3418" x="568.5703" y="923.0313"/><text fill="#000000" font-family="sans-serif" font-size="12" font-weight="bold" lengthAdjust="spacing" textLength="46.0254" x="577.2285" y="942.4883">Base de</text><text fill="#000000" font-family="sans-serif" font-size="12" font-weight="bold" lengthAdjust="spacing" textLength="49.3418" x="575.5703" y="957.582">donn&#233;es</text><rect fill="#FFFFFF" height="321.2188" style="stroke:#999999;stroke-width:1.0;" width="10" x="415.2705" y="434.0547"/><rect fill="#FFFFFF" height="46.7031" style="stroke:#999999;stroke-width:1.0;" width="10" x="595.2412" y="525.1094"/><path d="M5,137.9609 L5,168.9609 A3,3 0 0 0 8,171.9609 L107,171.9609 A3,3 0 0 0 110,168.9609 L110,144.9609 L100,134.9609 L8,134.9609 A3,3 0 0 0 5,137.9609 " fill="#FFF8DC" style="stroke:#C9A227;stroke-width:0.5;"/><path d="M100,134.9609 L100,143.4609 A1.5,1.5 0 0 0 101.5,144.9609 L110,144.9609 L100,134.9609 " fill="#FFF8DC" style="stroke:#C9A227;stroke-width:0.5;"/><text fill="#000000" font-family="sans-serif" font-size="11" lengthAdjust="spacing" textLength="84.9922" x="11" y="151.3799">Utilisateur unique</text><text fill="#000000" font-family="sans-serif" font-size="11" lengthAdjust="spacing" textLength="56.2461" x="11" y="165.2158">du syst&#232;me</text><path d="M179,185.6328 L179,216.6328 A3,3 0 0 0 182,219.6328 L239,219.6328 A3,3 0 0 0 242,216.6328 L242,192.6328 L232,182.6328 L182,182.6328 A3,3 0 0 0 179,185.6328 " fill="#FFF8DC" style="stroke:#C9A227;stroke-width:0.5;"/><path d="M232,182.6328 L232,191.1328 A1.5,1.5 0 0 0 233.5,192.6328 L242,192.6328 L232,182.6328 " fill="#FFF8DC" style="stroke:#C9A227;stroke-width:0.5;"/><text fill="#000000" font-family="sans-serif" font-size="11" lengthAdjust="spacing" textLength="42.8022" x="185" y="199.0518">Interface</text><text fill="#000000" font-family="sans-serif" font-size="11" lengthAdjust="spacing" textLength="37.9146" x="185" y="212.8877">Angular</text><path d="M367,233.3047 L367,264.3047 A3,3 0 0 0 370,267.3047 L469,267.3047 A3,3 0 0 0 472,264.3047 L472,240.3047 L462,230.3047 L370,230.3047 A3,3 0 0 0 367,233.3047 " fill="#FFF8DC" style="stroke:#C9A227;stroke-width:0.5;"/><path d="M462,230.3047 L462,238.8047 A1.5,1.5 0 0 0 463.5,240.3047 L472,240.3047 L462,230.3047 " fill="#FFF8DC" style="stroke:#C9A227;stroke-width:0.5;"/><text fill="#000000" font-family="sans-serif" font-size="11" lengthAdjust="spacing" textLength="84.9868" x="373" y="246.7236">Backend FastAPI</text><text fill="#000000" font-family="sans-serif" font-size="11" lengthAdjust="spacing" textLength="41.5723" x="373" y="260.5596">(Python)</text><path d="M536,280.9766 L536,311.9766 A3,3 0 0 0 539,314.9766 L661,314.9766 A3,3 0 0 0 664,311.9766 L664,287.9766 L654,277.9766 L539,277.9766 A3,3 0 0 0 536,280.9766 " fill="#FFF8DC" style="stroke:#C9A227;stroke-width:0.5;"/><path d="M654,277.9766 L654,286.4766 A1.5,1.5 0 0 0 655.5,287.9766 L664,287.9766 L654,277.9766 " fill="#FFF8DC" style="stroke:#C9A227;stroke-width:0.5;"/><text fill="#000000" font-family="sans-serif" font-size="11" lengthAdjust="spacing" textLength="66.0322" x="542" y="294.3955">PostgreSQL :</text><text fill="#000000" font-family="sans-serif" font-size="11" lengthAdjust="spacing" textLength="107.293" x="542" y="308.2314">articles + fournisseurs</text><rect fill="#EEEEEE" height="3" rx="3" ry="3" style="stroke:#EEEEEE;stroke-width:1.0;" width="669.293" x="0" y="341.8242"/><line style="stroke:#000000;stroke-width:1.0;" x1="0" x2="669.293" y1="341.8242" y2="341.8242"/><line style="stroke:#000000;stroke-width:1.0;" x1="0" x2="669.293" y1="344.8242" y2="344.8242"/><rect fill="#EEEEEE" height="24.3516" rx="3" ry="3" style="stroke:#000000;stroke-width:2.0;" width="226.4307" x="221.4312" y="330.6484"/><text fill="#000000" font-family="sans-serif" font-size="13" font-weight="bold" lengthAdjust="spacing" textLength="208.8188" x="227.4312" y="348.1436">1. S&#233;lection des devis &#224; comparer</text><polygon fill="#444444" points="199.2808,399.7031,209.2808,403.7031,199.2808,407.7031,203.2808,403.7031" style="stroke:#444444;stroke-width:1.0;"/><line style="stroke:#444444;stroke-width:1.2;" x1="57.23" x2="205.2808" y1="403.7031" y2="403.7031"/><text fill="#000000" font-family="sans-serif" font-size="13" lengthAdjust="spacing" textLength="130.0508" x="64.23" y="382.4951">Choisir plusieurs devis</text><text fill="#000000" font-family="sans-serif" font-size="13" lengthAdjust="spacing" textLength="85.2681" x="64.23" y="398.8467">(d&#233;j&#224; scann&#233;s)</text><polygon fill="#444444" points="403.2705,430.0547,413.2705,434.0547,403.2705,438.0547,407.2705,434.0547" style="stroke:#444444;stroke-width:1.0;"/><line style="stroke:#444444;stroke-width:1.2;" x1="211.2808" x2="409.2705" y1="434.0547" y2="434.0547"/><text fill="#000000" font-family="sans-serif" font-size="13" lengthAdjust="spacing" textLength="184.9897" x="218.2808" y="429.1982">Demander le tableau comparatif</text><rect fill="#EEEEEE" height="3" rx="3" ry="3" style="stroke:#EEEEEE;stroke-width:1.0;" width="669.293" x="0" y="463.2305"/><line style="stroke:#000000;stroke-width:1.0;" x1="0" x2="669.293" y1="463.2305" y2="463.2305"/><line style="stroke:#000000;stroke-width:1.0;" x1="0" x2="669.293" y1="466.2305" y2="466.2305"/><rect fill="#EEEEEE" height="24.3516" rx="3" ry="3" style="stroke:#000000;stroke-width:2.0;" width="198.2153" x="235.5388" y="452.0547"/><text fill="#000000" font-family="sans-serif" font-size="13" font-weight="bold" lengthAdjust="spacing" textLength="180.6035" x="241.5388" y="469.5498">2. R&#233;cup&#233;ration des donn&#233;es</text><polygon fill="#444444" points="583.2412,521.1094,593.2412,525.1094,583.2412,529.1094,587.2412,525.1094" style="stroke:#444444;stroke-width:1.0;"/><line style="stroke:#444444;stroke-width:1.2;" x1="425.2705" x2="589.2412" y1="525.1094" y2="525.1094"/><text fill="#000000" font-family="sans-serif" font-size="13" lengthAdjust="spacing" textLength="101.1499" x="432.2705" y="503.9014">Lire les articles et</text><text fill="#000000" font-family="sans-serif" font-size="13" lengthAdjust="spacing" textLength="131.498" x="432.2705" y="520.2529">les prix par fournisseur</text><polygon fill="#444444" points="436.2705,567.8125,426.2705,571.8125,436.2705,575.8125,432.2705,571.8125" style="stroke:#444444;stroke-width:1.0;"/><line style="stroke:#444444;stroke-width:1.2;stroke-dasharray:2.0,2.0;" x1="430.2705" x2="599.2412" y1="571.8125" y2="571.8125"/><text fill="#000000" font-family="sans-serif" font-size="13" lengthAdjust="spacing" textLength="96.8208" x="442.2705" y="550.6045">Liste des articles</text><text fill="#000000" font-family="sans-serif" font-size="13" lengthAdjust="spacing" textLength="59.9727" x="442.2705" y="566.9561">et des prix</text><rect fill="#EEEEEE" height="3" rx="3" ry="3" style="stroke:#EEEEEE;stroke-width:1.0;" width="669.293" x="0" y="600.9883"/><line style="stroke:#000000;stroke-width:1.0;" x1="0" x2="669.293" y1="600.9883" y2="600.9883"/><line style="stroke:#000000;stroke-width:1.0;" x1="0" x2="669.293" y1="603.9883" y2="603.9883"/><rect fill="#EEEEEE" height="24.3516" rx="3" ry="3" style="stroke:#000000;stroke-width:2.0;" width="171.4917" x="248.9006" y="589.8125"/><text fill="#000000" font-family="sans-serif" font-size="13" font-weight="bold" lengthAdjust="spacing" textLength="153.8799" x="254.9006" y="607.3076">3. Calcul du meilleur prix</text><line style="stroke:#444444;stroke-width:1.2;" x1="425.2705" x2="467.2705" y1="711.9219" y2="711.9219"/><line style="stroke:#444444;stroke-width:1.2;" x1="467.2705" x2="467.2705" y1="711.9219" y2="724.9219"/><line style="stroke:#444444;stroke-width:1.2;" x1="426.2705" x2="467.2705" y1="724.9219" y2="724.9219"/><polygon fill="#444444" points="436.2705,720.9219,426.2705,724.9219,436.2705,728.9219,432.2705,724.9219" style="stroke:#444444;stroke-width:1.0;"/><text fill="#000000" font-family="sans-serif" font-size="13" lengthAdjust="spacing" textLength="119.2344" x="432.2705" y="641.6592">Pour chaque article :</text><text fill="#000000" font-family="sans-serif" font-size="13" lengthAdjust="spacing" textLength="145.5518" x="432.2705" y="658.0107">- meilleur prix = minimum</text><text fill="#000000" font-family="sans-serif" font-size="13" lengthAdjust="spacing" textLength="130.8062" x="432.2705" y="674.3623">- &#233;cart en pourcentage</text><text fill="#000000" font-family="sans-serif" font-size="13" lengthAdjust="spacing" textLength="145.9707" x="432.2705" y="690.7139">- rep&#233;rage du fournisseur</text><text fill="#000000" font-family="sans-serif" font-size="13" lengthAdjust="spacing" textLength="77.3081" x="439.4941" y="707.0654">le moins cher</text><polygon fill="#444444" points="222.2808,751.2734,212.2808,755.2734,222.2808,759.2734,218.2808,755.2734" style="stroke:#444444;stroke-width:1.0;"/><line style="stroke:#444444;stroke-width:1.2;stroke-dasharray:2.0,2.0;" x1="216.2808" x2="419.2705" y1="755.2734" y2="755.2734"/><text fill="#000000" font-family="sans-serif" font-size="13" lengthAdjust="spacing" textLength="111.2808" x="228.2808" y="750.417">Tableau comparatif</text><rect fill="#EEEEEE" height="3" rx="3" ry="3" style="stroke:#EEEEEE;stroke-width:1.0;" width="669.293" x="0" y="784.4492"/><line style="stroke:#000000;stroke-width:1.0;" x1="0" x2="669.293" y1="784.4492" y2="784.4492"/><line style="stroke:#000000;stroke-width:1.0;" x1="0" x2="669.293" y1="787.4492" y2="787.4492"/><rect fill="#EEEEEE" height="24.3516" rx="3" ry="3" style="stroke:#000000;stroke-width:2.0;" width="161.3608" x="253.9661" y="773.2734"/><text fill="#000000" font-family="sans-serif" font-size="13" font-weight="bold" lengthAdjust="spacing" textLength="143.749" x="259.9661" y="790.7686">4. Affichage du r&#233;sultat</text><line style="stroke:#444444;stroke-width:1.2;" x1="211.2808" x2="253.2808" y1="846.3281" y2="846.3281"/><line style="stroke:#444444;stroke-width:1.2;" x1="253.2808" x2="253.2808" y1="846.3281" y2="859.3281"/><line style="stroke:#444444;stroke-width:1.2;" x1="212.2808" x2="253.2808" y1="859.3281" y2="859.3281"/><polygon fill="#444444" points="222.2808,855.3281,212.2808,859.3281,222.2808,863.3281,218.2808,859.3281" style="stroke:#444444;stroke-width:1.0;"/><text fill="#000000" font-family="sans-serif" font-size="13" lengthAdjust="spacing" textLength="122.1162" x="218.2808" y="825.1201">Regrouper par article</text><text fill="#000000" font-family="sans-serif" font-size="13" lengthAdjust="spacing" textLength="101.1626" x="218.2808" y="841.4717">et par fournisseur</text><polygon fill="#444444" points="68.23,902.0313,58.23,906.0313,68.23,910.0313,64.23,906.0313" style="stroke:#444444;stroke-width:1.0;"/><line style="stroke:#444444;stroke-width:1.2;stroke-dasharray:2.0,2.0;" x1="62.23" x2="210.2808" y1="906.0313" y2="906.0313"/><text fill="#000000" font-family="sans-serif" font-size="13" lengthAdjust="spacing" textLength="118.5044" x="74.23" y="884.8232">Tableau comparatif :</text><text fill="#000000" font-family="sans-serif" font-size="13" lengthAdjust="spacing" textLength="119.209" x="74.23" y="901.1748">meilleur prix surlign&#233;</text><!--SRC=[fLJ1RXen4BtlLupQGn9L845GMoAbqW95Yig1Xg2g4XTdTm0tNdjhUqdJKp-Y7z1Z-Oxzatv9PxmaB9IaXo0H5CzxCs_UZ7q4vy_uH4Sm6SUN7pv30mPIBAp8CeGKmPNhhmNg1E4C-YRBXHNI6SsXtCflpFDt2a4a8YtNcIGmE9dbIivbkORS51Qio7DZFOo7xmd_B9dkHchMa85RYjJSIhs0kL0EQn5h2ftsZTLeuNMTWLKdiRNczcefankDpa6hsQw1wA-NYSo5zZsHt2msoPIny78OFe-0ZKtHRe2jOJlkT0u3XqRxoh9hez8dCF8xGgikJIJUsF-Bgc1FoWcGHuLieq72QIsaZST32juE-lkeke1-Dswtt-mXjXLQ1uOqadFwwjqytMwt1Wrpt4Gwr5_afQTk7bdVFpz-7bfWGEqjmfpsL4ldiB0kYe83y29ECqc7tWfFvoz0E9X6jJ4H8gT5JuINHi_q9xmE6Dho7T04xOhuCrtTi829nnUxe9vmB7YcKwDrkKONO8DU5B5NO5QqpDC8OEgbaYu8WaBpTQF3j01tvtpvEyC8THhihHD94S25zcZd8c52h1U54lOWcAK1y9GvEXJELoV7upk_DFha88c40eoDymkBauyZEAD_GtiA7RpQjNVBFp-dsmUJSgqmOG_904VVbNHG_e8aJ8kIqxsV0ZJUKH_y2YsDTD92hWedEM75cEbZUe2-4CybWYrq9n7XYKNoYJR0J6XQ9Q0LyU9QeIWs5MXySnwvN96jeNqMrcx2PRbEYhnSMx4LjvaEQ-Ayb7xGe-mZIKl4lJuqZNwc-JSi6LMfUx2jHhuHl_6WSaJhXg7IVQAPHXyEmdEROftAEa-Rq1SgAHHlGOPIALwDK7MhiKe-viSuMGf-epVfuMoc6_iquBNFYen3P051wPQ4fpoXso8Mo06BmPa5SjrQRpCDR75cf7PK36rKYRWVtzM_tjUQkdU_quHuFfSajYfWQPw5yi9pKzLOGxPBvASefx6onPkcWcNxbZE9MDE34jY6NHDSOPLSqAoZlm00]--></g></svg>