<svg xmlns="http://www.w3.org/2000/svg" xmlns:xlink="http://www.w3.org/1999/xlink" contentStyleType="text/css" height="1036px" preserveAspectRatio="none" style="width:821px;height:1036px;background:#FFFFFF;" version="1.1" viewBox="0 0 821 1036" width="821px" zoomAndPan="magnify"><title>Diagramme de s&#233;quence &#8212; Scan et extraction d'un document</title><defs/><g><text fill="#000000" font-family="sans-serif" font-size="14" font-weight="bold" lengthAdjust="spacing" textLength="411.4277" x="201.2461" y="29.5332">Diagramme de s&#233;quence &#8212; Scan et extraction d'un document</text><rect fill="#FFFFFF" height="394.5703" style="stroke:#999999;stroke-width:1.0;" width="10" x="435.4941" y="451.5391"/><rect fill="#FFFFFF" height="46.7031" style="stroke:#999999;stroke-width:1.0;" width="10" x="689.5249" y="526.2422"/><rect fill="#FFFFFF" height="46.7031" style="stroke:#999999;stroke-width:1.0;" width="10" x="689.5249" y="647.6484"/><rect fill="#FFFFFF" height="30.3516" style="stroke:#999999;stroke-width:1.0;" width="10" x="765.2017" y="785.4063"/><line style="stroke:#999999;stroke-width:0.5;stroke-dasharray:5.0,5.0;" x1="57" x2="57" y1="119.9609" y2="955.1641"/><line style="stroke:#999999;stroke-width:0.5;stroke-dasharray:5.0,5.0;" x1="293.7056" x2="293.7056" y1="119.9609" y2="955.1641"/><line style="stroke:#999999;stroke-width:0.5;stroke-dasharray:5.0,5.0;" x1="440.4893" x2="440.4893" y1="119.9609" y2="955.1641"/><line style="stroke:#999999;stroke-width:0.5;stroke-dasharray:5.0,5.0;" x1="694.519" x2="694.519" y1="119.9609" y2="955.1641"/><line style="stroke:#999999;stroke-width:0.5;stroke-dasharray:5.0,5.0;" x1="769.5308" x2="769.5308" y1="119.9609" y2="955.1641"/><text fill="#000000" font-family="sans-serif" font-size="13" font-weight="bold" lengthAdjust="spacing" textLength="92.46" x="8" y="117.1045">Administrateur</text><ellipse cx="57.23" cy="52.1094" fill="#FFFFFF" rx="8" ry="8" style="stroke:#1F2A44;stroke-width:0.5;"/><path d="M57.23,60.1094 L57.23,87.1094 M44.23,68.1094 L70.23,68.1094 M57.23,87.1094 L44.23,102.1094 M57.23,87.1094 L70.23,102.1094 " fill="none" style="stroke:#1F2A44;stroke-width:0.5;"/><text fill="#000000" font-family="sans-serif" font-size="13" font-weight="bold" lengthAdjust="spacing" textLength="92.46" x="8" y="967.6592">Administrateur</text><ellipse cx="57.23" cy="979.0156" fill="#FFFFFF" rx="8" ry="8" style="stroke:#1F2A44;stroke-width:0.5;"/><path d="M57.23,987.0156 L57.23,1014.0156 M44.23,995.0156 L70.23,995.0156 M57.23,1014.0156 L44.23,1029.0156 M57.23,1014.0156 L70.23,1029.0156 " fill="none" style="stroke:#1F2A44;stroke-width:0.5;"/><rect fill="#FFFFFF" height="44.1875" rx="3" ry="3" style="stroke:#1F2A44;stroke-width:0.5;" width="79.332" x="254.7056" y="74.7734"/><text fill="#000000" font-family="sans-serif" font-size="12" font-weight="bold" lengthAdjust="spacing" textLength="65.332" x="261.7056" y="94.2305">Application</text><text fill="#000000" font-family="sans-serif" font-size="12" font-weight="bold" lengthAdjust="spacing" textLength="25.3301" x="281.7065" y="109.3242">Web</text><rect fill="#FFFFFF" height="44.1875" rx="3" ry="3" style="stroke:#1F2A44;stroke-width:0.5;" width="79.332" x="254.7056" y="954.1641"/><text fill="#000000" font-family="sans-serif" font-size="12" font-weight="bold" lengthAdjust="spacing" textLength="65.332" x="261.7056" y="973.6211">Application</text><text fill="#000000" font-family="sans-serif" font-size="12" font-weight="bold" lengthAdjust="spacing" textLength="25.3301" x="281.7065" y="988.7148">Web</text><rect fill="#FFFFFF" height="44.1875" rx="3" ry="3" style="stroke:#1F2A44;stroke-width:0.5;" width="64.0098" x="408.4893" y="74.7734"/><text fill="#000000" font-family="sans-serif" font-size="12" font-weight="bold" lengthAdjust="spacing" textLength="44.6953" x="418.1465" y="94.2305">Serveur</text><text fill="#000000" font-family="sans-serif" font-size="12" font-weight="bold" lengthAdjust="spacing" textLength="50.0098" x="415.4893" y="109.3242">SPARKY</text><rect fill="#FFFFFF" height="44.1875" rx="3" ry="3" style="stroke:#1F2A44;stroke-width:0.5;" width="64.0098" x="408.4893" y="954.1641"/><text fill="#000000" font-family="sans-serif" font-size="12" font-weight="bold" lengthAdjust="spacing" textLength="44.6953" x="418.1465" y="973.6211">Serveur</text><text fill="#000000" font-family="sans-serif" font-size="12" font-weight="bold" lengthAdjust="spacing" textLength="50.0098" x="415.4893" y="988.7148">SPARKY</text><rect fill="#FFFFFF" height="29.0938" rx="3" ry="3" style="stroke:#1F2A44;stroke-width:0.5;" width="68.0117" x="660.519" y="89.8672"/><text fill="#000000" font-family="sans-serif" font-size="12" font-weight="bold" lengthAdjust="spacing" textLength="54.0117" x="667.519" y="109.3242">Mistral AI</text><rect fill="#FFFFFF" height="29.0938" rx="3" ry="3" style="stroke:#1F2A44;stroke-width:0.5;" width="68.0117" x="660.519" y="954.1641"/><text fill="#000000" font-family="sans-serif" font-size="12" font-weight="bold" lengthAdjust="spacing" textLength="54.0117" x="667.519" y="973.6211">Mistral AI</text><rect fill="#FFFFFF" height="44.1875" rx="3" ry="3" style="stroke:#1F2A44;stroke-width:0.5;" width="63.3418" x="738.5308" y="74.7734"/><text fill="#000000" font-family="sans-serif" font-size="12" font-weight="bold" lengthAdjust="spacing" textLength="46.0254" x="747.189" y="94.2305">Base de</text><text fill="#000000" font-family="sans-serif" font-size="12" font-weight="bold" lengthAdjust="spacing" textLength="49.3418" x="745.5308" y="109.3242">donn&#233;es</text><rect fill="#FFFFFF" height="44.1875" rx="3" ry="3" style="stroke:#1F2A44;stroke-width:0.5;" width="63.3418" x="738.5308" y="954.1641"/><text fill="#000000" font-family="sans-serif" font-size="12" font-weight="bold" lengthAdjust="spacing" textLength="46.0254" x="747.189" y="973.6211">Base de</text><text fill="#000000" font-family="sans-serif" font-size="12" font-weight="bold" lengthAdjust="spacing" textLength="49.3418" x="745.5308" y="988.7148">donn&#233;es</text><rect fill="#FFFFFF" height="394.5703" style="stroke:#999999;stroke-width:1.0;" width="10" x="435.4941" y="451.5391"/><rect fill="#FFFFFF" height="46.7031" style="stroke:#999999;stroke-width:1.0;" width="10" x="689.5249" y="526.2422"/><rect fill="#FFFFFF" height="46.7031" style="stroke:#999999;stroke-width:1.0;" width="10" x="689.5249" y="647.6484"/><rect fill="#FFFFFF" height="30.3516" style="stroke:#999999;stroke-width:1.0;" width="10" x="765.2017" y="785.4063"/><path d="M5,137.9609 L5,168.9609 A3,3 0 0 0 8,171.9609 L107,171.9609 A3,3 0 0 0 110,168.9609 L110,144.9609 L100,134.9609 L8,134.9609 A3,3 0 0 0 5,137.9609 " fill="#FFF8DC" style="stroke:#C9A227;stroke-width:0.5;"/><path d="M100,134.9609 L100,143.4609 A1.5,1.5 0 0 0 101.5,144.9609 L110,144.9609 L100,134.9609 " fill="#FFF8DC" style="stroke:#C9A227;stroke-width:0.5;"/><text fill="#000000" font-family="sans-serif" font-size="11" lengthAdjust="spacing" textLength="84.9922" x="11" y="151.3799">Utilisateur unique</text><text fill="#000000" font-family="sans-serif" font-size="11" lengthAdjust="spacing" textLength="56.2461" x="11" y="165.2158">du syst&#232;me</text><path d="M262,185.6328 L262,216.6328 A3,3 0 0 0 265,219.6328 L322,219.6328 A3,3 0 0 0 325,216.6328 L325,192.6328 L315,182.6328 L265,182.6328 A3,3 0 0 0 262,185.6328 " fill="#FFF8DC" style="stroke:#C9A227;stroke-width:0.5;"/><path d="M315,182.6328 L315,191.1328 A1.5,1.5 0 0 0 316.5,192.6328 L325,192.6328 L315,182.6328 " fill="#FFF8DC" style="stroke:#C9A227;stroke-width:0.5;"/><text fill="#000000" font-family="sans-serif" font-size="11" lengthAdjust="spacing" textLength="42.8022" x="268" y="199.0518">Interface</text><text fill="#000000" font-family="sans-serif" font-size="11" lengthAdjust="spacing" textLength="37.9146" x="268" y="212.8877">Angular</text><path d="M387,233.3047 L387,264.3047 A3,3 0 0 0 390,267.3047 L489,267.3047 A3,3 0 0 0 492,264.3047 L492,240.3047 L482,230.3047 L390,230.3047 A3,3 0 0 0 387,233.3047 " fill="#FFF8DC" style="stroke:#C9A227;stroke-width:0.5;"/><path d="M482,230.3047 L482,238.8047 A1.5,1.5 0 0 0 483.5,240.3047 L492,240.3047 L482,230.3047 " fill="#FFF8DC" style="stroke:#C9A227;stroke-width:0.5;"/><text fill="#000000" font-family="sans-serif" font-size="11" lengthAdjust="spacing" textLength="84.9868" x="393" y="246.7236">Backend FastAPI</text><text fill="#000000" font-family="sans-serif" font-size="11" lengthAdjust="spacing" textLength="41.5723" x="393" y="260.5596">(Python)</text><path d="M630,280.9766 L630,311.9766 A3,3 0 0 0 633,314.9766 L754,314.9766 A3,3 0 0 0 757,311.9766 L757,287.9766 L747,277.9766 L633,277.9766 A3,3 0 0 0 630,280.9766 " fill="#FFF8DC" style="stroke:#C9A227;stroke-width:0.5;"/><path d="M747,277.9766 L747,286.4766 A1.5,1.5 0 0 0 748.5,287.9766 L757,287.9766 L747,277.9766 " fill="#FFF8DC" style="stroke:#C9A227;stroke-width:0.5;"/><text fill="#000000" font-family="sans-serif" font-size="11" lengthAdjust="spacing" textLength="50.1284" x="636" y="294.3955">Service IA</text><text fill="#000000" font-family="sans-serif" font-size="11" lengthAdjust="spacing" textLength="106.6646" x="636" y="308.2314">(OCR + classification)</text><path d="M729,328.6484 L729,345.6484 A3,3 0 0 0 732,348.6484 L806,348.6484 A3,3 0 0 0 809,345.6484 L809,335.6484 L799,325.6484 L732,325.6484 A3,3 0 0 0 729,328.6484 " fill="#FFF8DC" style="stroke:#C9A227;stroke-width:0.5;"/><path d="M799,325.6484 L799,334.1484 A1.5,1.5 0 0 0 800.5,335.6484 L809,335.6484 L799,325.6484 " fill="#FFF8DC" style="stroke:#C9A227;stroke-width:0.5;"/><text fill="#000000" font-family="sans-serif" font-size="11" lengthAdjust="spacing" textLength="59.9199" x="735" y="342.0674">PostgreSQL</text><rect fill="#EEEEEE" height="3" rx="3" ry="3" style="stroke:#EEEEEE;stroke-width:1.0;" width="814.9199" x="0" y="375.6602"/><line style="stroke:#000000;stroke-width:1.0;" x1="0" x2="814.9199" y1="375.6602" y2="375.6602"/><line style="stroke:#000000;stroke-width:1.0;" x1="0" x2="814.9199" y1="378.6602" y2="378.6602"/><rect fill="#EEEEEE" height="24.3516" rx="3" ry="3" style="stroke:#000000;stroke-width:2.0;" width="170.0127" x="322.4536" y="364.4844"/><text fill="#000000" font-family="sans-serif" font-size="13" font-weight="bold" lengthAdjust="spacing" textLength="152.4009" x="328.4536" y="381.9795">1. Importer un document</text><polygon fill="#444444" points="282.3716,417.1875,292.3716,421.1875,282.3716,425.1875,286.3716,421.1875" style="stroke:#444444;stroke-width:1.0;"/><line style="stroke:#444444;stroke-width:1.2;" x1="57.23" x2="288.3716" y1="421.1875" y2="421.1875"/><text fill="#000000" font-family="sans-serif" font-size="13" lengthAdjust="spacing" textLength="213.1416" x="64.23" y="416.3311">S&#233;lectionner un fichier (PDF / image)</text><polygon fill="#444444" points="423.4941,447.5391,433.4941,451.5391,423.4941,455.5391,427.4941,451.5391" style="stroke:#444444;stroke-width:1.0;"/><line style="stroke:#444444;stroke-width:1.2;" x1="294.3716" x2="429.4941" y1="451.5391" y2="451.5391"/><text fill="#000000" font-family="sans-serif" font-size="13" lengthAdjust="spacing" textLength="122.1226" x="301.3716" y="446.6826">Envoyer le document</text><rect fill="#EEEEEE" height="3" rx="3" ry="3" style="stroke:#EEEEEE;stroke-width:1.0;" width="814.9199" x="0" y="480.7148"/><line style="stroke:#000000;stroke-width:1.0;" x1="0" x2="814.9199" y1="480.7148" y2="480.7148"/><line style="stroke:#000000;stroke-width:1.0;" x1="0" x2="814.9199" y1="483.7148" y2="483.7148"/><rect fill="#EEEEEE" height="24.3516" rx="3" ry="3" style="stroke:#000000;stroke-width:2.0;" width="219.8989" x="297.5105" y="469.5391"/><text fill="#000000" font-family="sans-serif" font-size="13" font-weight="bold" lengthAdjust="spacing" textLength="202.2871" x="303.5105" y="487.0342">2. Classifier le type de document</text><polygon fill="#444444" points="677.5249,522.2422,687.5249,526.2422,677.5249,530.2422,681.5249,526.2422" style="stroke:#444444;stroke-width:1.0;"/><line style="stroke:#444444;stroke-width:1.2;" x1="445.4941" x2="683.5249" y1="526.2422" y2="526.2422"/><text fill="#000000" font-family="sans-serif" font-size="13" lengthAdjust="spacing" textLength="151.7344" x="452.4941" y="521.3857">Demander la classification</text><polygon fill="#444444" points="456.4941,568.9453,446.4941,572.9453,456.4941,576.9453,452.4941,572.9453" style="stroke:#444444;stroke-width:1.0;"/><line style="stroke:#444444;stroke-width:1.2;stroke-dasharray:2.0,2.0;" x1="450.4941" x2="693.5249" y1="572.9453" y2="572.9453"/><text fill="#000000" font-family="sans-serif" font-size="13" lengthAdjust="spacing" textLength="77.3208" x="462.4941" y="551.7373">Type identifi&#233;</text><text fill="#000000" font-family="sans-serif" font-size="13" lengthAdjust="spacing" textLength="169.7808" x="462.4941" y="568.0889">(facture, devis, BL, BC, avoir)</text><rect fill="#EEEEEE" height="3" rx="3" ry="3" style="stroke:#EEEEEE;stroke-width:1.0;" width="814.9199" x="0" y="602.1211"/><line style="stroke:#000000;stroke-width:1.0;" x1="0" x2="814.9199" y1="602.1211" y2="602.1211"/><line style="stroke:#000000;stroke-width:1.0;" x1="0" x2="814.9199" y1="605.1211" y2="605.1211"/><rect fill="#EEEEEE" height="24.3516" rx="3" ry="3" style="stroke:#000000;stroke-width:2.0;" width="159.2344" x="327.8428" y="590.9453"/><text fill="#000000" font-family="sans-serif" font-size="13" font-weight="bold" lengthAdjust="spacing" textLength="141.6226" x="333.8428" y="608.4404">3. Extraire les donn&#233;es</text><polygon fill="#444444" points="677.5249,643.6484,687.5249,647.6484,677.5249,651.6484,681.5249,647.6484" style="stroke:#444444;stroke-width:1.0;"/><line style="stroke:#444444;stroke-width:1.2;" x1="445.4941" x2="683.5249" y1="647.6484" y2="647.6484"/><text fill="#000000" font-family="sans-serif" font-size="13" lengthAdjust="spacing" textLength="225.0308" x="452.4941" y="642.792">Demander l'extraction des informations</text><polygon fill="#444444" points="456.4941,690.3516,446.4941,694.3516,456.4941,698.3516,452.4941,694.3516" style="stroke:#444444;stroke-width:1.0;"/><line style="stroke:#444444;stroke-width:1.2;stroke-dasharray:2.0,2.0;" x1="450.4941" x2="693.5249" y1="694.3516" y2="694.3516"/><text fill="#000000" font-family="sans-serif" font-size="13" lengthAdjust="spacing" textLength="119.9517" x="462.4941" y="673.1436">Donn&#233;es structur&#233;es</text><text fill="#000000" font-family="sans-serif" font-size="13" lengthAdjust="spacing" textLength="182.0635" x="462.4941" y="689.4951">(fournisseur, montants, articles)</text><rect fill="#EEEEEE" height="3" rx="3" ry="3" style="stroke:#EEEEEE;stroke-width:1.0;" width="814.9199" x="0" y="723.5273"/><line style="stroke:#000000;stroke-width:1.0;" x1="0" x2="814.9199" y1="723.5273" y2="723.5273"/><line style="stroke:#000000;stroke-width:1.0;" x1="0" x2="814.9199" y1="726.5273" y2="726.5273"/><rect fill="#EEEEEE" height="24.3516" rx="3" ry="3" style="stroke:#000000;stroke-width:2.0;" width="166.4517" x="324.2341" y="712.3516"/><text fill="#000000" font-family="sans-serif" font-size="13" font-weight="bold" lengthAdjust="spacing" textLength="148.8398" x="330.2341" y="729.8467">4. Enregistrer le r&#233;sultat</text><polygon fill="#444444" points="753.2017,781.4063,763.2017,785.4063,753.2017,789.4063,757.2017,785.4063" style="stroke:#444444;stroke-width:1.0;"/><line style="stroke:#444444;stroke-width:1.2;" x1="445.4941" x2="759.2017" y1="785.4063" y2="785.4063"/><text fill="#000000" font-family="sans-serif" font-size="13" lengthAdjust="spacing" textLength="148.8716" x="452.4941" y="764.1982">Sauvegarder le document</text><text fill="#000000" font-family="sans-serif" font-size="13" lengthAdjust="spacing" textLength="88.1753" x="452.4941" y="780.5498">et ses donn&#233;es</text><polygon fill="#444444" points="456.4941,811.7578,446.4941,815.7578,456.4941,819.7578,452.4941,815.7578" style="stroke:#444444;stroke-width:1.0;"/><line style="stroke:#444444;stroke-width:1.2;stroke-dasharray:2.0,2.0;" x1="450.4941" x2="769.2017" y1="815.7578" y2="815.7578"/><text fill="#000000" font-family="sans-serif" font-size="13" lengthAdjust="spacing" textLength="73.6963" x="462.4941" y="810.9014">Confirmation</text><polygon fill="#444444" points="305.3716,842.1094,295.3716,846.1094,305.3716,850.1094,301.3716,846.1094" style="stroke:#444444;stroke-width:1.0;"/><line style="stroke:#444444;stroke-width:1.2;stroke-dasharray:2.0,2.0;" x1="299.3716" x2="439.4941" y1="846.1094" y2="846.1094"/><text fill="#000000" font-family="sans-serif" font-size="13" lengthAdjust="spacing" textLength="96.8335" x="311.3716" y="841.2529">R&#233;sultat du scan</text><rect fill="#EEEEEE" height="3" rx="3" ry="3" style="stroke:#EEEEEE;stroke-width:1.0;" width="814.9199" x="0" y="875.2852"/><line style="stroke:#000000;stroke-width:1.0;" x1="0" x2="814.9199" y1="875.2852" y2="875.2852"/><line style="stroke:#000000;stroke-width:1.0;" x1="0" x2="814.9199" y1="878.2852" y2="878.2852"/><rect fill="#EEEEEE" height="24.3516" rx="3" ry="3" style="stroke:#000000;stroke-width:2.0;" width="146.209" x="334.3555" y="864.1094"/><text fill="#000000" font-family="sans-serif" font-size="13" font-weight="bold" lengthAdjust="spacing" textLength="128.5972" x="340.3555" y="881.6045">5. Afficher le r&#233;sultat</text><polygon fill="#444444" points="68.23,933.1641,58.23,937.1641,68.23,941.1641,64.23,937.1641" style="stroke:#444444;stroke-width:1.0;"/><line style="stroke:#444444;stroke-width:1.2;stroke-dasharray:2.0,2.0;" x1="62.23" x2="293.3716" y1="937.1641" y2="937.1641"/><text fill="#000000" font-family="sans-serif" font-size="13" lengthAdjust="spacing" textLength="186.4434" x="74.23" y="915.9561">Document scann&#233;, type d&#233;tect&#233;,</text><text fill="#000000" font-family="sans-serif" font-size="13" lengthAdjust="spacing" textLength="86.6899" x="74.23" y="932.3076">articles extraits</text><!--SRC=[fLLTRjf047xtAKRj0ubAg23qXqgfP218g8bAGr1LYPUDlPXLx5btTqrAdtg87gASWvlq99rTyxD49ds89LlOyytiDpFV33MuUCOLr60y2cy-VOCpw0kMA9Pb768EUhtwNd2CE7o0SSGGk07-moWM6I7Hkfbboe55B5wlCa5Oq2BBKp4JwnNaib2WM9vBPM0qk2JyirZgUu4v8tAWvooM3m8JcB5KSy-YP85nJoha2jxw7hnC95HAFjpEHNIFN6jeDbeUY9v6H29dQBeikaysmLAfuEN0NKV0KiLSRO3DGIjijwk10uccBDcTJECdCE8dXwPFZIekrVz9bR0dwJZ8KI9xgwDmxfbG6bx5u7s_znZb4-XrmbRhtIF4_eHcHPEkn8nkF8pJwNGygElZnjAc_08Z36LpHBr_V_skq2_4jO8UCYeoZYO8NExm8empWK8Jol12lG2cOH9u3I94JXAFc8qnnQ_ypc58tmUWCLSByfzYELeE4uw6Xw1hTquAuT3PhyU7vYxJDfCfnX9nlUBQeVhT8B151BaWbKy2W8aHgT2EBnHevv0-nWNefJRhFnaFECQkxhuZ4GOOek5gnYBh469If4nLWYrp0Dj-QnqmRSel9wEbcKiyhNIYT01i7GJrO1XQ-EVU3Ro2A6LQqv8eQrZjJ5a2ZAGsYUBZBrSUvkA2vXQ6cTqht2Qywo7jbs02SFQHahChQxrAkMirbZWwSIxevyceFu3N83AMyDE0iEH1-P3B9IxaaX2afPqmh5eML5nN17jwgm6zJGObr2npfpYVXur7OQ_75BNFCuQnnR97kU-3Kx48UxPZScjZYfYYkMqwnHDgaoaKhzD92w7hqBsYkrS7jf12dGOnzsDPdkSDkBHg5ueJImrR5HsdL_EdWu02Pr9bZga-JhM_ZKjYBYn7-s89qny0JP8cMTOXev4dKHDlft3YKqMvJPHHySJEHLbR2gQBr32_gFskxIuh5ZnXAZvirnHfoBMNxPutIOeyzxnx4cTYavxFnGwOEsahf9iT1pjKj4Xyz5OLRneGpgp2AdXRYL6mYIlMHYCs3X6iRzIpNXdIAhrFSLkWSbS9euD_]--></g></svg>