<svg xmlns="http://www.w3.org/2000/svg" xmlns:xlink="http://www.w3.org/1999/xlink" contentStyleType="text/css" height="751px" preserveAspectRatio="none" style="width:691px;height:751px;background:#FFFFFF;" version="1.1" viewBox="0 0 691 751" width="691px" zoomAndPan="magnify"><title>Diagramme d'&#233;tats &#8212; Cycle de vie d'un document</title><defs/><g><text fill="#000000" font-family="sans-serif" font-size="14" font-weight="bold" lengthAdjust="spacing" textLength="331.5156" x="173.0681" y="24.5332">Diagramme d'&#233;tats &#8212; Cycle de vie d'un document</text><ellipse cx="546.85" cy="54.6094" fill="#222222" rx="10" ry="10" style="stroke:#222222;stroke-width:1.0;"/><g id="EnAttente"><rect fill="#FFFFFF" height="65.2813" rx="4" ry="4" style="stroke:#1F2A44;stroke-width:0.5;" width="146.7383" x="473.35" y="158.6094"/><line style="stroke:#1F2A44;stroke-width:0.5;" x1="473.35" x2="620.0883" y1="183.7031" y2="183.7031"/><text fill="#1F2A44" font-family="sans-serif" font-size="12" lengthAdjust="spacing" textLength="54.709" x="519.3646" y="176.0664">En attente</text><text fill="#1F2A44" font-family="sans-serif" font-size="12" lengthAdjust="spacing" textLength="126.7383" x="478.35" y="201.1602">Le document est stock&#233;</text><text fill="#1F2A44" font-family="sans-serif" font-size="12" lengthAdjust="spacing" textLength="118.0547" x="478.35" y="216.2539">mais pas encore trait&#233;</text></g><g id="Classifie"><rect fill="#FFFFFF" height="80.375" rx="4" ry="4" style="stroke:#1F2A44;stroke-width:0.5;" width="121.4023" x="355.35" y="317.6094"/><line style="stroke:#1F2A44;stroke-width:0.5;" x1="355.35" x2="476.7523" y1="342.7031" y2="342.7031"/><text fill="#1F2A44" font-family="sans-serif" font-size="12" lengthAdjust="spacing" textLength="45.3457" x="393.3783" y="335.0664">Classifi&#233;</text><text fill="#1F2A44" font-family="sans-serif" font-size="12" lengthAdjust="spacing" textLength="101.4023" x="360.35" y="360.1602">Le type est d&#233;tect&#233;</text><text fill="#1F2A44" font-family="sans-serif" font-size="12" lengthAdjust="spacing" textLength="100.043" x="360.35" y="375.2539">(facture, devis, BL,</text><text fill="#1F2A44" font-family="sans-serif" font-size="12" lengthAdjust="spacing" textLength="53.3438" x="367.018" y="390.3477">BC, avoir)</text></g><g id="Erreur"><rect fill="#FFFFFF" height="65.2813" rx="4" ry="4" style="stroke:#1F2A44;stroke-width:0.5;" width="100.0449" x="500.85" y="506.6094"/><line style="stroke:#1F2A44;stroke-width:0.5;" x1="500.85" x2="600.8949" y1="531.7031" y2="531.7031"/><text fill="#1F2A44" font-family="sans-serif" font-size="12" lengthAdjust="spacing" textLength="33.3398" x="534.2025" y="524.0664">Erreur</text><text fill="#1F2A44" font-family="sans-serif" font-size="12" lengthAdjust="spacing" textLength="80.0449" x="505.85" y="549.1602">Le traitement a</text><text fill="#1F2A44" font-family="sans-serif" font-size="12" lengthAdjust="spacing" textLength="39.3691" x="505.85" y="564.2539">&#233;chou&#233;</text></g><g id="Extrait"><rect fill="#FFFFFF" height="95.4688" rx="4" ry="4" style="stroke:#1F2A44;stroke-width:0.5;" width="142.7188" x="187.35" y="491.6094"/><line style="stroke:#1F2A44;stroke-width:0.5;" x1="187.35" x2="330.0688" y1="516.7031" y2="516.7031"/><text fill="#1F2A44" font-family="sans-serif" font-size="12" lengthAdjust="spacing" textLength="34.0078" x="241.7055" y="509.0664">Extrait</text><text fill="#1F2A44" font-family="sans-serif" font-size="12" lengthAdjust="spacing" textLength="94.7402" x="192.35" y="534.1602">Les donn&#233;es sont</text><text fill="#1F2A44" font-family="sans-serif" font-size="12" lengthAdjust="spacing" textLength="112.0723" x="192.35" y="549.2539">enregistr&#233;es en base</text><text fill="#1F2A44" font-family="sans-serif" font-size="12" lengthAdjust="spacing" textLength="122.7188" x="192.35" y="564.3477">(montants, fournisseur,</text><text fill="#1F2A44" font-family="sans-serif" font-size="12" lengthAdjust="spacing" textLength="42.0059" x="192.35" y="579.4414">articles)</text></g><ellipse cx="509.85" cy="713.1094" fill="none" rx="11" ry="11" style="stroke:#222222;stroke-width:1.0;"/><ellipse cx="509.85" cy="713.1094" fill="#222222" rx="6" ry="6" style="stroke:#222222;stroke-width:1.0;"/><g id="Compare"><rect fill="#FFFFFF" height="65.2813" rx="4" ry="4" style="stroke:#1F2A44;stroke-width:0.5;" width="136.0801" x="10.85" y="680.6094"/><line style="stroke:#1F2A44;stroke-width:0.5;" x1="10.85" x2="146.9301" y1="705.7031" y2="705.7031"/><text fill="#1F2A44" font-family="sans-serif" font-size="12" lengthAdjust="spacing" textLength="49.3535" x="54.2133" y="698.0664">Compar&#233;</text><text fill="#1F2A44" font-family="sans-serif" font-size="12" lengthAdjust="spacing" textLength="116.0801" x="15.85" y="723.1602">Inclus dans le tableau</text><text fill="#1F2A44" font-family="sans-serif" font-size="12" lengthAdjust="spacing" textLength="101.373" x="15.85" y="738.2539">comparatif des prix</text></g><g id="Exporte"><rect fill="#FFFFFF" height="65.2813" rx="4" ry="4" style="stroke:#1F2A44;stroke-width:0.5;" width="88.6836" x="239.35" y="680.6094"/><line style="stroke:#1F2A44;stroke-width:0.5;" x1="239.35" x2="328.0336" y1="705.7031" y2="705.7031"/><text fill="#1F2A44" font-family="sans-serif" font-size="12" lengthAdjust="spacing" textLength="41.3555" x="263.0141" y="698.0664">Export&#233;</text><text fill="#1F2A44" font-family="sans-serif" font-size="12" lengthAdjust="spacing" textLength="68.6836" x="244.35" y="723.1602">Fichier Excel</text><text fill="#1F2A44" font-family="sans-serif" font-size="12" lengthAdjust="spacing" textLength="37.3652" x="244.35" y="738.2539">g&#233;n&#233;r&#233;</text></g><!--link *start* to EnAttente--><g id="link_*start*_EnAttente"><path d="M546.85,64.8494 C546.85,83.8494 546.85,122.0294 546.85,152.4894 " fill="none" id="*start*-to-EnAttente" style="stroke:#444444;stroke-width:1.0;"/><polygon fill="#444444" points="546.85,158.4894,550.85,149.4894,546.85,153.4894,542.85,149.4894,546.85,158.4894" style="stroke:#444444;stroke-width:1.0;"/><text fill="#000000" font-family="sans-serif" font-size="13" lengthAdjust="spacing" textLength="48.4009" x="561.2309" y="109.1045">Importer</text><text fill="#000000" font-family="sans-serif" font-size="13" lengthAdjust="spacing" textLength="75.1626" x="547.85" y="125.4561">un document</text></g><!--link EnAttente to Classifie--><g id="link_EnAttente_Classifie"><path d="M475.93,223.7694 C463.48,231.9794 451.7,241.8894 442.85,253.6094 C429.04,271.9094 423.2168,290.7146 419.9168,311.3646 " fill="none" id="EnAttente-to-Classifie" style="stroke:#444444;stroke-width:1.0;"/><polygon fill="#444444" points="418.97,317.2894,424.3401,309.0334,419.759,312.352,416.4404,307.7709,418.97,317.2894" style="stroke:#444444;stroke-width:1.0;"/><text fill="#000000" font-family="sans-serif" font-size="13" lengthAdjust="spacing" textLength="76.5845" x="443.85" y="268.1045">Classification</text><text fill="#000000" font-family="sans-serif" font-size="13" lengthAdjust="spacing" textLength="41.9072" x="461.1886" y="284.4561">r&#233;ussie</text></g><!--link EnAttente to Erreur--><g id="link_EnAttente_Erreur"><path d="M571.32,223.8494 C588.37,248.0494 609.63,283.0194 618.85,317.6094 C628.01,351.9694 626.8,362.9494 618.85,397.6094 C609.74,437.3594 590.9267,473.7843 574.4167,501.3043 " fill="none" id="EnAttente-to-Erreur" style="stroke:#444444;stroke-width:1.0;"/><polygon fill="#444444" points="571.33,506.4494,579.3901,500.7895,573.9022,502.1618,572.53,496.6739,571.33,506.4494" style="stroke:#444444;stroke-width:1.0;"/><text fill="#000000" font-family="sans-serif" font-size="13" lengthAdjust="spacing" textLength="54.2026" x="627.6496" y="355.1045">&#201;chec de</text><text fill="#000000" font-family="sans-serif" font-size="13" lengthAdjust="spacing" textLength="57.8018" x="625.85" y="371.4561">traitement</text></g><!--link Erreur to EnAttente--><g id="link_Erreur_EnAttente"><path d="M549.7,506.5894 C548.71,478.1194 547.38,435.0594 546.85,397.6094 C545.97,336.0694 546.2369,270.1592 546.5269,229.7992 " fill="none" id="Erreur-to-EnAttente" style="stroke:#444444;stroke-width:1.0;"/><polygon fill="#444444" points="546.57,223.7994,542.5054,232.7704,546.5341,228.7992,550.5052,232.8279,546.57,223.7994" style="stroke:#444444;stroke-width:1.0;"/><text fill="#000000" font-family="sans-serif" font-size="13" lengthAdjust="spacing" textLength="62.1372" x="547.85" y="355.1045">R&#233;essayer</text><text fill="#000000" font-family="sans-serif" font-size="13" lengthAdjust="spacing" textLength="41.4883" x="558.1745" y="371.4561">l'import</text></g><!--link Classifie to Extrait--><g id="link_Classifie_Extrait"><path d="M381.4,397.9994 C357.3,425.5594 328.9492,457.9523 303.5692,486.9823 " fill="none" id="Classifie-to-Extrait" style="stroke:#444444;stroke-width:1.0;"/><polygon fill="#444444" points="299.62,491.4994,308.5551,487.3565,302.911,487.7351,302.5323,482.091,299.62,491.4994" style="stroke:#444444;stroke-width:1.0;"/><text fill="#000000" font-family="sans-serif" font-size="13" lengthAdjust="spacing" textLength="57.8018" x="352.85" y="442.1045">Extraction</text><text fill="#000000" font-family="sans-serif" font-size="13" lengthAdjust="spacing" textLength="41.9072" x="360.7973" y="458.4561">r&#233;ussie</text></g><!--link Classifie to Erreur--><g id="link_Classifie_Erreur"><path d="M424.34,397.7894 C430.07,418.1594 439.15,442.6794 452.85,461.6094 C465.63,479.2694 478.7357,491.3592 495.7857,503.8192 " fill="none" id="Classifie-to-Erreur" style="stroke:#444444;stroke-width:1.0;"/><polygon fill="#444444" points="500.63,507.3594,495.7237,498.8196,496.5931,504.4092,491.0034,505.2786,500.63,507.3594" style="stroke:#444444;stroke-width:1.0;"/><text fill="#000000" font-family="sans-serif" font-size="13" lengthAdjust="spacing" textLength="36.1309" x="468.8209" y="442.1045">&#201;chec</text><text fill="#000000" font-family="sans-serif" font-size="13" lengthAdjust="spacing" textLength="66.0728" x="453.85" y="458.4561">d'extraction</text></g><!--link Extrait to *end*--><g id="link_Extrait_*end*"><path d="M330.65,576.4494 C352.45,588.3894 376.11,602.2994 396.85,616.6094 C439.35,645.9294 480.4296,683.9368 497.9896,700.6968 " fill="none" id="Extrait-to-*end*" style="stroke:#444444;stroke-width:1.0;"/><polygon fill="#444444" points="502.33,704.8394,498.5812,695.7319,498.713,701.3872,493.0577,701.519,502.33,704.8394" style="stroke:#444444;stroke-width:1.0;"/><text fill="#000000" font-family="sans-serif" font-size="13" lengthAdjust="spacing" textLength="59.249" x="444.1095" y="631.1045">Document</text><text fill="#000000" font-family="sans-serif" font-size="13" lengthAdjust="spacing" textLength="65.7681" x="440.85" y="647.4561">consultable</text></g><!--link Extrait to Compare--><g id="link_Extrait_Compare"><path d="M187.28,577.2494 C169.58,588.4394 151.51,601.7394 136.85,616.6094 C118.6,635.1194 106.3036,655.0783 96.1136,674.9883 " fill="none" id="Extrait-to-Compare" style="stroke:#444444;stroke-width:1.0;"/><polygon fill="#444444" points="93.38,680.3294,101.0411,674.1401,95.658,675.8785,93.9197,670.4953,93.38,680.3294" style="stroke:#444444;stroke-width:1.0;"/><text fill="#000000" font-family="sans-serif" font-size="13" lengthAdjust="spacing" textLength="65.0254" x="155.1854" y="631.1045">Utilis&#233; pour</text><text fill="#000000" font-family="sans-serif" font-size="13" lengthAdjust="spacing" textLength="99.6963" x="137.85" y="647.4561">comparer les prix</text></g><!--link Compare to Extrait--><g id="link_Compare_Extrait"><path d="M39.73,680.2894 C21.18,661.2994 6,636.9894 20.85,616.6094 C58.56,564.8794 125.86,547.9583 181.18,542.4083 " fill="none" id="Compare-to-Extrait" style="stroke:#444444;stroke-width:1.0;"/><polygon fill="#444444" points="187.15,541.8094,177.7957,538.7278,182.175,542.3085,178.5943,546.6878,187.15,541.8094" style="stroke:#444444;stroke-width:1.0;"/><text fill="#000000" font-family="sans-serif" font-size="13" lengthAdjust="spacing" textLength="80.5264" x="21.85" y="631.1045">Retour &#224; l'&#233;tat</text><text fill="#000000" font-family="sans-serif" font-size="13" lengthAdjust="spacing" textLength="65.7681" x="29.2292" y="647.4561">consultable</text></g><!--link Extrait to Exporte--><g id="link_Extrait_Exporte"><path d="M247.55,586.6794 C244.52,606.6294 243.4,630.0294 248.85,650.6094 C251.58,660.9394 253.5171,666.1434 258.8171,675.3934 " fill="none" id="Extrait-to-Exporte" style="stroke:#444444;stroke-width:1.0;"/><polygon fill="#444444" points="261.8,680.5994,260.7963,670.8018,259.3143,676.261,253.855,674.779,261.8,680.5994" style="stroke:#444444;stroke-width:1.0;"/><text fill="#000000" font-family="sans-serif" font-size="13" lengthAdjust="spacing" textLength="44.8018" x="252.3795" y="631.1045">Export&#233;</text><text fill="#000000" font-family="sans-serif" font-size="13" lengthAdjust="spacing" textLength="49.8608" x="249.85" y="647.4561">en Excel</text></g><!--link Exporte to Extrait--><g id="link_Exporte_Extrait"><path d="M297.97,680.4894 C304.47,661.7794 309.59,637.6894 303.85,616.6094 C301.1,606.4994 299.4713,601.644 294.4013,592.214 " fill="none" id="Exporte-to-Extrait" style="stroke:#444444;stroke-width:1.0;"/><polygon fill="#444444" points="291.56,586.9294,292.2988,596.7505,293.9277,591.3332,299.345,592.9621,291.56,586.9294" style="stroke:#444444;stroke-width:1.0;"/><text fill="#000000" font-family="sans-serif" font-size="13" lengthAdjust="spacing" textLength="80.5264" x="307.85" y="631.1045">Retour &#224; l'&#233;tat</text><text fill="#000000" font-family="sans-serif" font-size="13" lengthAdjust="spacing" textLength="65.7681" x="315.2292" y="647.4561">consultable</text></g><!--link Erreur to *end*--><g id="link_Erreur_*end*"><path d="M547.35,571.8894 C544.5,594.1694 539.79,624.4994 532.85,650.6094 C527.82,669.5594 521.5352,685.2995 516.4052,697.1995 " fill="none" id="Erreur-to-*end*" style="stroke:#444444;stroke-width:1.0;"/><polygon fill="#444444" points="514.03,702.7094,521.2661,696.0281,516.0094,698.1179,513.9196,692.8611,514.03,702.7094" style="stroke:#444444;stroke-width:1.0;"/></g><!--SRC=[fLHBRjim4Dth58DquRHm5Z42D0tG0evY0q6z219qKLHTCDJO9YAHAaabTei0sNRV0tIhS-WcFKc756rza6uQh-IPDv_7zyWHl7_1Bnh1pTNq-kDdE88BmLQQvJb2Egehowo1C-1Rdb40uLwuU2aXLRpCKLfNQhUKP9obTPMBRoM24NcHYQMeAoXKgK6peb3QmjLyHlWNRMhkX2mOBGXcpLBr8EGAbYmpsCbeLSeqLbgYXjDk1R51-141d3D-jmgmJ6buDVS_br4wHHsYn_F9zEI4edCbxNEn6_4TuNX2_wPQguS0EQ7yOsUkL1QVctXw4GzHtUdnk-baydQ0QASUHv4Lbax-6SN-FFs2-D-QHL_UV8MZemymarDhAOAayMNkD4ATo1wqERI3cGJMG0-0cKwXEyvkcmNkYm6DfKDN_Awk1gYS2GC5DKB9bKQmcWbBgCSeQc5kmpXZnf2LND7kcpChb4oahgkI0ZWecMcDPBepg7_oDN8wWaJw_jXZjEjMLvvHEyWnweubHdPRe6T35hV8hUVJnHmk6RUbnZ5DknTc3EUBSIB9Jl4OsBqI-hMZrbRuFJT-AwhsNtn0QW3kaqfaEi9zLQjIqxAHABJt0kr7BT2GFbBM5NqOCbClYrBZIXYhVHebt3AwMLt4OKurJ5gYkAIhBOKnjDUuXm6chI3p6Kzw5tSidE_Eu2Bu8o7jfIaposupxE5YbPFbtS5-iY8J9Zmahi0dD51tABJOzCfc6szXVwBkgwuIIIHc6uvPgxjliLCz3FAQxuTUIfwLT4vC6Xe4VZzMzY3D8cJ49IaULd4A1q1VtskqxXciVqFMtD0-yrQzPkaWNyEbaM_7QoxuMX3zXb8tiweh4bM7EnJ2_xU6jrgpHECwlyFEW8jmM_rj0jPDrHLVgpAiq0I7hyorSvPXM_VEP2FXtvmkbXmI_GK0]--></g></svg>