<svg xmlns="http://www.w3.org/2000/svg" xmlns:xlink="http://www.w3.org/1999/xlink" contentStyleType="text/css" height="1114px" preserveAspectRatio="none" style="width:890px;height:1114px;background:#FFFFFF;" version="1.1" viewBox="0 0 890 1114" width="890px" zoomAndPan="magnify"><title>Diagramme des cas d'utilisation &#8212; Application SPARKY</title><defs/><g><text fill="#000000" font-family="sans-serif" font-size="14" font-weight="bold" lengthAdjust="spacing" textLength="374.0693" x="251.0056" y="24.5332">Diagramme des cas d'utilisation &#8212; Application SPARKY</text><!--cluster Syst?me SPARKY--><g id="cluster_Syst&#232;me SPARKY"><rect fill="#F8F8F8" height="813" rx="3" ry="3" style="stroke:#1F2A44;stroke-width:1.0;" width="530" x="175" y="83.4394"/><text fill="#000000" font-family="sans-serif" font-size="14" font-weight="bold" lengthAdjust="spacing" textLength="119.8271" x="380.0864" y="99.9726">Syst&#232;me SPARKY</text></g><!--cluster Authentification--><g id="cluster_Authentification"><rect fill="#F8F8F8" height="147" rx="3" ry="3" style="stroke:#1F2A44;stroke-width:1.0;" width="164" x="220.5" y="127.4394"/><text fill="#000000" font-family="sans-serif" font-size="14" font-weight="bold" lengthAdjust="spacing" textLength="106.5449" x="249.2275" y="143.9726">Authentification</text></g><!--cluster Gestion des documents--><g id="cluster_Gestion des documents"><rect fill="#F8F8F8" height="226" rx="3" ry="3" style="stroke:#1F2A44;stroke-width:1.0;" width="479" x="202" y="298.4394"/><text fill="#000000" font-family="sans-serif" font-size="14" font-weight="bold" lengthAdjust="spacing" textLength="158.6963" x="362.1519" y="314.9726">Gestion des documents</text></g><!--cluster Gestion des articles--><g id="cluster_Gestion des articles"><rect fill="#F8F8F8" height="153" rx="3" ry="3" style="stroke:#1F2A44;stroke-width:1.0;" width="177" x="498.5" y="676.4394"/><text fill="#000000" font-family="sans-serif" font-size="14" font-weight="bold" lengthAdjust="spacing" textLength="133.0547" x="520.4727" y="692.9726">Gestion des articles</text></g><!--cluster Comparateur de prix--><g id="cluster_Comparateur de prix"><rect fill="#F8F8F8" height="86" rx="3" ry="3" style="stroke:#1F2A44;stroke-width:1.0;" width="176" x="214.5" y="548.4394"/><text fill="#000000" font-family="sans-serif" font-size="14" font-weight="bold" lengthAdjust="spacing" textLength="136.9238" x="234.0381" y="564.9726">Comparateur de prix</text></g><!--cluster Tableau de bord--><g id="cluster_Tableau de bord"><rect fill="#F8F8F8" height="102" rx="3" ry="3" style="stroke:#1F2A44;stroke-width:1.0;" width="207" x="199" y="658.4394"/><text fill="#000000" font-family="sans-serif" font-size="14" font-weight="bold" lengthAdjust="spacing" textLength="108.124" x="248.438" y="674.9726">Tableau de bord</text></g><!--cluster Administration--><g id="cluster_Administration"><rect fill="#F8F8F8" height="88" rx="3" ry="3" style="stroke:#1F2A44;stroke-width:1.0;" width="181" x="212" y="784.4394"/><text fill="#000000" font-family="sans-serif" font-size="14" font-weight="bold" lengthAdjust="spacing" textLength="98.7793" x="253.1104" y="800.9726">Administration</text></g><g id="elem_UC_Login"><ellipse cx="302.6012" cy="177.5596" fill="#FFFFFF" rx="58.6012" ry="14.1202" style="stroke:#1F2A44;stroke-width:0.5;"/><text fill="#000000" font-family="sans-serif" font-size="12" lengthAdjust="spacing" textLength="69.668" x="267.4697" y="180.5341">S'authentifier</text></g><g id="elem_UC_Register"><ellipse cx="302.6902" cy="242.5774" fill="#FFFFFF" rx="66.1902" ry="15.638" style="stroke:#1F2A44;stroke-width:0.5;"/><text fill="#000000" font-family="sans-serif" font-size="12" lengthAdjust="spacing" textLength="89.373" x="258.0037" y="245.4876">Cr&#233;er un compte</text></g><g id="elem_UC_Scan"><ellipse cx="302.4041" cy="480.4202" fill="#FFFFFF" rx="77.9041" ry="17.9808" style="stroke:#1F2A44;stroke-width:0.5;"/><text fill="#000000" font-family="sans-serif" font-size="12" lengthAdjust="spacing" textLength="117.4102" x="243.6991" y="483.3304">Scanner un document</text></g><g id="elem_UC_Classify"><ellipse cx="587.1802" cy="490.4754" fill="#FFFFFF" rx="78.1802" ry="18.036" style="stroke:#1F2A44;stroke-width:0.5;"/><text fill="#000000" font-family="sans-serif" font-size="12" lengthAdjust="spacing" textLength="118.0488" x="528.1558" y="493.3856">Classifier le document</text></g><g id="elem_UC_Extract"><ellipse cx="586.9706" cy="352.2335" fill="#FFFFFF" rx="74.4706" ry="17.2941" style="stroke:#1F2A44;stroke-width:0.5;"/><text fill="#000000" font-family="sans-serif" font-size="12" lengthAdjust="spacing" textLength="109.3945" x="532.2733" y="355.1436">Extraire les donn&#233;es</text></g><g id="elem_UC_List"><ellipse cx="302.3174" cy="407.2029" fill="#FFFFFF" rx="84.3174" ry="19.2635" style="stroke:#1F2A44;stroke-width:0.5;"/><text fill="#000000" font-family="sans-serif" font-size="12" lengthAdjust="spacing" textLength="132.0645" x="236.2852" y="410.113">Consulter les documents</text></g><g id="elem_UC_Export"><ellipse cx="586.8505" cy="421.5095" fill="#FFFFFF" rx="68.3505" ry="16.0701" style="stroke:#1F2A44;stroke-width:0.5;"/><text fill="#000000" font-family="sans-serif" font-size="12" lengthAdjust="spacing" textLength="94.7109" x="539.495" y="424.4196">Exporter en Excel</text></g><g id="elem_UC_Import"><ellipse cx="586.9862" cy="796.3366" fill="#FFFFFF" rx="72.4862" ry="16.8972" style="stroke:#1F2A44;stroke-width:0.5;"/><text fill="#000000" font-family="sans-serif" font-size="12" lengthAdjust="spacing" textLength="104.6953" x="534.6385" y="799.2468">Importer les articles</text></g><g id="elem_UC_Stock"><ellipse cx="587.1211" cy="728.5636" fill="#FFFFFF" rx="68.6211" ry="16.1242" style="stroke:#1F2A44;stroke-width:0.5;"/><text fill="#000000" font-family="sans-serif" font-size="12" lengthAdjust="spacing" textLength="95.373" x="539.4346" y="731.4737">Consulter le stock</text></g><g id="elem_UC_Compare"><ellipse cx="302.4312" cy="601.2256" fill="#FFFFFF" rx="71.9312" ry="16.7862" style="stroke:#1F2A44;stroke-width:0.5;"/><text fill="#000000" font-family="sans-serif" font-size="12" lengthAdjust="spacing" textLength="103.3711" x="250.7456" y="604.1358">Comparer les devis</text></g><g id="elem_UC_Dashboard"><ellipse cx="302.4261" cy="719.2852" fill="#FFFFFF" rx="87.4261" ry="24.3458" style="stroke:#1F2A44;stroke-width:0.5;"/><text fill="#000000" font-family="sans-serif" font-size="12" lengthAdjust="spacing" textLength="107.3965" x="248.7278" y="714.6484">Visualiser le tableau</text><text fill="#000000" font-family="sans-serif" font-size="12" lengthAdjust="spacing" textLength="40.6992" x="282.0765" y="729.7422">de bord</text></g><g id="elem_UC_ManageUsers"><ellipse cx="302.7445" cy="838.2883" fill="#FFFFFF" rx="74.7445" ry="17.3489" style="stroke:#1F2A44;stroke-width:0.5;"/><text fill="#000000" font-family="sans-serif" font-size="12" lengthAdjust="spacing" textLength="110.0391" x="247.7249" y="841.1984">G&#233;rer les utilisateurs</text></g><!--entity Admin--><g id="elem_Admin"><ellipse cx="67.23" cy="639.4394" fill="#FFFFFF" rx="16" ry="16" style="stroke:#1F2A44;stroke-width:0.5;"/><path d="M67.23,659.4394 C71.23,659.4394 74.23,659.4394 78.23,655.4394 C86.23,655.4394 94.23,663.4394 94.23,671.4394 L94.23,675.4394 C94.23,679.4394 90.23,683.4394 86.23,683.4394 L48.23,683.4394 C44.23,683.4394 40.23,679.4394 40.23,675.4394 L40.23,671.4394 C40.23,663.4394 48.23,655.4394 56.23,655.4394 C60.23,659.4394 63.23,659.4394 67.23,659.4394 " fill="#FFFFFF" style="stroke:#1F2A44;stroke-width:0.5;"/><text fill="#000000" font-family="sans-serif" font-size="13" font-weight="bold" lengthAdjust="spacing" textLength="92.46" x="21" y="697.4345">Administrateur</text></g><g id="elem_GMN3"><path d="M6,737.9394 L6,797.2831 A3,3 0 0 0 9,800.2831 L124.8853,800.2831 A3,3 0 0 0 127.8853,797.2831 L127.8853,744.9394 L117.8853,734.9394 L71,734.9394 L67,700.0894 L63,734.9394 L9,734.9394 A3,3 0 0 0 6,737.9394 " fill="#FFF8DC" style="stroke:#C9A227;stroke-width:0.5;"/><path d="M117.8853,734.9394 L117.8853,743.4394 A1.5,1.5 0 0 0 119.3853,744.9394 L127.8853,744.9394 L117.8853,734.9394 " fill="#FFF8DC" style="stroke:#C9A227;stroke-width:0.5;"/><text fill="#000000" font-family="sans-serif" font-size="11" lengthAdjust="spacing" textLength="100.2837" x="12" y="751.3583">Utilisateur unique du</text><text fill="#000000" font-family="sans-serif" font-size="11" lengthAdjust="spacing" textLength="88.6392" x="12" y="765.1943">syst&#232;me SPARKY</text><text fill="#000000" font-family="sans-serif" font-size="11" lengthAdjust="spacing" textLength="100.8853" x="12" y="779.0302">G&#232;re et utilise toutes</text><text fill="#000000" font-family="sans-serif" font-size="11" lengthAdjust="spacing" textLength="87.4414" x="12" y="792.8661">les fonctionnalit&#233;s</text></g><!--entity Mistral--><g id="elem_Mistral"><ellipse cx="817.2563" cy="411.4394" fill="#FFFFFF" rx="16" ry="16" style="stroke:#1F2A44;stroke-width:0.5;"/><path d="M817.2563,431.4394 C821.2563,431.4394 824.2563,431.4394 828.2563,427.4394 C836.2563,427.4394 844.2563,435.4394 844.2563,443.4394 L844.2563,447.4394 C844.2563,451.4394 840.2563,455.4394 836.2563,455.4394 L798.2563,455.4394 C794.2563,455.4394 790.2563,451.4394 790.2563,447.4394 L790.2563,443.4394 C790.2563,435.4394 798.2563,427.4394 806.2563,427.4394 C810.2563,431.4394 813.2563,431.4394 817.2563,431.4394 " fill="#FFFFFF" style="stroke:#1F2A44;stroke-width:0.5;"/><text fill="#000000" font-family="sans-serif" font-size="13" font-weight="bold" lengthAdjust="spacing" textLength="58.5127" x="788" y="469.4345">Mistral AI</text></g><g id="elem_GMN7"><path d="M755.5,510.4394 L755.5,542.1113 A3,3 0 0 0 758.5,545.1113 L876.4907,545.1113 A3,3 0 0 0 879.4907,542.1113 L879.4907,517.4394 L869.4907,507.4394 L821.5,507.4394 L817.5,472.0394 L813.5,507.4394 L758.5,507.4394 A3,3 0 0 0 755.5,510.4394 " fill="#FFF8DC" style="stroke:#C9A227;stroke-width:0.5;"/><path d="M869.4907,507.4394 L869.4907,515.9394 A1.5,1.5 0 0 0 870.9907,517.4394 L879.4907,517.4394 L869.4907,507.4394 " fill="#FFF8DC" style="stroke:#C9A227;stroke-width:0.5;"/><text fill="#000000" font-family="sans-serif" font-size="11" lengthAdjust="spacing" textLength="102.9907" x="761.5" y="523.8583">Service d'intelligence</text><text fill="#000000" font-family="sans-serif" font-size="11" lengthAdjust="spacing" textLength="80.6738" x="761.5" y="537.6943">artificielle (OCR)</text></g><!--entity DB--><g id="elem_DB"><ellipse cx="817.4631" cy="171.4394" fill="#FFFFFF" rx="16" ry="16" style="stroke:#1F2A44;stroke-width:0.5;"/><path d="M817.4631,191.4394 C821.4631,191.4394 824.4631,191.4394 828.4631,187.4394 C836.4631,187.4394 844.4631,195.4394 844.4631,203.4394 L844.4631,207.4394 C844.4631,211.4394 840.4631,215.4394 836.4631,215.4394 L798.4631,215.4394 C794.4631,215.4394 790.4631,211.4394 790.4631,207.4394 L790.4631,203.4394 C790.4631,195.4394 798.4631,187.4394 806.4631,187.4394 C810.4631,191.4394 813.4631,191.4394 817.4631,191.4394 " fill="#FFFFFF" style="stroke:#1F2A44;stroke-width:0.5;"/><text fill="#000000" font-family="sans-serif" font-size="13" font-weight="bold" lengthAdjust="spacing" textLength="106.9263" x="764" y="229.4345">Base de donn&#233;es</text></g><g id="elem_GMN11"><path d="M752,270.4394 L752,302.1113 A3,3 0 0 0 755,305.1113 L880.0806,305.1113 A3,3 0 0 0 883.0806,302.1113 L883.0806,277.4394 L873.0806,267.4394 L821.5,267.4394 L817.5,232.0394 L813.5,267.4394 L755,267.4394 A3,3 0 0 0 752,270.4394 " fill="#FFF8DC" style="stroke:#C9A227;stroke-width:0.5;"/><path d="M873.0806,267.4394 L873.0806,275.9394 A1.5,1.5 0 0 0 874.5806,277.4394 L883.0806,277.4394 L873.0806,267.4394 " fill="#FFF8DC" style="stroke:#C9A227;stroke-width:0.5;"/><text fill="#000000" font-family="sans-serif" font-size="11" lengthAdjust="spacing" textLength="66.0322" x="758" y="283.8583">PostgreSQL :</text><text fill="#000000" font-family="sans-serif" font-size="11" lengthAdjust="spacing" textLength="110.0806" x="758" y="297.6943">stockage des donn&#233;es</text></g><!--link Admin to UC_Login--><g id="link_Admin_UC_Login"><path d="M71.25,622.8494 C80.32,524.5594 109.09,268.3994 167,209.4394 C186.85,189.2294 211.0115,181.564 237.7315,178.404 " fill="none" id="Admin-to-UC_Login" style="stroke:#444444;stroke-width:1.0;"/><polygon fill="#444444" points="243.69,177.6994,234.2825,174.7841,238.7246,178.2866,235.2221,182.7287,243.69,177.6994" style="stroke:#444444;stroke-width:1.0;"/></g><!--link Admin to UC_Register--><g id="link_Admin_UC_Register"><path d="M69.83,622.6794 C74.92,554.2594 94.18,410.5894 167,318.4394 C191.61,287.2894 227.1278,268.9335 257.4278,257.1535 " fill="none" id="Admin-to-UC_Register" style="stroke:#444444;stroke-width:1.0;"/><polygon fill="#444444" points="263.02,254.9794,253.1822,254.5124,258.3598,256.7912,256.0811,261.9687,263.02,254.9794" style="stroke:#444444;stroke-width:1.0;"/></g><!--link Admin to UC_Scan--><g id="link_Admin_UC_Scan"><path d="M106.09,622.6894 C123.93,605.3294 145.87,585.0694 167,568.4394 C201.76,541.0894 239.8852,516.9566 267.8152,500.1966 " fill="none" id="Admin-to-UC_Scan" style="stroke:#444444;stroke-width:1.0;"/><polygon fill="#444444" points="272.96,497.1094,263.1846,498.3104,268.6727,499.6821,267.301,505.1701,272.96,497.1094" style="stroke:#444444;stroke-width:1.0;"/></g><!--link Admin to UC_List--><g id="link_Admin_UC_List"><path d="M75.18,622.8694 C86.28,574.1394 112.31,491.0294 167,444.4394 C183.68,430.2294 199.569,422.9335 220.649,417.5135 " fill="none" id="Admin-to-UC_List" style="stroke:#444444;stroke-width:1.0;"/><polygon fill="#444444" points="226.46,416.0194,216.7474,414.3865,221.6175,417.2645,218.7396,422.1345,226.46,416.0194" style="stroke:#444444;stroke-width:1.0;"/></g><!--link Admin to UC_Export--><g id="link_Admin_UC_Export"><path d="M113.22,697.9894 C118.79,704.0194 123.94,710.5694 128,717.4394 C164.11,778.6194 110.98,828.7694 167,872.4394 C253.58,939.9294 324.38,935.8294 414,872.4394 C484.81,822.3594 462.25,773.5394 479,688.4394 C484.03,662.8994 474.88,475.2594 490.5,454.4394 C499.66,442.2294 507.9354,436.4292 522.3854,431.5492 " fill="none" id="Admin-to-UC_Export" style="stroke:#444444;stroke-width:1.0;"/><polygon fill="#444444" points="528.07,429.6294,518.2633,428.7193,523.3328,431.2292,520.823,436.2988,528.07,429.6294" style="stroke:#444444;stroke-width:1.0;"/></g><!--link Admin to UC_Import--><g id="link_Admin_UC_Import"><path d="M113.08,696.6094 C118.9,702.9594 124.16,709.9594 128,717.4394 C158.54,776.8294 116.8,971.3794 167,1015.4394 C271.67,1107.2994 376.04,1080.2194 479,986.4394 C534.42,935.9594 566.181,855.5874 578.611,819.1874 " fill="none" id="Admin-to-UC_Import" style="stroke:#444444;stroke-width:1.0;"/><polygon fill="#444444" points="580.55,813.5094,573.8562,820.7338,578.9342,818.2411,581.4269,823.3191,580.55,813.5094" style="stroke:#444444;stroke-width:1.0;"/></g><!--link Admin to UC_Stock--><g id="link_Admin_UC_Stock"><path d="M113.03,696.6294 C118.86,702.9794 124.13,709.9794 128,717.4394 C150.51,760.8494 121.14,903.2994 158,935.4394 C265.54,1029.1894 374.85,1032.9394 479,935.4394 C507.29,908.9594 466.99,792.2394 490.5,761.4394 C499.76,749.3094 508.0746,743.5268 522.5146,738.6568 " fill="none" id="Admin-to-UC_Stock" style="stroke:#444444;stroke-width:1.0;"/><polygon fill="#444444" points="528.2,736.7394,518.3937,735.8253,523.4622,738.3372,520.9502,743.4058,528.2,736.7394" style="stroke:#444444;stroke-width:1.0;"/></g><!--link Admin to UC_Compare--><g id="link_Admin_UC_Compare"><path d="M113.02,649.8694 C153.18,639.5494 205.9987,625.9724 247.1787,615.3924 " fill="none" id="Admin-to-UC_Compare" style="stroke:#444444;stroke-width:1.0;"/><polygon fill="#444444" points="252.99,613.8994,243.2777,612.2647,248.1473,615.1436,245.2685,620.0131,252.99,613.8994" style="stroke:#444444;stroke-width:1.0;"/></g><!--link Admin to UC_Dashboard--><g id="link_Admin_UC_Dashboard"><path d="M113.02,672.6194 C148.01,681.3094 191.1967,692.0439 230.4767,701.7939 " fill="none" id="Admin-to-UC_Dashboard" style="stroke:#444444;stroke-width:1.0;"/><polygon fill="#444444" points="236.3,703.2394,228.5287,697.189,231.4473,702.0348,226.6014,704.9534,236.3,703.2394" style="stroke:#444444;stroke-width:1.0;"/></g><!--link Admin to UC_ManageUsers--><g id="link_Admin_UC_ManageUsers"><path d="M110.39,700.1694 C116.38,705.8794 122.4,711.7594 128,717.4394 C146.11,735.8094 146.94,744.2194 167,760.4394 C198.7,786.0594 234.4319,805.9191 262.8119,820.0891 " fill="none" id="Admin-to-UC_ManageUsers" style="stroke:#444444;stroke-width:1.0;"/><polygon fill="#444444" points="268.18,822.7694,261.9147,815.1703,263.7066,820.5358,258.3411,822.3277,268.18,822.7694" style="stroke:#444444;stroke-width:1.0;"/></g><!--link UC_Scan to UC_Classify--><g id="link_UC_Scan_UC_Classify"><path d="M379.95,483.1494 C420.15,484.5694 463.2837,486.0976 503.4937,487.5176 " fill="none" id="UC_Scan-to-UC_Classify" style="stroke:#444444;stroke-width:1.0;stroke-dasharray:7.0,7.0;"/><polygon fill="#444444" points="509.49,487.7294,500.6368,483.4142,504.4931,487.5529,500.3544,491.4092,509.49,487.7294" style="stroke:#444444;stroke-width:1.0;"/><text fill="#000000" font-family="sans-serif" font-size="13" lengthAdjust="spacing" textLength="55.6563" x="423" y="481.9345">&#171;include&#187;</text></g><!--link UC_Scan to UC_Extract--><g id="link_UC_Scan_UC_Extract"><path d="M370.08,471.3694 C386.58,466.0394 402.75,457.6494 414,444.4394 C428.88,426.9794 406.52,410.3694 422,393.4394 C444.78,368.5294 474.2343,358.5351 506.3343,354.1851 " fill="none" id="UC_Scan-to-UC_Extract" style="stroke:#444444;stroke-width:1.0;stroke-dasharray:7.0,7.0;"/><polygon fill="#444444" points="512.28,353.3794,502.8244,350.6242,507.3253,354.0508,503.8987,358.5517,512.28,353.3794" style="stroke:#444444;stroke-width:1.0;"/><text fill="#000000" font-family="sans-serif" font-size="13" lengthAdjust="spacing" textLength="55.6563" x="423" y="358.9345">&#171;include&#187;</text></g><!--link UC_List to UC_Export--><g id="link_UC_List_UC_Export"><path d="M383.48,413.1794 C396.35,413.9994 409.54,414.7894 422,415.4394 C453.87,417.0994 483.2434,418.2475 512.9534,419.2475 " fill="none" id="UC_List-to-UC_Export" style="stroke:#444444;stroke-width:1.0;stroke-dasharray:7.0,7.0;"/><polygon fill="#444444" points="518.95,419.4494,510.0897,415.1489,513.9528,419.2812,509.8205,423.1444,518.95,419.4494" style="stroke:#444444;stroke-width:1.0;"/><text fill="#000000" font-family="sans-serif" font-size="13" lengthAdjust="spacing" textLength="53.4917" x="424" y="411.9345">&#171;extend&#187;</text></g><!--link UC_Compare to UC_Stock--><g id="link_UC_Compare_UC_Stock"><path d="M337.02,616.5094 C391.97,641.2094 495.0175,687.5394 548.7875,711.7094 " fill="none" id="UC_Compare-to-UC_Stock" style="stroke:#444444;stroke-width:1.0;stroke-dasharray:7.0,7.0;"/><polygon fill="#444444" points="554.26,714.1694,547.6912,706.8311,549.6996,712.1194,544.4112,714.1278,554.26,714.1694" style="stroke:#444444;stroke-width:1.0;"/><text fill="#000000" font-family="sans-serif" font-size="13" lengthAdjust="spacing" textLength="55.6563" x="423" y="653.9345">&#171;include&#187;</text></g><!--link UC_Classify to Mistral--><g id="link_UC_Classify_Mistral"><path d="M640.71,477.2894 C686.44,465.8794 745.1086,451.2524 781.9286,442.0624 " fill="none" id="UC_Classify-to-Mistral" style="stroke:#444444;stroke-width:1.0;"/><polygon fill="#444444" points="787.75,440.6094,778.0492,438.9079,782.8988,441.8202,779.9865,446.6698,787.75,440.6094" style="stroke:#444444;stroke-width:1.0;"/></g><!--link UC_Extract to Mistral--><g id="link_UC_Extract_Mistral"><path d="M639.31,365.0094 C662.12,371.0494 689.15,378.8494 713,387.4394 C738.9,396.7694 762.0112,407.0733 782.5412,416.8333 " fill="none" id="UC_Extract-to-Mistral" style="stroke:#444444;stroke-width:1.0;"/><polygon fill="#444444" points="787.96,419.4094,781.5492,411.9327,783.4443,417.2626,778.1144,419.1577,787.96,419.4094" style="stroke:#444444;stroke-width:1.0;"/></g><!--link UC_List to DB--><g id="link_UC_List_DB"><path d="M326.06,388.5194 C352.43,364.8794 394.88,321.7594 414,274.4394 C422.93,252.3294 404.52,183.6594 422,167.4394 C515.08,81.0594 674.1222,130.7762 758.2522,166.2862 " fill="none" id="UC_List-to-DB" style="stroke:#444444;stroke-width:1.0;"/><polygon fill="#444444" points="763.78,168.6194,757.0438,161.4344,759.1735,166.6751,753.9329,168.8048,763.78,168.6194" style="stroke:#444444;stroke-width:1.0;"/></g><!--link UC_Stock to DB--><g id="link_UC_Stock_DB"><path d="M600.84,712.6994 C626.81,679.9294 685.44,601.0494 713,524.4394 C754.78,408.2794 693,357.8694 752,249.4394 C755.33,243.3194 755.6041,242.0262 760.3841,236.6962 " fill="none" id="UC_Stock-to-DB" style="stroke:#444444;stroke-width:1.0;"/><polygon fill="#444444" points="764.39,232.2294,755.4032,236.259,761.0517,235.9517,761.359,241.6002,764.39,232.2294" style="stroke:#444444;stroke-width:1.0;"/></g><!--link UC_Compare to DB--><g id="link_UC_Compare_DB"><path d="M339.8,586.8694 C365.5,574.4394 398.11,553.8594 414,524.4394 C421.55,510.4494 411.25,250.1494 422,238.4394 C508.82,143.8494 672.241,161.8806 758.061,179.3806 " fill="none" id="UC_Compare-to-DB" style="stroke:#444444;stroke-width:1.0;"/><polygon fill="#444444" points="763.94,180.5794,755.9207,174.8618,759.0408,179.5804,754.3223,182.7005,763.94,180.5794" style="stroke:#444444;stroke-width:1.0;"/></g><!--link UC_Login to DB--><g id="link_UC_Login_DB"><path d="M317.3,163.7594 C337.97,144.3494 379.15,109.6894 422,96.4394 C549.39,57.0594 599.15,44.6094 722,96.4394 C750.16,108.3194 770.4117,128.4091 787.1417,149.9691 " fill="none" id="UC_Login-to-DB" style="stroke:#444444;stroke-width:1.0;"/><polygon fill="#444444" points="790.82,154.7094,788.4627,145.1468,787.7547,150.7592,782.1424,150.0512,790.82,154.7094" style="stroke:#444444;stroke-width:1.0;"/></g><!--link UC_ManageUsers to DB--><g id="link_UC_ManageUsers_DB"><path d="M340.44,823.3394 C366.1,810.6794 398.39,789.9094 414,760.4394 C425.5,738.7394 407.31,338.1194 422,318.4394 C463.41,262.9394 660.1968,221.2225 757.8368,203.4725 " fill="none" id="UC_ManageUsers-to-DB" style="stroke:#444444;stroke-width:1.0;"/><polygon fill="#444444" points="763.74,202.3994,754.1697,200.0736,758.8206,203.2937,755.6006,207.9446,763.74,202.3994" style="stroke:#444444;stroke-width:1.0;"/></g><!--SRC=[nLRRRXit47tVhnYu3x8VdCAkqQP1Qa2MOyDeWgPMNQ10WOBcZjP4A58bkRwq292Fo4V4tw4_oPTqU5c9t5Lie45JMGAyCuTpEJn3xWX- -8nFDOBfw_7vZx_1BXmBrXWsdoFKQ84p2_MeTK8AovpG2hQlqLZ_p_BUjRLWok4EhHzpXws1Lea_MuHdCAxdGWdh30lsxHW2mUdMKLn9lvbMt8TKJ0gtlBS-p6Tr8N7cA04OqLmvg8N14B-oRuHQC6eA5eo_OGrEtPr4y6wc6eaPW76dJNIp6xHwdZlj5QlrZL0Dp9YqkSVeLjKJRHGQ-3QpjnQ9GJoYj4t2I6tWgvFmsG3KfaQJG7id- -E3Wo7eH2it5NyXxEqFMnkcUkh_DW0VJ1LuUBpi27iyqhhaRpQw0k6NMjQPLsctaRYdnvC-AYzWylruV_-x7cATVo_pZ8tHDsdP0HLTEU6eZiScuEExzp1UBAJWyJcEJaNg_VZ-NVnsux0mGd6nO7Bj-fBVAZ0CM-KmRW6r54oLvuPuTqxFGS-I4U0YTPjDTDsItTvPj_n0nAIM0KwN7mm2EYZdcpoR9hn2LOVzs4IM1PAtLZMZkRMmtUMoWBSEQRBi3lpR_b-5tYMCpqBlwR7VVMS6cAAv5foQ7WawtgGK3IgEv636YPdWWcm8spzDpdUobbAo8nfHKWxKrFVo7cr8UNpKpqOMWDVQkiRWzEUNyCppwtIOpI2yRlqdI9jsU_6_AEiXqbVdAcnDIy5imTyLjPbE8D9bwwvG1Kh3A7a_q2STTBH-n5OGZCAzcFpnKZT1fXbmOeWgBrRWUhvms47FiQ5THKFejqNgKxHXU2FJl9rJ4ZlCpvbICMu7wY9xLwy6oQmDXPBu1_ZalIlNlBWboP7WmxWKYg4bmSbTBujMjfKk92bAJznGk_qK2sqy7XMykEKer-6zuq5clDwvn24nP_CKL1Qe63WwFrrsrFcAIFymg692syZIomCD4nsajuCY8gPZ0g_5geBa6KJzXLrAPAsFU4cNnY3YhyAsp9zZeKmNqR-h5Jn6FsRswb8pKm_YPmVj9ZcVBk-xSjlr4Rkg-XLJ5EM2ijiG-MqvyUSeGrWxUBbwwAKg1QZ26jZTFLnFK65QJKfX3Ielbtg15PQaeyAM95362XjTcBfzAenhUWjppax1ovdYihM1cAz9uGvLVFZF3xh4Zz_Y9qyEyo6d5-3dpuMlgyR3mmt0DDem17f-2w0d4YBGtuIgZhX4NOSBv0Bq0pvwptxHco5doEzgT-FcXFJi7Ht1JdTctkhQr96HcOB4IrIceCxw3m00]--></g></svg>